<svg width="162" height="87" viewBox="0 0 162 87" fill="none" xmlns="http://www.w3.org/2000/svg">
<g clip-path="url(#clip0_2_529)">
<path d="M0 31.599C0.344403 31.1685 0.774908 31.0824 1.20541 31.0824C6.19926 31.0824 11.2792 31.0824 16.2731 31.0824C16.7036 31.0824 16.9619 30.9102 17.1341 30.5658C20.7503 24.7971 24.3665 19.1144 27.8967 13.3457C28.155 13.0012 28.4133 12.829 28.8438 12.829C31.599 12.829 34.2681 12.829 37.0234 12.829C37.1095 12.829 37.1095 12.829 37.1956 12.829C37.1956 12.1402 37.1956 11.3653 37.1956 10.5904C37.0234 10.5904 36.8512 10.5904 36.5929 10.5904C34.0959 10.5904 31.6851 10.5904 29.1882 10.5904C29.1021 10.5904 28.9299 10.6765 28.8438 10.5904C28.6716 10.5043 28.5855 10.3321 28.4133 10.1599C28.5855 10.0738 28.6716 9.90162 28.8438 9.81552C28.9299 9.72942 29.1021 9.81552 29.1882 9.81552C31.6851 9.81552 34.0959 9.81552 36.5929 9.81552C36.7651 9.81552 36.9373 9.81552 37.1095 9.81552C37.1095 8.95451 37.1095 8.1796 37.1095 7.31859C36.9373 7.31859 36.7651 7.31859 36.5929 7.31859C34.0959 7.31859 31.5129 7.31859 29.016 7.31859C28.8438 7.31859 28.6716 7.31859 28.5855 7.31859C28.4133 7.23249 28.3272 7.06029 28.3272 6.88809C28.3272 6.80199 28.4994 6.62979 28.6716 6.54368C28.7577 6.45758 28.9299 6.54368 29.1021 6.54368C31.599 6.54368 34.0959 6.54368 36.5929 6.54368C36.7651 6.54368 36.9373 6.54368 37.1095 6.54368C37.1095 5.68268 37.1095 4.90777 37.1095 4.04676C36.9373 4.04676 36.7651 4.04676 36.5068 4.04676C34.0098 4.04676 31.5129 4.04676 29.016 4.04676C28.8438 4.04676 28.6716 4.04676 28.5855 3.96066C28.4133 3.87456 28.3272 3.70236 28.3272 3.61626C28.3272 3.44405 28.4994 3.35795 28.6716 3.27185C28.7577 3.18575 28.9299 3.27185 29.1021 3.27185C31.7712 3.27185 34.4403 3.27185 37.1956 3.27185C37.1956 2.58305 37.1956 1.89424 37.1956 1.20543C37.1956 0.774927 37.2817 0.344423 37.7122 0.0861206C37.9705 0.0861206 38.1427 0.0861206 38.401 0.0861206C46.4084 5.85488 54.2435 11.7958 62.0787 17.6507C67.0726 21.4391 72.1525 25.1415 77.1464 28.9299C77.4047 29.1882 77.663 29.3604 77.663 29.7909C77.663 30.2214 77.3186 30.4797 76.8881 30.5658C76.802 30.5658 76.6298 30.5658 76.5437 30.5658C71.0332 30.5658 65.4366 30.5658 59.9262 30.5658C59.5818 30.5658 59.4096 30.6519 59.2374 30.9963C55.6212 36.8512 51.9188 42.706 48.3026 48.5609C48.0443 48.9053 47.786 48.9914 47.3555 48.9914C44.6002 48.9914 41.9311 48.9914 39.1759 48.9914C39.0898 48.9914 39.0898 48.9914 39.0037 48.9914C39.0037 49.8524 39.0037 50.7134 39.0037 51.5744C39.1759 51.5744 39.3481 51.5744 39.5203 51.5744C42.1033 51.5744 44.6863 51.5744 47.2694 51.5744C47.3555 51.5744 47.5277 51.5744 47.6138 51.5744C47.786 51.6605 47.8721 51.8327 47.9582 51.9188C47.9582 52.0049 47.8721 52.1771 47.6999 52.2632C47.5277 52.3493 47.3555 52.3493 47.1833 52.3493C44.6002 52.3493 42.1033 52.3493 39.5203 52.3493C39.3481 52.3493 39.1759 52.3493 38.9176 52.3493C38.9176 53.2103 38.9176 53.9853 38.9176 54.8463C39.0898 54.8463 39.262 54.8463 39.5203 54.8463C42.1033 54.8463 44.6002 54.8463 47.1833 54.8463C47.3555 54.8463 47.5277 54.8463 47.6138 54.8463C47.786 54.9324 47.9582 55.1046 47.9582 55.2768C47.9582 55.449 47.6999 55.5351 47.5277 55.6212C47.4416 55.7073 47.2694 55.6212 47.1833 55.6212C44.428 55.6212 41.7589 55.6212 39.0037 55.6212C39.0037 56.4822 39.0037 57.2571 39.0037 58.1181C39.1759 58.1181 39.3481 58.1181 39.5203 58.1181C42.1033 58.1181 44.7724 58.1181 47.3555 58.1181C47.4416 58.1181 47.6138 58.032 47.6999 58.1181C47.8721 58.2042 48.0443 58.3764 48.0443 58.5486C48.0443 58.6347 47.8721 58.8069 47.786 58.893C47.6138 58.9791 47.4416 58.893 47.2694 58.893C44.6863 58.893 42.1033 58.893 39.5203 58.893C39.3481 58.893 39.1759 58.893 38.9176 58.893C38.9176 59.4957 38.9176 60.0123 38.9176 60.5289C38.9176 60.8733 38.9176 61.2177 38.4871 61.3899C38.1427 61.5621 37.7983 61.476 37.4539 61.2177C31.9434 56.9127 26.433 52.6937 20.9225 48.4748C14.2927 43.3949 7.49077 38.1427 0.774908 32.8905C0.516605 32.7183 0.258303 32.46 0 32.2017C0 32.0295 0 31.7712 0 31.599ZM37.3678 14.5511C34.7847 14.5511 32.2017 14.5511 29.6187 14.5511C29.6187 14.8094 29.6187 14.9816 29.6187 15.1538C29.6187 18.77 29.6187 22.3862 29.6187 26.0025C29.6187 31.2546 29.6187 36.5068 29.6187 41.7589C29.6187 41.845 29.6187 42.0172 29.6187 42.1033C29.5326 42.706 28.8438 43.0504 28.3272 42.706C28.155 42.6199 28.0689 42.5338 27.9828 42.3616C24.4526 39.1759 20.9225 36.0763 17.3063 32.8905C17.1341 32.7183 16.8758 32.6322 16.6175 32.6322C12.3124 32.6322 8.00738 32.6322 3.70234 32.6322C3.53014 32.6322 3.44403 32.6322 3.18573 32.6322C14.6371 41.5867 26.0025 50.2829 37.3678 59.1513C37.3678 58.893 37.3678 58.7208 37.3678 58.6347C37.3678 52.2632 37.3678 45.9779 37.3678 39.6064C37.3678 39.0037 37.7122 38.5732 38.2288 38.5732C38.6593 38.5732 39.0037 38.9176 39.0037 39.6064C39.0037 42.0172 39.0037 44.342 39.0037 46.7528C39.0037 46.925 39.0037 47.0972 39.0037 47.2694C41.5867 47.2694 44.1697 47.2694 46.8389 47.2694C46.8389 47.0972 46.8389 46.925 46.8389 46.7528C46.8389 44.5142 46.8389 42.2755 46.8389 40.0369C46.8389 37.1095 46.8389 34.2682 46.8389 31.3407C46.8389 27.5523 46.8389 23.85 46.8389 20.0615C46.8389 19.8893 46.7528 19.7171 46.8389 19.5449C46.925 19.2866 47.0972 18.9422 47.2694 18.8561C47.5277 18.77 47.8721 18.8561 48.1304 18.9422C48.3026 18.9422 48.3887 19.1144 48.4748 19.2005C52.0049 22.3001 55.535 25.4859 59.0652 28.5855C59.2374 28.7577 59.4957 28.8438 59.754 28.8438C64.4895 28.8438 69.2251 28.8438 73.9606 28.8438C74.0467 28.8438 74.2189 28.8438 74.3911 28.7577C62.5092 19.9754 50.7995 11.2792 39.0037 2.41084C39.0037 2.75525 39.0037 2.92745 39.0037 3.09965C39.0037 9.90162 39.0037 16.7897 39.0037 23.5917C39.0037 23.7639 39.0037 23.85 39.0037 24.0222C39.0037 24.4527 38.7454 24.711 38.3149 24.711C37.8844 24.7971 37.6261 24.6249 37.4539 24.2805C37.3678 24.1083 37.3678 23.85 37.3678 23.6778C37.3678 21.5252 37.3678 19.3727 37.3678 17.1341C37.3678 16.3592 37.3678 15.4982 37.3678 14.5511ZM55.7934 27.8967C55.7073 27.9828 55.7072 28.0689 55.6212 28.0689C53.2964 31.8573 50.8856 35.6458 48.5609 39.4342C48.4748 39.6064 48.3887 39.8647 48.3887 40.123C48.3887 41.5867 48.3887 43.0504 48.3887 44.6003C48.3887 44.7725 48.3887 44.8586 48.3887 45.1169C51.5744 39.9508 54.7601 34.957 57.9459 29.877C57.2571 29.1882 56.5683 28.5855 55.7934 27.8967ZM20.6642 33.7516C20.7503 33.5794 20.9225 33.4072 20.9225 33.3211C22.9028 30.2214 24.7109 27.0357 26.7774 24.0222C27.6384 22.7306 28.155 21.353 27.9828 19.8032C27.8967 19.0283 27.9828 18.2534 27.9828 17.4785C27.8967 17.4785 27.8967 17.3924 27.8106 17.3924C24.6248 22.214 21.5252 26.9496 18.3395 31.7712C19.1144 32.46 19.8893 33.0627 20.6642 33.7516ZM52.4354 24.8832C52.3493 24.9693 52.3493 25.0554 52.2632 25.0554C51.0578 27.0357 49.7663 29.016 48.5609 30.9963C48.4748 31.1685 48.3887 31.4268 48.3887 31.599C48.3887 33.5794 48.3887 35.5597 48.3887 37.54C48.3887 37.6261 48.3887 37.7983 48.3887 38.0566C50.7134 34.3543 52.8659 30.8241 55.1045 27.294C54.2435 26.5191 53.3825 25.7442 52.4354 24.8832ZM24.0221 36.7651C25.3137 34.6987 26.6052 32.6322 27.8967 30.5658C27.9828 30.3936 27.9828 30.2214 27.9828 30.0492C27.9828 28.6716 27.9828 27.2079 27.9828 25.8303C27.9828 25.1415 27.9828 24.4527 27.9828 23.7639C27.8967 23.7639 27.8967 23.7639 27.8106 23.7639C25.6581 27.294 23.4194 30.8241 21.1808 34.3543C22.214 35.1292 23.075 35.9041 24.0221 36.7651ZM27.9828 40.2091C27.9828 37.4539 27.9828 34.7848 27.9828 32.0295C26.8635 33.8377 25.7442 35.5597 24.7109 37.2817C25.7442 38.3149 26.8635 39.262 27.9828 40.2091ZM48.4748 21.353C48.4748 24.1083 48.4748 26.7774 48.4748 29.6187C49.5941 27.7245 50.7134 26.0025 51.8327 24.2805C50.7134 23.3334 49.5941 22.3862 48.4748 21.353Z" fill="white"/>
<path d="M55.7936 27.8967C56.5685 28.5855 57.2573 29.1882 57.9461 29.7909C54.7604 34.8708 51.6607 39.8647 48.3889 45.0307C48.3889 44.7724 48.3889 44.6002 48.3889 44.5141C48.3889 43.0504 48.3889 41.5867 48.3889 40.0369C48.3889 39.7786 48.475 39.5203 48.5611 39.3481C50.8858 35.5596 53.2967 31.7712 55.6214 27.9828C55.7075 28.0689 55.7075 27.9828 55.7936 27.8967Z" fill="#F7C125"/>
<path d="M20.6643 33.7515C19.8894 33.0627 19.2006 32.46 18.3396 31.6851C21.5253 26.8635 24.625 22.1279 27.8107 17.3063C27.8968 17.3063 27.8968 17.3924 27.9829 17.3924C27.9829 18.1673 27.8968 18.9422 27.9829 19.7171C28.1551 21.353 27.6385 22.6445 26.7775 23.936C24.7972 26.9496 22.9029 30.1353 20.9226 33.2349C20.8365 33.4071 20.7504 33.5793 20.6643 33.7515Z" fill="#F7C125"/>
<path d="M52.4355 24.8831C53.3826 25.7441 54.2436 26.519 55.1907 27.2939C52.9521 30.8241 50.7996 34.3542 48.4749 38.0566C48.4749 37.7983 48.4749 37.7121 48.4749 37.5399C48.4749 35.5596 48.4749 33.5793 48.4749 31.599C48.4749 31.4268 48.561 31.1685 48.6471 30.9963C49.8525 29.016 51.144 27.0356 52.3494 25.0553C52.3494 25.0553 52.3494 25.0553 52.4355 24.8831Z" fill="#F7C125"/>
<path d="M24.0223 36.7651C23.0752 35.9041 22.2142 35.1291 21.2671 34.2681C23.5057 30.738 25.6582 27.2079 27.8969 23.6777C27.983 23.6777 27.983 23.6777 28.0691 23.6777C28.0691 24.3665 28.0691 25.0553 28.0691 25.7442C28.0691 27.1218 28.0691 28.5855 28.0691 29.9631C28.0691 30.1353 28.0691 30.3075 27.983 30.4797C26.6053 32.6322 25.3138 34.6986 24.0223 36.7651Z" fill="#F7C125"/>
<path d="M27.983 40.2091C26.8637 39.262 25.8305 38.2288 24.7112 37.2817C25.8305 35.5597 26.8637 33.8377 27.983 32.0295C27.983 34.7848 27.983 37.54 27.983 40.2091Z" fill="#F7C125"/>
<path d="M48.4749 21.353C49.5942 22.3862 50.7135 23.3333 51.8328 24.2805C50.7135 26.0025 49.6803 27.7245 48.4749 29.6187C48.4749 26.8635 48.4749 24.1944 48.4749 21.353Z" fill="#F7C125"/>
<path d="M79.7295 60.0984C77.0604 61.2177 74.4773 61.8204 72.0665 61.8204C67.0727 61.8204 63.0259 60.3567 59.9263 57.5154C56.8267 54.6741 55.2769 50.9717 55.2769 46.4945C55.2769 42.1033 56.9128 38.401 60.2707 35.4736C63.4564 32.6322 67.5032 31.1685 72.1526 31.1685C74.994 31.1685 77.4909 31.7712 79.7295 32.8905V39.3481C77.6631 37.2817 75.0801 36.2485 71.8943 36.2485C68.8808 36.2485 66.3839 37.1956 64.4036 39.0037C62.3371 40.8979 61.3039 43.3948 61.3039 46.3223C61.3039 49.4219 62.3371 51.8327 64.4036 53.7269C66.3839 55.5351 68.8808 56.3961 71.8943 56.3961C74.9079 56.3961 77.4909 55.3629 79.7295 53.3825V60.0984Z" fill="white"/>
<path d="M102.46 36.7651H95.1414V61.1316H89.2866V36.7651H81.968V32.0295H102.46V36.7651Z" fill="white"/>
<path d="M131.218 61.1316H123.469L111.328 46.925V61.1316H105.474V32.0295H111.328V44.9447L123.124 32.0295H130.615L117.183 45.8057L131.218 61.1316Z" fill="white"/>
</g>
<path d="M7.462 78.946C8.14333 79.086 8.66133 79.3613 9.016 79.772C9.37067 80.1733 9.548 80.7007 9.548 81.354C9.548 82.2033 9.24467 82.8567 8.638 83.314C8.04067 83.7713 7.15867 84 5.992 84H1.652V74.2H5.726C6.77133 74.2 7.588 74.4147 8.176 74.844C8.764 75.2733 9.058 75.894 9.058 76.706C9.058 77.2567 8.918 77.7233 8.638 78.106C8.358 78.4793 7.966 78.7593 7.462 78.946ZM2.674 78.638H5.67C6.426 78.638 7.00467 78.484 7.406 78.176C7.81667 77.868 8.022 77.42 8.022 76.832C8.022 76.244 7.81667 75.796 7.406 75.488C7.00467 75.18 6.426 75.026 5.67 75.026H2.674V78.638ZM5.992 83.174C7.68133 83.174 8.526 82.544 8.526 81.284C8.526 80.052 7.68133 79.436 5.992 79.436H2.674V83.174H5.992ZM14.9803 84.07C14.2523 84.07 13.599 83.9113 13.0203 83.594C12.451 83.2767 12.003 82.8333 11.6763 82.264C11.3497 81.6853 11.1863 81.0367 11.1863 80.318C11.1863 79.5993 11.3497 78.9553 11.6763 78.386C12.003 77.8167 12.451 77.3733 13.0203 77.056C13.599 76.7387 14.2523 76.58 14.9803 76.58C15.615 76.58 16.1797 76.706 16.6743 76.958C17.1783 77.2007 17.575 77.56 17.8643 78.036L17.1223 78.54C16.8797 78.176 16.5717 77.9053 16.1983 77.728C15.825 77.5413 15.419 77.448 14.9803 77.448C14.4483 77.448 13.9677 77.5693 13.5383 77.812C13.1183 78.0453 12.787 78.3813 12.5443 78.82C12.311 79.2587 12.1943 79.758 12.1943 80.318C12.1943 80.8873 12.311 81.3913 12.5443 81.83C12.787 82.2593 13.1183 82.5953 13.5383 82.838C13.9677 83.0713 14.4483 83.188 14.9803 83.188C15.419 83.188 15.825 83.0993 16.1983 82.922C16.5717 82.7447 16.8797 82.474 17.1223 82.11L17.8643 82.614C17.575 83.09 17.1783 83.454 16.6743 83.706C16.1703 83.9487 15.6057 84.07 14.9803 84.07ZM26.106 80.626H19.946C20.002 81.3913 20.296 82.012 20.828 82.488C21.36 82.9547 22.032 83.188 22.844 83.188C23.3013 83.188 23.7213 83.1087 24.104 82.95C24.4866 82.782 24.818 82.5393 25.098 82.222L25.658 82.866C25.3313 83.258 24.9206 83.5567 24.426 83.762C23.9406 83.9673 23.404 84.07 22.816 84.07C22.06 84.07 21.388 83.9113 20.8 83.594C20.2213 83.2673 19.7686 82.8193 19.442 82.25C19.1153 81.6807 18.952 81.0367 18.952 80.318C18.952 79.5993 19.106 78.9553 19.414 78.386C19.7313 77.8167 20.1606 77.3733 20.702 77.056C21.2526 76.7387 21.8686 76.58 22.55 76.58C23.2313 76.58 23.8426 76.7387 24.384 77.056C24.9253 77.3733 25.35 77.8167 25.658 78.386C25.966 78.946 26.12 79.59 26.12 80.318L26.106 80.626ZM22.55 77.434C21.8406 77.434 21.2433 77.6627 20.758 78.12C20.282 78.568 20.0113 79.156 19.946 79.884H25.168C25.1026 79.156 24.8273 78.568 24.342 78.12C23.866 77.6627 23.2686 77.434 22.55 77.434ZM38.5923 76.636V84H37.5983V77.518H32.9783V84H31.9843V76.636H38.5923ZM45.2119 76.58C45.9026 76.58 46.5279 76.7387 47.0879 77.056C47.6479 77.364 48.0866 77.8027 48.4039 78.372C48.7212 78.9413 48.8799 79.59 48.8799 80.318C48.8799 81.0553 48.7212 81.7087 48.4039 82.278C48.0866 82.8473 47.6479 83.2907 47.0879 83.608C46.5372 83.916 45.9119 84.07 45.2119 84.07C44.6146 84.07 44.0732 83.9487 43.5879 83.706C43.1119 83.454 42.7199 83.09 42.4119 82.614V86.716H41.4179V76.636H42.3699V78.092C42.6686 77.6067 43.0606 77.2333 43.5459 76.972C44.0406 76.7107 44.5959 76.58 45.2119 76.58ZM45.1419 83.188C45.6552 83.188 46.1219 83.0713 46.5419 82.838C46.9619 82.5953 47.2886 82.2547 47.5219 81.816C47.7646 81.3773 47.8859 80.878 47.8859 80.318C47.8859 79.758 47.7646 79.2633 47.5219 78.834C47.2886 78.3953 46.9619 78.0547 46.5419 77.812C46.1219 77.5693 45.6552 77.448 45.1419 77.448C44.6192 77.448 44.1479 77.5693 43.7279 77.812C43.3172 78.0547 42.9906 78.3953 42.7479 78.834C42.5146 79.2633 42.3979 79.758 42.3979 80.318C42.3979 80.878 42.5146 81.3773 42.7479 81.816C42.9906 82.2547 43.3172 82.5953 43.7279 82.838C44.1479 83.0713 44.6192 83.188 45.1419 83.188ZM53.5085 76.58C54.4699 76.58 55.2072 76.8227 55.7205 77.308C56.2339 77.784 56.4905 78.4933 56.4905 79.436V84H55.5385V82.852C55.3145 83.2347 54.9832 83.5333 54.5445 83.748C54.1152 83.9627 53.6019 84.07 53.0045 84.07C52.1832 84.07 51.5299 83.874 51.0445 83.482C50.5592 83.09 50.3165 82.572 50.3165 81.928C50.3165 81.3027 50.5405 80.7987 50.9885 80.416C51.4459 80.0333 52.1692 79.842 53.1585 79.842H55.4965V79.394C55.4965 78.7593 55.3192 78.2787 54.9645 77.952C54.6099 77.616 54.0919 77.448 53.4105 77.448C52.9439 77.448 52.4959 77.5273 52.0665 77.686C51.6372 77.8353 51.2685 78.0453 50.9605 78.316L50.5125 77.574C50.8859 77.2567 51.3339 77.014 51.8565 76.846C52.3792 76.6687 52.9299 76.58 53.5085 76.58ZM53.1585 83.286C53.7185 83.286 54.1992 83.16 54.6005 82.908C55.0019 82.6467 55.3005 82.2733 55.4965 81.788V80.584H53.1865C51.9265 80.584 51.2965 81.0227 51.2965 81.9C51.2965 82.3293 51.4599 82.67 51.7865 82.922C52.1132 83.1647 52.5705 83.286 53.1585 83.286ZM63.8267 80.192C64.8253 80.4253 65.3247 81.0273 65.3247 81.998C65.3247 82.642 65.0867 83.1367 64.6107 83.482C64.1347 83.8273 63.4253 84 62.4827 84H59.1367V76.636H62.3847C63.2247 76.636 63.8827 76.7993 64.3587 77.126C64.8347 77.4527 65.0727 77.9193 65.0727 78.526C65.0727 78.9273 64.9607 79.2727 64.7367 79.562C64.522 79.842 64.2187 80.052 63.8267 80.192ZM60.1027 79.912H62.3147C62.884 79.912 63.318 79.8047 63.6167 79.59C63.9247 79.3753 64.0787 79.0627 64.0787 78.652C64.0787 78.2413 63.9247 77.9333 63.6167 77.728C63.318 77.5227 62.884 77.42 62.3147 77.42H60.1027V79.912ZM62.4407 83.216C63.0753 83.216 63.5513 83.1133 63.8687 82.908C64.186 82.7027 64.3447 82.3807 64.3447 81.942C64.3447 81.5033 64.2 81.1813 63.9107 80.976C63.6213 80.7613 63.164 80.654 62.5387 80.654H60.1027V83.216H62.4407ZM70.1882 76.58C71.1496 76.58 71.8869 76.8227 72.4002 77.308C72.9136 77.784 73.1702 78.4933 73.1702 79.436V84H72.2182V82.852C71.9942 83.2347 71.6629 83.5333 71.2242 83.748C70.7949 83.9627 70.2816 84.07 69.6842 84.07C68.8629 84.07 68.2096 83.874 67.7242 83.482C67.2389 83.09 66.9962 82.572 66.9962 81.928C66.9962 81.3027 67.2202 80.7987 67.6682 80.416C68.1256 80.0333 68.8489 79.842 69.8382 79.842H72.1762V79.394C72.1762 78.7593 71.9989 78.2787 71.6442 77.952C71.2896 77.616 70.7716 77.448 70.0902 77.448C69.6236 77.448 69.1756 77.5273 68.7462 77.686C68.3169 77.8353 67.9482 78.0453 67.6402 78.316L67.1922 77.574C67.5656 77.2567 68.0136 77.014 68.5362 76.846C69.0589 76.6687 69.6096 76.58 70.1882 76.58ZM69.8382 83.286C70.3982 83.286 70.8789 83.16 71.2802 82.908C71.6816 82.6467 71.9802 82.2733 72.1762 81.788V80.584H69.8662C68.6062 80.584 67.9762 81.0227 67.9762 81.9C67.9762 82.3293 68.1396 82.67 68.4662 82.922C68.7929 83.1647 69.2502 83.286 69.8382 83.286ZM83.0644 80.164C83.5871 80.2853 83.9884 80.4953 84.2684 80.794C84.5577 81.0927 84.7024 81.4567 84.7024 81.886C84.7024 82.3153 84.5531 82.698 84.2544 83.034C83.9651 83.37 83.5684 83.6313 83.0644 83.818C82.5604 83.9953 82.0051 84.084 81.3984 84.084C80.8664 84.084 80.3437 84.0093 79.8304 83.86C79.3171 83.7013 78.8691 83.4727 78.4864 83.174L78.8224 82.432C79.1584 82.684 79.5504 82.88 79.9984 83.02C80.4464 83.16 80.8991 83.23 81.3564 83.23C82.0377 83.23 82.5931 83.104 83.0224 82.852C83.4611 82.5907 83.6804 82.2407 83.6804 81.802C83.6804 81.41 83.5031 81.1067 83.1484 80.892C82.7937 80.668 82.3084 80.556 81.6924 80.556H80.4324V79.828H81.6364C82.1871 79.828 82.6304 79.7253 82.9664 79.52C83.3024 79.3053 83.4704 79.0207 83.4704 78.666C83.4704 78.274 83.2791 77.966 82.8964 77.742C82.5231 77.518 82.0331 77.406 81.4264 77.406C80.6331 77.406 79.8491 77.6067 79.0744 78.008L78.7944 77.238C79.6717 76.7807 80.5817 76.552 81.5244 76.552C82.0844 76.552 82.5884 76.636 83.0364 76.804C83.4937 76.9627 83.8484 77.1913 84.1004 77.49C84.3617 77.7887 84.4924 78.134 84.4924 78.526C84.4924 78.8993 84.3617 79.2307 84.1004 79.52C83.8484 79.8093 83.5031 80.024 83.0644 80.164ZM89.4929 76.58C90.4543 76.58 91.1916 76.8227 91.7049 77.308C92.2183 77.784 92.4749 78.4933 92.4749 79.436V84H91.5229V82.852C91.2989 83.2347 90.9676 83.5333 90.5289 83.748C90.0996 83.9627 89.5863 84.07 88.9889 84.07C88.1676 84.07 87.5143 83.874 87.0289 83.482C86.5436 83.09 86.3009 82.572 86.3009 81.928C86.3009 81.3027 86.5249 80.7987 86.9729 80.416C87.4303 80.0333 88.1536 79.842 89.1429 79.842H91.4809V79.394C91.4809 78.7593 91.3036 78.2787 90.9489 77.952C90.5943 77.616 90.0763 77.448 89.3949 77.448C88.9283 77.448 88.4803 77.5273 88.0509 77.686C87.6216 77.8353 87.2529 78.0453 86.9449 78.316L86.4969 77.574C86.8703 77.2567 87.3183 77.014 87.8409 76.846C88.3636 76.6687 88.9143 76.58 89.4929 76.58ZM89.1429 83.286C89.7029 83.286 90.1836 83.16 90.5849 82.908C90.9863 82.6467 91.2849 82.2733 91.4809 81.788V80.584H89.1709C87.9109 80.584 87.2809 81.0227 87.2809 81.9C87.2809 82.3293 87.4443 82.67 87.7709 82.922C88.0976 83.1647 88.5549 83.286 89.1429 83.286ZM105.285 76.636V84H95.121V76.636H96.115V83.132H99.727V76.636H100.721V83.132H104.291V76.636H105.285ZM106.419 83.132V85.61H105.481V84H104.235V83.132H106.419ZM108.123 76.636H109.117V82.488L114.031 76.636H114.913V84H113.919V78.148L109.019 84H108.123V76.636ZM127.926 76.636V84H117.762V76.636H118.756V83.132H122.368V76.636H123.362V83.132H126.932V76.636H127.926ZM129.06 83.132V85.61H128.122V84H126.876V83.132H129.06ZM137.204 80.626H131.044C131.1 81.3913 131.394 82.012 131.926 82.488C132.458 82.9547 133.13 83.188 133.942 83.188C134.399 83.188 134.819 83.1087 135.202 82.95C135.584 82.782 135.916 82.5393 136.196 82.222L136.756 82.866C136.429 83.258 136.018 83.5567 135.524 83.762C135.038 83.9673 134.502 84.07 133.914 84.07C133.158 84.07 132.486 83.9113 131.898 83.594C131.319 83.2673 130.866 82.8193 130.54 82.25C130.213 81.6807 130.05 81.0367 130.05 80.318C130.05 79.5993 130.204 78.9553 130.512 78.386C130.829 77.8167 131.258 77.3733 131.8 77.056C132.35 76.7387 132.966 76.58 133.648 76.58C134.329 76.58 134.94 76.7387 135.482 77.056C136.023 77.3733 136.448 77.8167 136.756 78.386C137.064 78.946 137.218 79.59 137.218 80.318L137.204 80.626ZM133.648 77.434C132.938 77.434 132.341 77.6627 131.856 78.12C131.38 78.568 131.109 79.156 131.044 79.884H136.266C136.2 79.156 135.925 78.568 135.44 78.12C134.964 77.6627 134.366 77.434 133.648 77.434ZM139.418 76.636H140.412V79.898H145.046V76.636H146.04V84H145.046V80.752H140.412V84H139.418V76.636ZM151.959 79.24C152.883 79.2493 153.588 79.4547 154.073 79.856C154.559 80.2573 154.801 80.836 154.801 81.592C154.801 82.376 154.54 82.978 154.017 83.398C153.495 83.818 152.748 84.0233 151.777 84.014L148.865 84V76.636H149.859V79.212L151.959 79.24ZM156.033 76.636H157.027V84H156.033V76.636ZM151.721 83.258C152.403 83.2673 152.916 83.132 153.261 82.852C153.616 82.5627 153.793 82.1427 153.793 81.592C153.793 81.0507 153.621 80.6493 153.275 80.388C152.93 80.1267 152.412 79.9913 151.721 79.982L149.859 79.954V83.23L151.721 83.258Z" fill="#DCDCDC"/>
<defs>
<clipPath id="clip0_2_529">
<rect width="131.218" height="70" fill="white"/>
</clipPath>
</defs>
</svg>
