<svg width="30" height="30" viewBox="0 0 30 30" fill="none" xmlns="http://www.w3.org/2000/svg">
<path d="M18.1077 15.3262C18.1077 13.7049 16.7826 12.3856 15.1538 12.3856C13.5253 12.3856 12.2002 13.7049 12.2002 15.3262C12.2002 16.9479 13.5253 18.267 15.1538 18.267C16.7826 18.267 18.1077 16.9479 18.1077 15.3262ZM22.4961 0.0186157H7.50474C3.37443 0.0186157 0.0141602 3.36428 0.0141602 7.47653V9.55451H11.0365C12.1996 8.72963 13.6201 8.24234 15.1538 8.24234C16.6876 8.24234 18.1082 8.72963 19.2714 9.55451H29.9867V7.47653C29.9867 3.36425 26.6264 0.0186157 22.4961 0.0186157ZM25.5297 7.11167C25.5297 7.5674 25.1553 7.94033 24.6974 7.94033H22.1258C21.668 7.94033 21.2935 7.5674 21.2935 7.11167V4.55111C21.2935 4.09541 21.668 3.72245 22.1258 3.72245H24.6974C25.1553 3.72245 25.5297 4.09535 25.5297 4.55111V7.11167ZM22.2691 15.3262C22.2691 19.2326 19.077 22.4102 15.1538 22.4102C11.2305 22.4102 8.03871 19.2326 8.03871 15.3262C8.03871 14.2507 8.28201 13.2308 8.71467 12.3166H0.0141602V22.5245C0.0141602 26.6371 3.37443 29.9824 7.50474 29.9824H22.4962C26.6264 29.9824 29.9867 26.637 29.9867 22.5245V12.3166H21.5931C22.0258 13.2308 22.2691 14.2507 22.2691 15.3262Z" fill="#F7C125"/>
</svg>
