<svg width="11" height="13" viewBox="0 0 11 13" fill="none" xmlns="http://www.w3.org/2000/svg">
<path d="M5.24278 0.078125C3.92265 0.0796824 2.65704 0.604791 1.72357 1.53826C0.790099 2.47173 0.26499 3.73735 0.263433 5.05747C0.261852 6.13628 0.614242 7.18582 1.26655 8.04508C1.26655 8.04508 1.40235 8.22388 1.42453 8.24969L5.24278 12.7528L9.06285 8.24742C9.08276 8.22343 9.21902 8.04508 9.21902 8.04508L9.21947 8.04372C9.87145 7.18484 10.2237 6.13579 10.2221 5.05747C10.2206 3.73735 9.69546 2.47173 8.76199 1.53826C7.82852 0.604791 6.56291 0.0796824 5.24278 0.078125ZM5.24278 6.86814C4.88466 6.86814 4.53459 6.76195 4.23683 6.56299C3.93906 6.36403 3.70698 6.08124 3.56994 5.75039C3.43289 5.41953 3.39704 5.05546 3.4669 4.70423C3.53677 4.35299 3.70922 4.03036 3.96244 3.77713C4.21567 3.52391 4.5383 3.35146 4.88954 3.28159C5.24077 3.21173 5.60484 3.24758 5.93569 3.38463C6.26655 3.52168 6.54934 3.75375 6.7483 4.05152C6.94726 4.34928 7.05345 4.69936 7.05345 5.05747C7.05285 5.53751 6.86189 5.99771 6.52246 6.33715C6.18302 6.67659 5.72282 6.86755 5.24278 6.86814Z" fill="#F7C125"/>
</svg>
