<svg width="19" height="15" viewBox="0 0 19 15" fill="none" xmlns="http://www.w3.org/2000/svg">
<path d="M17.6104 0.625H1.36035C1.01465 0.625 0.735352 0.904297 0.735352 1.25V13.75C0.735352 14.0957 1.01465 14.375 1.36035 14.375H17.6104C17.9561 14.375 18.2354 14.0957 18.2354 13.75V1.25C18.2354 0.904297 17.9561 0.625 17.6104 0.625ZM16.0322 2.75195L9.87012 7.54688C9.71777 7.66602 9.50488 7.66602 9.35254 7.54688L3.18848 2.75195C3.16524 2.73402 3.1482 2.70927 3.13974 2.68116C3.13128 2.65306 3.13182 2.62301 3.1413 2.59523C3.15077 2.56745 3.1687 2.54333 3.19257 2.52625C3.21645 2.50918 3.24506 2.5 3.27441 2.5H15.9463C15.9756 2.5 16.0043 2.50918 16.0281 2.52625C16.052 2.54333 16.0699 2.56745 16.0794 2.59523C16.0889 2.62301 16.0894 2.65306 16.081 2.68116C16.0725 2.70927 16.0555 2.73402 16.0322 2.75195Z" fill="#F7C125"/>
</svg>
