<svg width="25" height="26" viewBox="0 0 25 26" fill="none" xmlns="http://www.w3.org/2000/svg">
<path d="M16.3048 18.1394L18.4048 16.0394C18.6859 15.7582 19.0433 15.5657 19.4328 15.4857C19.8222 15.4057 20.2266 15.4418 20.5958 15.5894L23.1533 16.6131C23.5302 16.764 23.8533 17.0243 24.0809 17.3605C24.3085 17.6967 24.4301 18.0934 24.4301 18.4994V23.1503C24.4308 23.4268 24.375 23.7004 24.2663 23.9545C24.1575 24.2087 23.998 24.4379 23.7975 24.6283C23.5971 24.8187 23.3599 24.9661 23.1005 25.0616C22.8411 25.1571 22.5649 25.1987 22.2889 25.1838C4.36201 24.0681 0.741382 8.88438 0.0691948 3.07001C0.0366388 2.78575 0.0646318 2.49783 0.151333 2.22517C0.238034 1.95251 0.381478 1.70129 0.57223 1.48805C0.762983 1.2748 0.996721 1.10436 1.25807 0.987924C1.51942 0.871491 1.80246 0.811708 2.08857 0.812508H6.65701C7.06301 0.812495 7.4597 0.934131 7.79592 1.16173C8.13213 1.38932 8.39244 1.71243 8.54326 2.08938L9.56607 4.64688C9.71368 5.01605 9.74972 5.42041 9.66973 5.80985C9.58974 6.1993 9.39723 6.55672 9.11607 6.83782L7.01607 8.93782C7.01607 8.93782 8.18044 17.1241 16.3048 18.1394Z" fill="#F7C125"/>
</svg>
