<svg width="60" height="60" viewBox="0 0 60 60" fill="none" xmlns="http://www.w3.org/2000/svg">
<path d="M54.375 29.7384V19.0116L50.4553 17.7047C50.1797 16.9041 49.8431 16.0978 49.4484 15.3009L51.3028 11.5941L43.7184 4.00969L40.0116 5.86406C39.2138 5.46938 38.4084 5.13281 37.6078 4.85719L36.3009 0.9375H25.5741L24.2672 4.85719C23.4666 5.13281 22.6603 5.46938 21.8634 5.86406L18.1566 4.00969L10.5722 11.5941L12.4266 15.3009C12.0319 16.0988 11.6953 16.9041 11.4197 17.7047L7.5 19.0116V29.7375L11.4197 31.0444C11.6934 31.8394 12.0262 32.6372 12.4153 33.4284L10.695 36.5625H11.25V38.4375H21.5625L22.4859 37.5141L21.8944 37.5C17.7291 34.6247 15 29.8191 15 24.375C15 15.5728 22.1353 8.4375 30.9375 8.4375C39.7397 8.4375 46.875 15.5728 46.875 24.375C46.875 30.0788 43.8787 35.0822 39.375 37.8984L38.8275 37.8862C38.4881 38.2266 38.0184 38.4375 37.5 38.4375H41.2509C42.2869 38.4375 43.1259 39.2766 43.1259 40.3125C43.1259 41.3484 42.2869 42.1875 41.2509 42.1875C42.2869 42.1875 43.1259 43.0266 43.1259 44.0625C43.1259 44.2988 43.0772 44.5219 42.9975 44.73L43.7897 44.7225L51.3009 37.1522L49.4484 33.4491C49.8422 32.6513 50.1787 31.8459 50.4544 31.0453L54.375 29.7384Z" fill="#F7C125"/>
<path d="M56.25 53.4375C54.6994 53.4375 53.4375 54.6994 53.4375 56.25C53.4375 57.8006 54.6994 59.0625 56.25 59.0625C57.8006 59.0625 59.0625 57.8006 59.0625 56.25C59.0625 54.6994 57.8006 53.4375 56.25 53.4375ZM56.25 57.1875C55.7334 57.1875 55.3125 56.7675 55.3125 56.25C55.3125 55.7325 55.7334 55.3125 56.25 55.3125C56.7666 55.3125 57.1875 55.7325 57.1875 56.25C57.1875 56.7675 56.7666 57.1875 56.25 57.1875Z" fill="white"/>
<path d="M6.5625 2.8125C6.5625 1.26187 5.30062 0 3.75 0C2.19937 0 0.9375 1.26187 0.9375 2.8125C0.9375 4.36312 2.19937 5.625 3.75 5.625C5.30062 5.625 6.5625 4.36312 6.5625 2.8125ZM2.8125 2.8125C2.8125 2.29594 3.23344 1.875 3.75 1.875C4.26656 1.875 4.6875 2.29594 4.6875 2.8125C4.6875 3.32906 4.26656 3.75 3.75 3.75C3.23344 3.75 2.8125 3.32906 2.8125 2.8125Z" fill="white"/>
<path d="M47.8125 24.375C47.8125 15.0703 40.2422 7.5 30.9375 7.5C21.6328 7.5 14.0625 15.0703 14.0625 24.375C14.0625 29.4928 16.3894 34.3069 20.3391 37.5H12.1875V35.625H5.625V54.375H12.1875V51.5625H19.2994L22.1119 54.375H27.1875V55.3125C27.1875 57.3806 28.8694 59.0625 30.9375 59.0625C33.0056 59.0625 34.6875 57.3806 34.6875 55.3125V54.375H41.2509C42.8016 54.375 44.0634 53.1131 44.0634 51.5625C44.0634 50.8397 43.7812 50.1862 43.3322 49.6875C43.7822 49.1888 44.0634 48.5353 44.0634 47.8125C44.0634 47.0897 43.7812 46.4362 43.3322 45.9375C43.7822 45.4388 44.0634 44.7853 44.0634 44.0625C44.0634 43.3397 43.7812 42.6862 43.3322 42.1875C43.7822 41.6888 44.0634 41.0353 44.0634 40.3125C44.0634 38.85 42.9375 37.6594 41.5097 37.5262C45.4866 34.3387 47.8125 29.5556 47.8125 24.375ZM10.3125 52.5H7.5V37.5H10.3125V52.5ZM22.8881 52.5L20.0756 49.6875H12.1875V39.375H21.9506L25.7006 35.625H37.5C38.0166 35.625 38.4375 36.045 38.4375 36.5625C38.4375 37.08 38.0166 37.5 37.5 37.5H33.75H27.7369L23.7122 41.5247L25.0378 42.8503L27.1875 40.7006V52.5H22.8881ZM37.1119 33.75H34.6875V29.4506L38.4375 25.7006V20.625C38.4375 18.5569 36.7556 16.875 34.6875 16.875H32.8125V22.1119L32.4244 22.5H29.4506L29.0625 22.1119V16.875H27.1875C25.1194 16.875 23.4375 18.5569 23.4375 20.625V25.7006L27.1875 29.4506V33.75H24.9244L24.8653 33.8091C21.6647 31.7437 19.6875 28.2028 19.6875 24.375C19.6875 18.1716 24.7341 13.125 30.9375 13.125C37.1409 13.125 42.1875 18.1716 42.1875 24.375C42.1875 28.1747 40.2891 31.6547 37.1119 33.75ZM28.6744 24.375H33.2006L34.6875 22.8881V18.75C35.7216 18.75 36.5625 19.5909 36.5625 20.625V24.9244L33.3619 28.125H28.5131L25.3125 24.9244V20.625C25.3125 19.5909 26.1534 18.75 27.1875 18.75V22.8881L28.6744 24.375ZM29.0625 30H32.8125V33.75H29.0625V30ZM42.1884 44.0625C42.1884 44.58 41.7675 45 41.2509 45H33.75C33.2334 45 32.8125 44.58 32.8125 44.0625C32.8125 43.545 33.2334 43.125 33.75 43.125H41.2509C41.7675 43.125 42.1884 43.545 42.1884 44.0625ZM42.1884 47.8125C42.1884 48.33 41.7675 48.75 41.2509 48.75H33.75C33.2334 48.75 32.8125 48.33 32.8125 47.8125C32.8125 47.295 33.2334 46.875 33.75 46.875H41.2509C41.7675 46.875 42.1884 47.295 42.1884 47.8125ZM30.9375 57.1875C29.9034 57.1875 29.0625 56.3466 29.0625 55.3125V39.375H31.11C31.005 39.6694 30.9375 39.9825 30.9375 40.3125C30.9375 41.0353 31.2197 41.6888 31.6687 42.1875C31.2187 42.6862 30.9375 43.3397 30.9375 44.0625C30.9375 44.7853 31.2197 45.4388 31.6687 45.9375C31.2187 46.4362 30.9375 47.0897 30.9375 47.8125C30.9375 48.5353 31.2197 49.1888 31.6687 49.6875C31.2187 50.1862 30.9375 50.8397 30.9375 51.5625C30.9375 52.7831 31.7241 53.8144 32.8125 54.2025V55.3125C32.8125 56.3466 31.9716 57.1875 30.9375 57.1875ZM41.2509 52.5H33.75C33.2334 52.5 32.8125 52.08 32.8125 51.5625C32.8125 51.045 33.2334 50.625 33.75 50.625H41.2509C41.7675 50.625 42.1884 51.045 42.1884 51.5625C42.1884 52.08 41.7675 52.5 41.2509 52.5ZM42.1884 40.3125C42.1884 40.83 41.7675 41.25 41.2509 41.25H33.75C33.2334 41.25 32.8125 40.83 32.8125 40.3125C32.8125 39.795 33.2334 39.375 33.75 39.375H37.5H41.2509C41.7675 39.375 42.1884 39.795 42.1884 40.3125ZM40.2675 36.1172C40.1606 35.4525 39.8213 34.8712 39.3338 34.4484C42.3216 31.9678 44.0625 28.3153 44.0625 24.375C44.0625 17.1375 38.175 11.25 30.9375 11.25C23.7 11.25 17.8125 17.1375 17.8125 24.375C17.8125 28.7053 19.9669 32.7375 23.5003 35.1741L22.1503 36.5241C18.2569 33.7041 15.9375 29.1909 15.9375 24.375C15.9375 16.1044 22.6669 9.375 30.9375 9.375C39.2081 9.375 45.9375 16.1044 45.9375 24.375C45.9375 29.0081 43.8431 33.2831 40.2675 36.1172Z" fill="white"/>
<path d="M4.6875 8.4375H2.8125V10.3125H4.6875V8.4375Z" fill="white"/>
<path d="M4.6875 13.125H2.8125V15H4.6875V13.125Z" fill="white"/>
<path d="M4.6875 17.8125H2.8125V19.6875H4.6875V17.8125Z" fill="white"/>
<path d="M57.1875 39.375H55.3125V41.25H57.1875V39.375Z" fill="white"/>
<path d="M57.1875 44.0625H55.3125V45.9375H57.1875V44.0625Z" fill="white"/>
<path d="M57.1875 48.75H55.3125V50.625H57.1875V48.75Z" fill="white"/>
</svg>
