<svg width="297" height="113" viewBox="0 0 297 113" fill="none" xmlns="http://www.w3.org/2000/svg">
<path d="M138.188 35.625H126.938V27.1875H138.188V35.625Z" fill="white"/>
<path d="M164.438 26.25V16.875H147.562V31.875H158.812L164.438 26.25Z" fill="white"/>
<path d="M128.812 41.25H138.188V49.6875H128.812V41.25Z" fill="white"/>
<path d="M177.562 22.5C177.562 20.4319 175.881 18.75 173.812 18.75H173.424L171.938 20.2369V12.7369L160.138 0.9375H125.062V16.3678L119.438 21.1275V23.4375H121.312V36.5625H125.062V59.0625H171.938V36.9506L174.75 34.1381C175.355 33.5325 175.688 32.7291 175.688 31.875C175.688 31.0209 175.355 30.2166 174.75 29.6119L174.201 29.0625L174.75 28.5131V28.125C174.75 27.3975 174.626 26.6991 174.406 26.0447L177.562 22.8881V22.5ZM172.86 27.7519L168.188 32.4244L163.888 28.125L168.561 23.4525C170.848 23.6334 172.679 25.4634 172.86 27.7519V27.7519ZM145.258 47.7713L148.541 51.0544L144.164 52.1494L145.258 47.7713ZM150.375 50.2369L146.076 45.9375L159.75 32.2631L164.049 36.5625L150.375 50.2369ZM165.375 35.2369L161.076 30.9375L162.562 29.4506L166.862 33.75L165.375 35.2369ZM158.812 10.3125H155.062V6.5625H158.812V10.3125ZM143.812 10.3125V6.5625H147.562V10.3125H143.812ZM149.438 6.5625H153.188V10.3125H149.438V6.5625ZM160.688 4.13813L168.737 12.1875H160.688V4.13813ZM132.562 12.4781L143.299 21.5625H121.826L132.562 12.4781ZM123.188 23.4375H141.938V34.6875H123.188V23.4375ZM170.062 57.1875H126.938V36.5625H143.812V23.4375H145.688V21.1275L132.562 10.0219L126.938 14.7816V2.8125H158.812V4.6875H141.938V12.1875H158.812V14.0625H170.062V21.8391C169.468 21.6609 168.839 21.5625 168.188 21.5625H167.799L164.438 24.9244V23.4375H147.562V25.3125H164.049L162.174 27.1875H147.562V29.0625H160.299L158.424 30.9375H147.562V32.8125H156.549L143.903 45.4575L141.586 54.7256L150.854 52.4091L170.062 33.2006V36.1744L167.169 39.0675C166.625 39.6122 166.312 40.3659 166.312 41.1366C166.312 42.75 167.625 44.0625 169.238 44.0625H170.062V57.1875ZM170.062 42.1875H169.238C168.659 42.1875 168.188 41.7159 168.188 41.1366C168.188 40.86 168.3 40.5891 168.495 40.3931L170.062 38.8256V42.1875ZM173.423 30.9375C173.675 31.1888 173.812 31.5206 173.812 31.875C173.812 32.2294 173.675 32.5612 173.424 32.8125L171.938 34.2994V31.3256L172.875 30.3881L173.423 30.9375ZM173.505 24.2944C173.092 23.7225 172.59 23.2209 172.018 22.8075L174.167 20.6587C174.917 20.8022 175.509 21.3947 175.654 22.1456L173.505 24.2944Z" fill="#2A3040"/>
<path d="M139.408 52.875C139.016 52.3519 138.425 51.5625 137.253 51.5625C136.081 51.5625 135.489 52.3528 135.098 52.875C134.743 53.3475 134.639 53.4375 134.443 53.4375C134.245 53.4375 134.14 53.3475 133.783 52.8741C133.39 52.3519 132.797 51.5625 131.625 51.5625C130.452 51.5625 129.861 52.3528 129.469 52.875C129.114 53.3475 129.009 53.4375 128.812 53.4375V55.3125C129.985 55.3125 130.577 54.5222 130.969 54C131.323 53.5275 131.428 53.4375 131.625 53.4375C131.823 53.4375 131.928 53.5275 132.285 54.0009C132.678 54.5231 133.27 55.3125 134.442 55.3125C135.614 55.3125 136.206 54.5222 136.598 54C136.952 53.5275 137.056 53.4375 137.253 53.4375C137.449 53.4375 137.553 53.5275 137.907 54C138.299 54.5222 138.891 55.3125 140.062 55.3125V53.4375C139.867 53.4375 139.763 53.3475 139.408 52.875V52.875Z" fill="#2A3040"/>
<path d="M136.312 47.8125H138.188V49.6875H136.312V47.8125Z" fill="#2A3040"/>
<path d="M132.562 47.8125H134.438V49.6875H132.562V47.8125Z" fill="#2A3040"/>
<path d="M128.812 47.8125H130.688V49.6875H128.812V47.8125Z" fill="#2A3040"/>
<path d="M128.812 44.0625H138.188V45.9375H128.812V44.0625Z" fill="#2A3040"/>
<path d="M128.812 40.3125H138.188V42.1875H128.812V40.3125Z" fill="#2A3040"/>
<path d="M147.562 15.9375H164.438V17.8125H147.562V15.9375Z" fill="#2A3040"/>
<path d="M147.562 19.6875H164.438V21.5625H147.562V19.6875Z" fill="#2A3040"/>
<path d="M166.312 53.4375H168.188V55.3125H166.312V53.4375Z" fill="#2A3040"/>
<path d="M158.812 53.4375H160.688V55.3125H158.812V53.4375Z" fill="#2A3040"/>
<path d="M162.562 53.4375H164.438V55.3125H162.562V53.4375Z" fill="#2A3040"/>
<path d="M70.1504 90.128C69.0304 90.128 68.0171 89.8827 67.1104 89.392C66.2144 88.8907 65.5104 88.208 64.9984 87.344C64.4864 86.4693 64.2304 85.488 64.2304 84.4C64.2304 83.312 64.4864 82.336 64.9984 81.472C65.5104 80.5973 66.2198 79.9147 67.1264 79.424C68.0331 78.9227 69.0464 78.672 70.1664 78.672C71.0411 78.672 71.8411 78.8213 72.5664 79.12C73.2918 79.408 73.9104 79.84 74.4224 80.416L73.3824 81.424C72.5398 80.5387 71.4891 80.096 70.2304 80.096C69.3984 80.096 68.6464 80.2827 67.9744 80.656C67.3024 81.0293 66.7744 81.5467 66.3904 82.208C66.0171 82.8587 65.8304 83.5893 65.8304 84.4C65.8304 85.2107 66.0171 85.9467 66.3904 86.608C66.7744 87.2587 67.3024 87.7707 67.9744 88.144C68.6464 88.5173 69.3984 88.704 70.2304 88.704C71.4784 88.704 72.5291 88.256 73.3824 87.36L74.4224 88.368C73.9104 88.944 73.2864 89.3813 72.5504 89.68C71.8251 89.9787 71.0251 90.128 70.1504 90.128ZM79.6434 90.096C78.8008 90.096 78.0434 89.9093 77.3714 89.536C76.6994 89.1627 76.1714 88.6507 75.7874 88C75.4141 87.3387 75.2274 86.592 75.2274 85.76C75.2274 84.928 75.4141 84.1867 75.7874 83.536C76.1714 82.8747 76.6994 82.3627 77.3714 82C78.0434 81.6267 78.8008 81.44 79.6434 81.44C80.4861 81.44 81.2381 81.6267 81.8994 82C82.5714 82.3627 83.0941 82.8747 83.4674 83.536C83.8514 84.1867 84.0434 84.928 84.0434 85.76C84.0434 86.592 83.8514 87.3387 83.4674 88C83.0941 88.6507 82.5714 89.1627 81.8994 89.536C81.2381 89.9093 80.4861 90.096 79.6434 90.096ZM79.6434 88.752C80.1874 88.752 80.6728 88.6293 81.0994 88.384C81.5368 88.128 81.8781 87.776 82.1234 87.328C82.3688 86.8693 82.4914 86.3467 82.4914 85.76C82.4914 85.1733 82.3688 84.656 82.1234 84.208C81.8781 83.7493 81.5368 83.3973 81.0994 83.152C80.6728 82.9067 80.1874 82.784 79.6434 82.784C79.0994 82.784 78.6088 82.9067 78.1714 83.152C77.7448 83.3973 77.4034 83.7493 77.1474 84.208C76.9021 84.656 76.7794 85.1733 76.7794 85.76C76.7794 86.3467 76.9021 86.8693 77.1474 87.328C77.4034 87.776 77.7448 88.128 78.1714 88.384C78.6088 88.6293 79.0994 88.752 79.6434 88.752ZM89.9574 90.096C89.0934 90.096 88.3201 89.9093 87.6374 89.536C86.9654 89.1627 86.4374 88.6507 86.0534 88C85.6694 87.3387 85.4774 86.592 85.4774 85.76C85.4774 84.928 85.6694 84.1867 86.0534 83.536C86.4374 82.8747 86.9654 82.3627 87.6374 82C88.3201 81.6267 89.0934 81.44 89.9574 81.44C90.7254 81.44 91.4081 81.5947 92.0054 81.904C92.6134 82.2133 93.0828 82.6613 93.4134 83.248L92.2454 84C91.9788 83.5947 91.6481 83.2907 91.2534 83.088C90.8588 82.8853 90.4214 82.784 89.9414 82.784C89.3868 82.784 88.8854 82.9067 88.4374 83.152C88.0001 83.3973 87.6534 83.7493 87.3974 84.208C87.1521 84.656 87.0294 85.1733 87.0294 85.76C87.0294 86.3573 87.1521 86.8853 87.3974 87.344C87.6534 87.792 88.0001 88.1387 88.4374 88.384C88.8854 88.6293 89.3868 88.752 89.9414 88.752C90.4214 88.752 90.8588 88.6507 91.2534 88.448C91.6481 88.2453 91.9788 87.9413 92.2454 87.536L93.4134 88.272C93.0828 88.8587 92.6134 89.312 92.0054 89.632C91.4081 89.9413 90.7254 90.096 89.9574 90.096ZM101.613 82.864H98.5087V90H96.9727V82.864H93.8687V81.52H101.613V82.864ZM106.207 81.44C107.381 81.44 108.277 81.728 108.895 82.304C109.525 82.88 109.839 83.7387 109.839 84.88V90H108.383V88.88C108.127 89.2747 107.759 89.5787 107.279 89.792C106.81 89.9947 106.25 90.096 105.599 90.096C104.65 90.096 103.887 89.8667 103.311 89.408C102.746 88.9493 102.463 88.3467 102.463 87.6C102.463 86.8533 102.735 86.256 103.279 85.808C103.823 85.3493 104.687 85.12 105.871 85.12H108.303V84.816C108.303 84.1547 108.111 83.648 107.727 83.296C107.343 82.944 106.778 82.768 106.031 82.768C105.53 82.768 105.039 82.8533 104.559 83.024C104.079 83.184 103.674 83.4027 103.343 83.68L102.703 82.528C103.141 82.176 103.663 81.9093 104.271 81.728C104.879 81.536 105.525 81.44 106.207 81.44ZM105.855 88.912C106.442 88.912 106.949 88.784 107.375 88.528C107.802 88.2613 108.111 87.888 108.303 87.408V86.224H105.935C104.634 86.224 103.983 86.6613 103.983 87.536C103.983 87.9627 104.149 88.2987 104.479 88.544C104.81 88.7893 105.269 88.912 105.855 88.912ZM118.381 85.6C119.48 85.8773 120.029 86.5653 120.029 87.664C120.029 88.4107 119.747 88.9867 119.181 89.392C118.627 89.7973 117.795 90 116.685 90H112.605V81.52H116.541C117.544 81.52 118.328 81.712 118.893 82.096C119.459 82.4693 119.741 83.0027 119.741 83.696C119.741 84.144 119.619 84.5333 119.373 84.864C119.139 85.184 118.808 85.4293 118.381 85.6ZM114.109 85.168H116.413C117 85.168 117.443 85.0613 117.741 84.848C118.051 84.6347 118.205 84.3253 118.205 83.92C118.205 83.1093 117.608 82.704 116.413 82.704H114.109V85.168ZM116.573 88.816C117.213 88.816 117.693 88.7147 118.013 88.512C118.333 88.3093 118.493 87.9947 118.493 87.568C118.493 87.1307 118.344 86.8053 118.045 86.592C117.757 86.3787 117.299 86.272 116.669 86.272H114.109V88.816H116.573ZM129.713 81.52V90H128.177V82.864H124.529L124.433 84.752C124.38 85.8933 124.279 86.848 124.129 87.616C123.98 88.3733 123.735 88.9813 123.393 89.44C123.052 89.8987 122.577 90.128 121.969 90.128C121.692 90.128 121.377 90.08 121.025 89.984L121.121 88.688C121.26 88.72 121.388 88.736 121.505 88.736C121.932 88.736 122.252 88.5493 122.465 88.176C122.679 87.8027 122.817 87.36 122.881 86.848C122.945 86.336 123.004 85.6053 123.057 84.656L123.201 81.52H129.713ZM140.347 85.808C140.347 85.9253 140.337 86.08 140.315 86.272H133.435C133.531 87.0187 133.857 87.6213 134.411 88.08C134.977 88.528 135.675 88.752 136.507 88.752C137.521 88.752 138.337 88.4107 138.955 87.728L139.803 88.72C139.419 89.168 138.939 89.5093 138.363 89.744C137.798 89.9787 137.163 90.096 136.459 90.096C135.563 90.096 134.769 89.9147 134.075 89.552C133.382 89.1787 132.843 88.6613 132.459 88C132.086 87.3387 131.899 86.592 131.899 85.76C131.899 84.9387 132.081 84.1973 132.443 83.536C132.817 82.8747 133.323 82.3627 133.963 82C134.614 81.6267 135.345 81.44 136.155 81.44C136.966 81.44 137.686 81.6267 138.315 82C138.955 82.3627 139.451 82.8747 139.803 83.536C140.166 84.1973 140.347 84.9547 140.347 85.808ZM136.155 82.736C135.419 82.736 134.801 82.96 134.299 83.408C133.809 83.856 133.521 84.4427 133.435 85.168H138.875C138.79 84.4533 138.497 83.872 137.995 83.424C137.505 82.9653 136.891 82.736 136.155 82.736ZM142.73 81.52H144.266V85.12H149.098V81.52H150.634V90H149.098V86.448H144.266V90H142.73V81.52ZM153.621 81.52H155.157V87.696L160.357 81.52H161.749V90H160.213V83.824L155.029 90H153.621V81.52ZM172.394 85.808C172.394 85.9253 172.384 86.08 172.362 86.272H165.482C165.578 87.0187 165.904 87.6213 166.458 88.08C167.024 88.528 167.722 88.752 168.554 88.752C169.568 88.752 170.384 88.4107 171.002 87.728L171.85 88.72C171.466 89.168 170.986 89.5093 170.41 89.744C169.845 89.9787 169.21 90.096 168.506 90.096C167.61 90.096 166.816 89.9147 166.122 89.552C165.429 89.1787 164.89 88.6613 164.506 88C164.133 87.3387 163.946 86.592 163.946 85.76C163.946 84.9387 164.128 84.1973 164.49 83.536C164.864 82.8747 165.37 82.3627 166.01 82C166.661 81.6267 167.392 81.44 168.202 81.44C169.013 81.44 169.733 81.6267 170.362 82C171.002 82.3627 171.498 82.8747 171.85 83.536C172.213 84.1973 172.394 84.9547 172.394 85.808ZM168.202 82.736C167.466 82.736 166.848 82.96 166.346 83.408C165.856 83.856 165.568 84.4427 165.482 85.168H170.922C170.837 84.4533 170.544 83.872 170.042 83.424C169.552 82.9653 168.938 82.736 168.202 82.736ZM182.77 90.096C181.906 90.096 181.133 89.9093 180.45 89.536C179.778 89.1627 179.25 88.6507 178.866 88C178.482 87.3387 178.29 86.592 178.29 85.76C178.29 84.928 178.482 84.1867 178.866 83.536C179.25 82.8747 179.778 82.3627 180.45 82C181.133 81.6267 181.906 81.44 182.77 81.44C183.538 81.44 184.221 81.5947 184.818 81.904C185.426 82.2133 185.895 82.6613 186.226 83.248L185.058 84C184.791 83.5947 184.461 83.2907 184.066 83.088C183.671 82.8853 183.234 82.784 182.754 82.784C182.199 82.784 181.698 82.9067 181.25 83.152C180.813 83.3973 180.466 83.7493 180.21 84.208C179.965 84.656 179.842 85.1733 179.842 85.76C179.842 86.3573 179.965 86.8853 180.21 87.344C180.466 87.792 180.813 88.1387 181.25 88.384C181.698 88.6293 182.199 88.752 182.754 88.752C183.234 88.752 183.671 88.6507 184.066 88.448C184.461 88.2453 184.791 87.9413 185.058 87.536L186.226 88.272C185.895 88.8587 185.426 89.312 184.818 89.632C184.221 89.9413 183.538 90.096 182.77 90.096ZM197.991 81.52V90H196.599V83.808L193.431 89.04H192.759L189.623 83.792V90H188.215V81.52H189.799L193.127 87.248L196.551 81.52H197.991ZM208.644 85.808C208.644 85.9253 208.634 86.08 208.612 86.272H201.732C201.828 87.0187 202.154 87.6213 202.708 88.08C203.274 88.528 203.972 88.752 204.804 88.752C205.818 88.752 206.634 88.4107 207.252 87.728L208.1 88.72C207.716 89.168 207.236 89.5093 206.66 89.744C206.095 89.9787 205.46 90.096 204.756 90.096C203.86 90.096 203.066 89.9147 202.372 89.552C201.679 89.1787 201.14 88.6613 200.756 88C200.383 87.3387 200.196 86.592 200.196 85.76C200.196 84.9387 200.378 84.1973 200.74 83.536C201.114 82.8747 201.62 82.3627 202.26 82C202.911 81.6267 203.642 81.44 204.452 81.44C205.263 81.44 205.983 81.6267 206.612 82C207.252 82.3627 207.748 82.8747 208.1 83.536C208.463 84.1973 208.644 84.9547 208.644 85.808ZM204.452 82.736C203.716 82.736 203.098 82.96 202.596 83.408C202.106 83.856 201.818 84.4427 201.732 85.168H207.172C207.087 84.4533 206.794 83.872 206.292 83.424C205.802 82.9653 205.188 82.736 204.452 82.736ZM216.988 82.864H213.884V90H212.348V82.864H209.244V81.52H216.988V82.864ZM222.382 84.4C223.449 84.4107 224.265 84.656 224.83 85.136C225.396 85.616 225.678 86.2933 225.678 87.168C225.678 88.0853 225.369 88.7947 224.75 89.296C224.142 89.7867 223.268 90.0267 222.126 90.016L218.558 90V81.52H220.094V84.384L222.382 84.4ZM226.942 81.52H228.478V90H226.942V81.52ZM222.014 88.848C222.708 88.8587 223.23 88.72 223.582 88.432C223.945 88.144 224.126 87.7173 224.126 87.152C224.126 86.5973 223.95 86.192 223.598 85.936C223.246 85.68 222.718 85.5467 222.014 85.536L220.094 85.504V88.832L222.014 88.848ZM231.817 87.904C232.115 87.904 232.361 88.0107 232.553 88.224C232.755 88.4267 232.857 88.6827 232.857 88.992C232.857 89.152 232.835 89.3067 232.793 89.456C232.761 89.6053 232.691 89.8347 232.585 90.144L231.833 92.368H230.825L231.417 89.984C231.214 89.9093 231.049 89.7867 230.921 89.616C230.803 89.4347 230.745 89.2267 230.745 88.992C230.745 88.672 230.846 88.4107 231.049 88.208C231.251 88.0053 231.507 87.904 231.817 87.904ZM61.0331 104.584C61.5985 104.733 62.0358 104.973 62.3451 105.304C62.6545 105.635 62.8091 106.045 62.8091 106.536C62.8091 107.037 62.6385 107.485 62.2971 107.88C61.9558 108.264 61.4811 108.568 60.8731 108.792C60.2758 109.005 59.6038 109.112 58.8571 109.112C58.2278 109.112 57.6091 109.032 57.0011 108.872C56.4038 108.701 55.8705 108.461 55.4011 108.152L55.8651 106.984C56.2705 107.24 56.7345 107.443 57.2571 107.592C57.7798 107.731 58.3078 107.8 58.8411 107.8C59.5665 107.8 60.1425 107.677 60.5691 107.432C61.0065 107.176 61.2251 106.835 61.2251 106.408C61.2251 106.013 61.0491 105.709 60.6971 105.496C60.3558 105.283 59.8705 105.176 59.2411 105.176H57.6891V104.072H59.1291C59.7051 104.072 60.1585 103.971 60.4891 103.768C60.8198 103.565 60.9851 103.288 60.9851 102.936C60.9851 102.552 60.7878 102.253 60.3931 102.04C60.0091 101.827 59.4865 101.72 58.8251 101.72C57.9825 101.72 57.0918 101.939 56.1531 102.376L55.7371 101.192C56.7718 100.669 57.8545 100.408 58.9851 100.408C59.6678 100.408 60.2811 100.504 60.8251 100.696C61.3691 100.888 61.7958 101.16 62.1051 101.512C62.4145 101.864 62.5691 102.264 62.5691 102.712C62.5691 103.128 62.4305 103.501 62.1531 103.832C61.8758 104.163 61.5025 104.413 61.0331 104.584ZM68.1683 100.44C69.3416 100.44 70.2376 100.728 70.8563 101.304C71.4856 101.88 71.8003 102.739 71.8003 103.88V109H70.3443V107.88C70.0883 108.275 69.7203 108.579 69.2403 108.792C68.7709 108.995 68.2109 109.096 67.5603 109.096C66.6109 109.096 65.8483 108.867 65.2723 108.408C64.7069 107.949 64.4243 107.347 64.4243 106.6C64.4243 105.853 64.6963 105.256 65.2403 104.808C65.7843 104.349 66.6483 104.12 67.8323 104.12H70.2643V103.816C70.2643 103.155 70.0723 102.648 69.6883 102.296C69.3043 101.944 68.7389 101.768 67.9923 101.768C67.4909 101.768 67.0003 101.853 66.5203 102.024C66.0403 102.184 65.6349 102.403 65.3043 102.68L64.6643 101.528C65.1016 101.176 65.6243 100.909 66.2323 100.728C66.8403 100.536 67.4856 100.44 68.1683 100.44ZM67.8163 107.912C68.4029 107.912 68.9096 107.784 69.3363 107.528C69.7629 107.261 70.0723 106.888 70.2643 106.408V105.224H67.8963C66.5949 105.224 65.9443 105.661 65.9443 106.536C65.9443 106.963 66.1096 107.299 66.4403 107.544C66.7709 107.789 67.2296 107.912 67.8163 107.912ZM77.8621 105.416H76.1021V109H74.5661V100.52H76.1021V104.104H77.8941L80.6461 100.52H82.2941L79.0781 104.6L82.5181 109H80.7101L77.8621 105.416ZM91.4086 100.52V109H89.8726V101.864H86.2246L86.1286 103.752C86.0753 104.893 85.974 105.848 85.8246 106.616C85.6753 107.373 85.43 107.981 85.0886 108.44C84.7473 108.899 84.2726 109.128 83.6646 109.128C83.3873 109.128 83.0726 109.08 82.7206 108.984L82.8166 107.688C82.9553 107.72 83.0833 107.736 83.2006 107.736C83.6273 107.736 83.9473 107.549 84.1606 107.176C84.374 106.803 84.5126 106.36 84.5766 105.848C84.6406 105.336 84.6993 104.605 84.7526 103.656L84.8966 100.52H91.4086ZM101.883 100.44C102.704 100.44 103.44 100.627 104.091 101C104.741 101.363 105.253 101.875 105.627 102.536C106 103.187 106.187 103.928 106.187 104.76C106.187 105.592 106 106.339 105.627 107C105.253 107.651 104.741 108.163 104.091 108.536C103.44 108.909 102.704 109.096 101.883 109.096C101.136 109.096 100.459 108.941 99.8506 108.632C99.2426 108.323 98.7413 107.891 98.3466 107.336C97.9626 106.771 97.7226 106.131 97.6266 105.416H95.9146V109H94.3786V100.52H95.9146V103.992H97.6426C97.7493 103.288 97.9946 102.669 98.3786 102.136C98.7733 101.592 99.2693 101.176 99.8666 100.888C100.475 100.589 101.147 100.44 101.883 100.44ZM101.883 107.752C102.405 107.752 102.875 107.629 103.291 107.384C103.717 107.139 104.053 106.792 104.299 106.344C104.544 105.885 104.667 105.357 104.667 104.76C104.667 104.173 104.544 103.656 104.299 103.208C104.053 102.749 103.717 102.397 103.291 102.152C102.875 101.907 102.405 101.784 101.883 101.784C101.36 101.784 100.885 101.907 100.459 102.152C100.032 102.397 99.696 102.749 99.4506 103.208C99.216 103.656 99.0986 104.173 99.0986 104.76C99.0986 105.357 99.216 105.885 99.4506 106.344C99.696 106.792 100.032 107.139 100.459 107.384C100.885 107.629 101.36 107.752 101.883 107.752ZM115.162 100.52V109H113.626V105.576C112.709 106.003 111.797 106.216 110.89 106.216C109.834 106.216 109.018 105.971 108.442 105.48C107.866 104.989 107.578 104.253 107.578 103.272V100.52H109.114V103.176C109.114 103.763 109.296 104.205 109.658 104.504C110.032 104.803 110.549 104.952 111.21 104.952C111.957 104.952 112.762 104.765 113.626 104.392V100.52H115.162ZM125.808 104.808C125.808 104.925 125.798 105.08 125.776 105.272H118.896C118.992 106.019 119.318 106.621 119.872 107.08C120.438 107.528 121.136 107.752 121.968 107.752C122.982 107.752 123.798 107.411 124.416 106.728L125.264 107.72C124.88 108.168 124.4 108.509 123.824 108.744C123.259 108.979 122.624 109.096 121.92 109.096C121.024 109.096 120.23 108.915 119.536 108.552C118.843 108.179 118.304 107.661 117.92 107C117.547 106.339 117.36 105.592 117.36 104.76C117.36 103.939 117.542 103.197 117.904 102.536C118.278 101.875 118.784 101.363 119.424 101C120.075 100.627 120.806 100.44 121.616 100.44C122.427 100.44 123.147 100.627 123.776 101C124.416 101.363 124.912 101.875 125.264 102.536C125.627 103.197 125.808 103.955 125.808 104.808ZM121.616 101.736C120.88 101.736 120.262 101.96 119.76 102.408C119.27 102.856 118.982 103.443 118.896 104.168H124.336C124.251 103.453 123.958 102.872 123.456 102.424C122.966 101.965 122.352 101.736 121.616 101.736ZM128.191 100.52H129.727V104.12H134.559V100.52H136.095V109H134.559V105.448H129.727V109H128.191V100.52ZM139.082 100.52H140.618V106.696L145.818 100.52H147.21V109H145.674V102.824L140.49 109H139.082V100.52ZM157.855 104.808C157.855 104.925 157.844 105.08 157.823 105.272H150.943C151.039 106.019 151.364 106.621 151.919 107.08C152.484 107.528 153.183 107.752 154.015 107.752C155.028 107.752 155.844 107.411 156.463 106.728L157.311 107.72C156.927 108.168 156.447 108.509 155.871 108.744C155.306 108.979 154.671 109.096 153.967 109.096C153.071 109.096 152.276 108.915 151.583 108.552C150.89 108.179 150.351 107.661 149.967 107C149.594 106.339 149.407 105.592 149.407 104.76C149.407 103.939 149.588 103.197 149.951 102.536C150.324 101.875 150.831 101.363 151.471 101C152.122 100.627 152.852 100.44 153.663 100.44C154.474 100.44 155.194 100.627 155.823 101C156.463 101.363 156.959 101.875 157.311 102.536C157.674 103.197 157.855 103.955 157.855 104.808ZM153.663 101.736C152.927 101.736 152.308 101.96 151.807 102.408C151.316 102.856 151.028 103.443 150.943 104.168H156.383C156.298 103.453 156.004 102.872 155.503 102.424C155.012 101.965 154.399 101.736 153.663 101.736ZM173.159 107.656V110.968H171.719V109H164.631V110.968H163.175V107.656H163.623C164.167 107.624 164.54 107.24 164.743 106.504C164.946 105.768 165.084 104.728 165.159 103.384L165.287 100.52H171.863V107.656H173.159ZM166.567 103.496C166.524 104.563 166.434 105.448 166.295 106.152C166.167 106.845 165.927 107.347 165.575 107.656H170.327V101.864H166.647L166.567 103.496ZM178.792 109.096C177.949 109.096 177.192 108.909 176.52 108.536C175.848 108.163 175.32 107.651 174.936 107C174.563 106.339 174.376 105.592 174.376 104.76C174.376 103.928 174.563 103.187 174.936 102.536C175.32 101.875 175.848 101.363 176.52 101C177.192 100.627 177.949 100.44 178.792 100.44C179.635 100.44 180.387 100.627 181.048 101C181.72 101.363 182.243 101.875 182.616 102.536C183 103.187 183.192 103.928 183.192 104.76C183.192 105.592 183 106.339 182.616 107C182.243 107.651 181.72 108.163 181.048 108.536C180.387 108.909 179.635 109.096 178.792 109.096ZM178.792 107.752C179.336 107.752 179.821 107.629 180.248 107.384C180.685 107.128 181.027 106.776 181.272 106.328C181.517 105.869 181.64 105.347 181.64 104.76C181.64 104.173 181.517 103.656 181.272 103.208C181.027 102.749 180.685 102.397 180.248 102.152C179.821 101.907 179.336 101.784 178.792 101.784C178.248 101.784 177.757 101.907 177.32 102.152C176.893 102.397 176.552 102.749 176.296 103.208C176.051 103.656 175.928 104.173 175.928 104.76C175.928 105.347 176.051 105.869 176.296 106.328C176.552 106.776 176.893 107.128 177.32 107.384C177.757 107.629 178.248 107.752 178.792 107.752ZM191.65 101.864H186.946V109H185.41V100.52H191.65V101.864ZM196.479 109.096C195.637 109.096 194.879 108.909 194.207 108.536C193.535 108.163 193.007 107.651 192.623 107C192.25 106.339 192.063 105.592 192.063 104.76C192.063 103.928 192.25 103.187 192.623 102.536C193.007 101.875 193.535 101.363 194.207 101C194.879 100.627 195.637 100.44 196.479 100.44C197.322 100.44 198.074 100.627 198.735 101C199.407 101.363 199.93 101.875 200.303 102.536C200.687 103.187 200.879 103.928 200.879 104.76C200.879 105.592 200.687 106.339 200.303 107C199.93 107.651 199.407 108.163 198.735 108.536C198.074 108.909 197.322 109.096 196.479 109.096ZM196.479 107.752C197.023 107.752 197.509 107.629 197.935 107.384C198.373 107.128 198.714 106.776 198.959 106.328C199.205 105.869 199.327 105.347 199.327 104.76C199.327 104.173 199.205 103.656 198.959 103.208C198.714 102.749 198.373 102.397 197.935 102.152C197.509 101.907 197.023 101.784 196.479 101.784C195.935 101.784 195.445 101.907 195.007 102.152C194.581 102.397 194.239 102.749 193.983 103.208C193.738 103.656 193.615 104.173 193.615 104.76C193.615 105.347 193.738 105.869 193.983 106.328C194.239 106.776 194.581 107.128 195.007 107.384C195.445 107.629 195.935 107.752 196.479 107.752ZM208.873 104.6C209.972 104.877 210.521 105.565 210.521 106.664C210.521 107.411 210.239 107.987 209.673 108.392C209.119 108.797 208.287 109 207.177 109H203.097V100.52H207.033C208.036 100.52 208.82 100.712 209.385 101.096C209.951 101.469 210.233 102.003 210.233 102.696C210.233 103.144 210.111 103.533 209.865 103.864C209.631 104.184 209.3 104.429 208.873 104.6ZM204.601 104.168H206.905C207.492 104.168 207.935 104.061 208.233 103.848C208.543 103.635 208.697 103.325 208.697 102.92C208.697 102.109 208.1 101.704 206.905 101.704H204.601V104.168ZM207.065 107.816C207.705 107.816 208.185 107.715 208.505 107.512C208.825 107.309 208.985 106.995 208.985 106.568C208.985 106.131 208.836 105.805 208.537 105.592C208.249 105.379 207.791 105.272 207.161 105.272H204.601V107.816H207.065ZM216.558 109.096C215.715 109.096 214.958 108.909 214.286 108.536C213.614 108.163 213.086 107.651 212.702 107C212.328 106.339 212.142 105.592 212.142 104.76C212.142 103.928 212.328 103.187 212.702 102.536C213.086 101.875 213.614 101.363 214.286 101C214.958 100.627 215.715 100.44 216.558 100.44C217.4 100.44 218.152 100.627 218.814 101C219.486 101.363 220.008 101.875 220.382 102.536C220.766 103.187 220.958 103.928 220.958 104.76C220.958 105.592 220.766 106.339 220.382 107C220.008 107.651 219.486 108.163 218.814 108.536C218.152 108.909 217.4 109.096 216.558 109.096ZM216.558 107.752C217.102 107.752 217.587 107.629 218.014 107.384C218.451 107.128 218.792 106.776 219.038 106.328C219.283 105.869 219.406 105.347 219.406 104.76C219.406 104.173 219.283 103.656 219.038 103.208C218.792 102.749 218.451 102.397 218.014 102.152C217.587 101.907 217.102 101.784 216.558 101.784C216.014 101.784 215.523 101.907 215.086 102.152C214.659 102.397 214.318 102.749 214.062 103.208C213.816 103.656 213.694 104.173 213.694 104.76C213.694 105.347 213.816 105.869 214.062 106.328C214.318 106.776 214.659 107.128 215.086 107.384C215.523 107.629 216.014 107.752 216.558 107.752ZM227.672 100.44C228.493 100.44 229.229 100.621 229.88 100.984C230.53 101.347 231.037 101.853 231.4 102.504C231.773 103.155 231.96 103.907 231.96 104.76C231.96 105.613 231.773 106.371 231.4 107.032C231.037 107.683 230.53 108.189 229.88 108.552C229.229 108.915 228.493 109.096 227.672 109.096C227.064 109.096 226.504 108.979 225.992 108.744C225.49 108.509 225.064 108.168 224.712 107.72V112.104H223.176V100.52H224.648V101.864C224.989 101.395 225.421 101.043 225.944 100.808C226.466 100.563 227.042 100.44 227.672 100.44ZM227.544 107.752C228.088 107.752 228.573 107.629 229 107.384C229.437 107.128 229.778 106.776 230.024 106.328C230.28 105.869 230.408 105.347 230.408 104.76C230.408 104.173 230.28 103.656 230.024 103.208C229.778 102.749 229.437 102.397 229 102.152C228.573 101.907 228.088 101.784 227.544 101.784C227.01 101.784 226.525 101.912 226.088 102.168C225.661 102.413 225.32 102.76 225.064 103.208C224.818 103.656 224.696 104.173 224.696 104.76C224.696 105.347 224.818 105.869 225.064 106.328C225.309 106.776 225.65 107.128 226.088 107.384C226.525 107.629 227.01 107.752 227.544 107.752ZM237.137 100.44C238.31 100.44 239.206 100.728 239.825 101.304C240.454 101.88 240.769 102.739 240.769 103.88V109H239.313V107.88C239.057 108.275 238.689 108.579 238.209 108.792C237.74 108.995 237.18 109.096 236.529 109.096C235.58 109.096 234.817 108.867 234.241 108.408C233.676 107.949 233.393 107.347 233.393 106.6C233.393 105.853 233.665 105.256 234.209 104.808C234.753 104.349 235.617 104.12 236.801 104.12H239.233V103.816C239.233 103.155 239.041 102.648 238.657 102.296C238.273 101.944 237.708 101.768 236.961 101.768C236.46 101.768 235.969 101.853 235.489 102.024C235.009 102.184 234.604 102.403 234.273 102.68L233.633 101.528C234.07 101.176 234.593 100.909 235.201 100.728C235.809 100.536 236.454 100.44 237.137 100.44ZM236.785 107.912C237.372 107.912 237.878 107.784 238.305 107.528C238.732 107.261 239.041 106.888 239.233 106.408V105.224H236.865C235.564 105.224 234.913 105.661 234.913 106.536C234.913 106.963 235.078 107.299 235.409 107.544C235.74 107.789 236.198 107.912 236.785 107.912Z" fill="#2A3040"/>
</svg>
