<svg width="297" height="113" viewBox="0 0 297 113" fill="none" xmlns="http://www.w3.org/2000/svg">
<g clip-path="url(#clip0_2_438)">
<path d="M124.306 30.9677V40.6451C124.306 41.7145 125.173 42.5806 126.242 42.5806H140.758V29.0322H126.242C125.173 29.0322 124.306 29.8984 124.306 30.9677Z" fill="white"/>
<path d="M153.339 13.5483H135.919V5.8064H153.339V13.5483Z" fill="white"/>
<path d="M178.5 25.8762V22.7107C178.5 20.3188 176.713 18.2595 174.346 17.9217L171.726 17.5479V16.196C173.478 14.9702 174.629 12.9407 174.629 10.6452V9.67742H176.565V7.74194H174.629V6.77419C174.629 4.10629 172.458 1.93548 169.79 1.93548H165.919C163.251 1.93548 161.081 4.10629 161.081 6.77419V7.74194H159.145V9.67742H161.081V10.6452C161.081 12.54 161.865 14.2529 163.123 15.4839H157.21V2.90323C157.21 1.30277 155.907 0 154.306 0H134.952C133.351 0 132.048 1.30277 132.048 2.90323V21.2903H118.5V27.0968H120.435V52.6276L119.24 53.2258L128.917 58.0645H161.959L162.132 60H173.576L175.597 37.7419V37.7301C177.207 37.6673 178.5 36.3466 178.5 34.7215C178.5 33.9263 178.178 33.148 177.615 32.5857L176.001 30.9715L177.625 28.6519C178.198 27.8344 178.5 26.8742 178.5 25.8762V25.8762ZM171.1 19.4139L171.496 19.4701L170.38 22.4457L169.223 21.2903L171.1 19.4139ZM169.79 17.9864L167.855 19.9219L165.919 17.9864V17.1339C166.533 17.3178 167.182 17.4194 167.855 17.4194C168.527 17.4194 169.177 17.3178 169.79 17.1339V17.9864ZM130.113 54.1935H157.21V56.129H130.113V54.1935ZM157.21 52.2581H130.113V50.3226H157.21V52.2581ZM157.21 30.9677H153.339V27.0968H157.21V30.9677ZM157.21 22.7122V25.1613H153.339V21.2941L157.443 21.296C157.302 21.7482 157.21 22.2193 157.21 22.7122ZM151.403 25.1613H145.597V21.2903L151.403 21.2932V25.1613ZM145.597 27.0968H151.403V30.9677H145.597V27.0968ZM145.597 32.9032H151.403V36.7742H145.597V32.9032ZM145.597 38.7097H151.403V42.5806H145.597V38.7097ZM145.597 44.5161H151.403V48.3871H145.597V44.5161ZM153.339 48.3871V44.5161H160.744L161.092 48.3871H153.339ZM160.571 42.5806H153.339V38.7097H160.113C160.151 38.7097 160.186 38.7002 160.222 38.6988L160.571 42.5806ZM153.339 36.7742V32.9032H157.21V35.8065C157.21 36.1471 157.279 36.4704 157.388 36.7742H153.339ZM158.59 19.3615L143.661 19.3548V48.3871H141.726V17.4194H163.984V17.5479L161.364 17.9226C160.273 18.0785 159.316 18.6106 158.59 19.3615ZM164.61 19.4139L166.486 21.2903L165.33 22.4457L164.214 19.4701L164.61 19.4139ZM172.694 6.77419V7.74194H169.965L170.589 3.99666C171.8 4.34633 172.694 5.45205 172.694 6.77419ZM167.061 3.87097H168.647L168.002 7.74194H167.706L167.061 3.87097ZM163.016 6.77419C163.016 5.45205 163.909 4.34633 165.121 3.99666L165.745 7.74194H163.016V6.77419ZM163.016 10.6452V9.67742H172.694V10.6452C172.694 13.3131 170.523 15.4839 167.855 15.4839C165.187 15.4839 163.016 13.3131 163.016 10.6452ZM133.984 2.90323C133.984 2.36927 134.419 1.93548 134.952 1.93548H154.306C154.839 1.93548 155.274 2.36927 155.274 2.90323V15.4839H139.79V21.2903H133.984V2.90323ZM120.435 23.2258H139.79V25.1613H120.435V23.2258ZM122.371 27.0968H139.79V48.3871H128.917L122.371 51.6598V27.0968ZM128.177 50.9208V55.5308L123.567 53.2258L128.177 50.9208ZM159.145 56.129V50.3226H161.264L161.785 56.129H159.145ZM162.067 37.9395C162.135 37.8766 162.199 37.8105 162.261 37.7419H166.887V58.0645H163.9L162.067 37.9395ZM171.81 58.0645H168.823V37.7419H169.764C170.702 37.7419 171.583 37.2822 172.122 36.5138L172.484 35.9959L173.344 36.8564C173.443 36.9552 173.554 37.0364 173.663 37.1187L173.665 37.6531L171.81 58.0645ZM176.247 33.9541C176.448 34.1564 176.565 34.4361 176.565 34.7215C176.565 35.3197 176.078 35.8065 175.48 35.8065C175.189 35.8065 174.917 35.694 174.712 35.4889L173.61 34.387L174.874 32.581L176.247 33.9541ZM176.565 25.8762C176.565 26.4745 176.383 27.0505 176.04 27.5419L170.536 35.4048C170.358 35.6567 170.071 35.8065 169.764 35.8065C169.245 35.8065 168.823 35.3835 168.823 34.8647V34.507C168.823 34.3047 168.889 34.1044 169.01 33.9418L174.241 26.9682C174.492 26.6351 174.629 26.2221 174.629 25.8068V24.1935H172.694V25.8068L171.886 26.8837C171.336 26.4031 170.646 26.129 169.908 26.129C168.242 26.129 166.887 27.4838 166.887 29.1494C166.887 29.9447 167.209 30.723 167.772 31.2853L168.236 31.7488L167.462 32.7804C167.091 33.277 166.887 33.8903 166.887 34.507V34.8647C166.887 35.1959 166.955 35.5092 167.058 35.8065H163.016V24.1935H161.081V35.8065C161.081 36.3404 160.646 36.7742 160.113 36.7742C159.58 36.7742 159.145 36.3404 159.145 35.8065V22.7122C159.145 21.2766 160.216 20.041 161.638 19.8387L162.252 19.7508L164.573 25.9405L167.855 22.6588L171.137 25.9405L173.458 19.7508L174.072 19.8387C175.493 20.041 176.565 21.2757 176.565 22.7122V25.8762ZM169.14 29.9168C168.939 29.7146 168.823 29.4349 168.823 29.1494C168.823 28.5512 169.309 28.0645 169.908 28.0645C170.198 28.0645 170.47 28.177 170.674 28.3821L170.724 28.4321L169.409 30.1857L169.14 29.9168Z" fill="#2A3040"/>
<path d="M137.855 5.8064H139.79V13.5483H137.855V5.8064Z" fill="#2A3040"/>
<path d="M141.726 5.8064H143.661V13.5483H141.726V5.8064Z" fill="#2A3040"/>
<path d="M145.597 5.8064H147.532V13.5483H145.597V5.8064Z" fill="#2A3040"/>
<path d="M149.468 5.8064H151.403V13.5483H149.468V5.8064Z" fill="#2A3040"/>
</g>
<path d="M73.3997 84.192C74.157 84.3733 74.7277 84.6987 75.1117 85.168C75.5064 85.6267 75.7037 86.2187 75.7037 86.944C75.7037 87.9147 75.3464 88.6667 74.6317 89.2C73.9277 89.7333 72.8984 90 71.5437 90H66.4237V78.8H71.2397C72.4664 78.8 73.421 79.0507 74.1037 79.552C74.797 80.0427 75.1437 80.752 75.1437 81.68C75.1437 82.288 74.989 82.8053 74.6797 83.232C74.381 83.6587 73.9544 83.9787 73.3997 84.192ZM68.0077 83.728H71.1277C71.9064 83.728 72.4984 83.5733 72.9037 83.264C73.3197 82.9547 73.5277 82.5013 73.5277 81.904C73.5277 81.3067 73.3197 80.8533 72.9037 80.544C72.4877 80.224 71.8957 80.064 71.1277 80.064H68.0077V83.728ZM71.5117 88.736C73.229 88.736 74.0877 88.096 74.0877 86.816C74.0877 86.176 73.869 85.7067 73.4317 85.408C73.005 85.0987 72.365 84.944 71.5117 84.944H68.0077V88.736H71.5117ZM81.9448 84.4C83.0115 84.4107 83.8275 84.656 84.3928 85.136C84.9581 85.616 85.2408 86.2933 85.2408 87.168C85.2408 88.0853 84.9315 88.7947 84.3128 89.296C83.7048 89.7867 82.8301 90.0267 81.6888 90.016L78.1208 90V81.52H79.6568V84.384L81.9448 84.4ZM86.5048 81.52H88.0408V90H86.5048V81.52ZM81.5768 88.848C82.2701 88.8587 82.7928 88.72 83.1448 88.432C83.5075 88.144 83.6888 87.7173 83.6888 87.152C83.6888 86.5973 83.5128 86.192 83.1608 85.936C82.8088 85.68 82.2808 85.5467 81.5768 85.536L79.6568 85.504V88.832L81.5768 88.848ZM98.6911 85.808C98.6911 85.9253 98.6804 86.08 98.6591 86.272H91.7791C91.8751 87.0187 92.2004 87.6213 92.7551 88.08C93.3204 88.528 94.0191 88.752 94.8511 88.752C95.8644 88.752 96.6804 88.4107 97.2991 87.728L98.1471 88.72C97.7631 89.168 97.2831 89.5093 96.7071 89.744C96.1417 89.9787 95.5071 90.096 94.8031 90.096C93.9071 90.096 93.1124 89.9147 92.4191 89.552C91.7257 89.1787 91.1871 88.6613 90.8031 88C90.4297 87.3387 90.2431 86.592 90.2431 85.76C90.2431 84.9387 90.4244 84.1973 90.7871 83.536C91.1604 82.8747 91.6671 82.3627 92.3071 82C92.9577 81.6267 93.6884 81.44 94.4991 81.44C95.3097 81.44 96.0297 81.6267 96.6591 82C97.2991 82.3627 97.7951 82.8747 98.1471 83.536C98.5097 84.1973 98.6911 84.9547 98.6911 85.808ZM94.4991 82.736C93.7631 82.736 93.1444 82.96 92.6431 83.408C92.1524 83.856 91.8644 84.4427 91.7791 85.168H97.2191C97.1337 84.4533 96.8404 83.872 96.3391 83.424C95.8484 82.9653 95.2351 82.736 94.4991 82.736ZM105.478 85.584C106.044 85.7333 106.481 85.9733 106.79 86.304C107.1 86.6347 107.254 87.0453 107.254 87.536C107.254 88.0373 107.084 88.4853 106.742 88.88C106.401 89.264 105.926 89.568 105.318 89.792C104.721 90.0053 104.049 90.112 103.302 90.112C102.673 90.112 102.054 90.032 101.446 89.872C100.849 89.7013 100.316 89.4613 99.8464 89.152L100.31 87.984C100.716 88.24 101.18 88.4427 101.702 88.592C102.225 88.7307 102.753 88.8 103.286 88.8C104.012 88.8 104.588 88.6773 105.014 88.432C105.452 88.176 105.67 87.8347 105.67 87.408C105.67 87.0133 105.494 86.7093 105.142 86.496C104.801 86.2827 104.316 86.176 103.686 86.176H102.134V85.072H103.574C104.15 85.072 104.604 84.9707 104.934 84.768C105.265 84.5653 105.43 84.288 105.43 83.936C105.43 83.552 105.233 83.2533 104.838 83.04C104.454 82.8267 103.932 82.72 103.27 82.72C102.428 82.72 101.537 82.9387 100.598 83.376L100.182 82.192C101.217 81.6693 102.3 81.408 103.43 81.408C104.113 81.408 104.726 81.504 105.27 81.696C105.814 81.888 106.241 82.16 106.55 82.512C106.86 82.864 107.014 83.264 107.014 83.712C107.014 84.128 106.876 84.5013 106.598 84.832C106.321 85.1627 105.948 85.4133 105.478 85.584ZM118.214 88.656V91.968H116.774V90H109.686V91.968H108.23V88.656H108.678C109.222 88.624 109.595 88.24 109.798 87.504C110 86.768 110.139 85.728 110.214 84.384L110.342 81.52H116.918V88.656H118.214ZM111.622 84.496C111.579 85.5627 111.488 86.448 111.35 87.152C111.222 87.8453 110.982 88.3467 110.63 88.656H115.382V82.864H111.702L111.622 84.496ZM128.207 90.096C127.343 90.096 126.57 89.9093 125.887 89.536C125.215 89.1627 124.687 88.6507 124.303 88C123.919 87.3387 123.727 86.592 123.727 85.76C123.727 84.928 123.919 84.1867 124.303 83.536C124.687 82.8747 125.215 82.3627 125.887 82C126.57 81.6267 127.343 81.44 128.207 81.44C128.975 81.44 129.658 81.5947 130.255 81.904C130.863 82.2133 131.333 82.6613 131.663 83.248L130.495 84C130.229 83.5947 129.898 83.2907 129.503 83.088C129.109 82.8853 128.671 82.784 128.191 82.784C127.637 82.784 127.135 82.9067 126.687 83.152C126.25 83.3973 125.903 83.7493 125.647 84.208C125.402 84.656 125.279 85.1733 125.279 85.76C125.279 86.3573 125.402 86.8853 125.647 87.344C125.903 87.792 126.25 88.1387 126.687 88.384C127.135 88.6293 127.637 88.752 128.191 88.752C128.671 88.752 129.109 88.6507 129.503 88.448C129.898 88.2453 130.229 87.9413 130.495 87.536L131.663 88.272C131.333 88.8587 130.863 89.312 130.255 89.632C129.658 89.9413 128.975 90.096 128.207 90.096ZM141.508 81.52V90H139.972V82.864H135.188V90H133.652V81.52H141.508ZM152.144 85.808C152.144 85.9253 152.134 86.08 152.112 86.272H145.232C145.328 87.0187 145.654 87.6213 146.208 88.08C146.774 88.528 147.472 88.752 148.304 88.752C149.318 88.752 150.134 88.4107 150.752 87.728L151.6 88.72C151.216 89.168 150.736 89.5093 150.16 89.744C149.595 89.9787 148.96 90.096 148.256 90.096C147.36 90.096 146.566 89.9147 145.872 89.552C145.179 89.1787 144.64 88.6613 144.256 88C143.883 87.3387 143.696 86.592 143.696 85.76C143.696 84.9387 143.878 84.1973 144.24 83.536C144.614 82.8747 145.12 82.3627 145.76 82C146.411 81.6267 147.142 81.44 147.952 81.44C148.763 81.44 149.483 81.6267 150.112 82C150.752 82.3627 151.248 82.8747 151.6 83.536C151.963 84.1973 152.144 84.9547 152.144 85.808ZM147.952 82.736C147.216 82.736 146.598 82.96 146.096 83.408C145.606 83.856 145.318 84.4427 145.232 85.168H150.672C150.587 84.4533 150.294 83.872 149.792 83.424C149.302 82.9653 148.688 82.736 147.952 82.736ZM163.583 88.656V92.032H162.127V90H154.527V81.52H156.063V88.656H160.703V81.52H162.239V88.656H163.583ZM165.574 81.52H167.11V87.696L172.31 81.52H173.702V90H172.166V83.824L166.982 90H165.574V81.52ZM179.707 81.44C180.881 81.44 181.777 81.728 182.395 82.304C183.025 82.88 183.339 83.7387 183.339 84.88V90H181.883V88.88C181.627 89.2747 181.259 89.5787 180.779 89.792C180.31 89.9947 179.75 90.096 179.099 90.096C178.15 90.096 177.387 89.8667 176.811 89.408C176.246 88.9493 175.963 88.3467 175.963 87.6C175.963 86.8533 176.235 86.256 176.779 85.808C177.323 85.3493 178.187 85.12 179.371 85.12H181.803V84.816C181.803 84.1547 181.611 83.648 181.227 83.296C180.843 82.944 180.278 82.768 179.531 82.768C179.03 82.768 178.539 82.8533 178.059 83.024C177.579 83.184 177.174 83.4027 176.843 83.68L176.203 82.528C176.641 82.176 177.163 81.9093 177.771 81.728C178.379 81.536 179.025 81.44 179.707 81.44ZM179.355 88.912C179.942 88.912 180.449 88.784 180.875 88.528C181.302 88.2613 181.611 87.888 181.803 87.408V86.224H179.435C178.134 86.224 177.483 86.6613 177.483 87.536C177.483 87.9627 177.649 88.2987 177.979 88.544C178.31 88.7893 178.769 88.912 179.355 88.912ZM193.385 81.52V90H191.849V82.864H188.201L188.105 84.752C188.052 85.8933 187.951 86.848 187.801 87.616C187.652 88.3733 187.407 88.9813 187.065 89.44C186.724 89.8987 186.249 90.128 185.641 90.128C185.364 90.128 185.049 90.08 184.697 89.984L184.793 88.688C184.932 88.72 185.06 88.736 185.177 88.736C185.604 88.736 185.924 88.5493 186.137 88.176C186.351 87.8027 186.489 87.36 186.553 86.848C186.617 86.336 186.676 85.6053 186.729 84.656L186.873 81.52H193.385ZM196.355 81.52H197.891V87.696L203.091 81.52H204.483V90H202.947V83.824L197.763 90H196.355V81.52ZM211.161 90.096C210.297 90.096 209.523 89.9093 208.841 89.536C208.169 89.1627 207.641 88.6507 207.257 88C206.873 87.3387 206.681 86.592 206.681 85.76C206.681 84.928 206.873 84.1867 207.257 83.536C207.641 82.8747 208.169 82.3627 208.841 82C209.523 81.6267 210.297 81.44 211.161 81.44C211.929 81.44 212.611 81.5947 213.209 81.904C213.817 82.2133 214.286 82.6613 214.617 83.248L213.449 84C213.182 83.5947 212.851 83.2907 212.457 83.088C212.062 82.8853 211.625 82.784 211.145 82.784C210.59 82.784 210.089 82.9067 209.641 83.152C209.203 83.3973 208.857 83.7493 208.601 84.208C208.355 84.656 208.233 85.1733 208.233 85.76C208.233 86.3573 208.355 86.8853 208.601 87.344C208.857 87.792 209.203 88.1387 209.641 88.384C210.089 88.6293 210.59 88.752 211.145 88.752C211.625 88.752 212.062 88.6507 212.457 88.448C212.851 88.2453 213.182 87.9413 213.449 87.536L214.617 88.272C214.286 88.8587 213.817 89.312 213.209 89.632C212.611 89.9413 211.929 90.096 211.161 90.096ZM222.816 82.864H219.712V90H218.176V82.864H215.072V81.52H222.816V82.864ZM227.41 81.44C228.584 81.44 229.48 81.728 230.098 82.304C230.728 82.88 231.042 83.7387 231.042 84.88V90H229.586V88.88C229.33 89.2747 228.962 89.5787 228.482 89.792C228.013 89.9947 227.453 90.096 226.802 90.096C225.853 90.096 225.09 89.8667 224.514 89.408C223.949 88.9493 223.666 88.3467 223.666 87.6C223.666 86.8533 223.938 86.256 224.482 85.808C225.026 85.3493 225.89 85.12 227.074 85.12H229.506V84.816C229.506 84.1547 229.314 83.648 228.93 83.296C228.546 82.944 227.981 82.768 227.234 82.768C226.733 82.768 226.242 82.8533 225.762 83.024C225.282 83.184 224.877 83.4027 224.546 83.68L223.906 82.528C224.344 82.176 224.866 81.9093 225.474 81.728C226.082 81.536 226.728 81.44 227.41 81.44ZM227.058 88.912C227.645 88.912 228.152 88.784 228.578 88.528C229.005 88.2613 229.314 87.888 229.506 87.408V86.224H227.138C225.837 86.224 225.186 86.6613 225.186 87.536C225.186 87.9627 225.352 88.2987 225.682 88.544C226.013 88.7893 226.472 88.912 227.058 88.912ZM108.629 100.52H110.165V104.12H114.997V100.52H116.533V109H114.997V105.448H110.165V109H108.629V100.52ZM122.543 100.44C123.717 100.44 124.613 100.728 125.231 101.304C125.861 101.88 126.175 102.739 126.175 103.88V109H124.719V107.88C124.463 108.275 124.095 108.579 123.615 108.792C123.146 108.995 122.586 109.096 121.935 109.096C120.986 109.096 120.223 108.867 119.647 108.408C119.082 107.949 118.799 107.347 118.799 106.6C118.799 105.853 119.071 105.256 119.615 104.808C120.159 104.349 121.023 104.12 122.207 104.12H124.639V103.816C124.639 103.155 124.447 102.648 124.063 102.296C123.679 101.944 123.114 101.768 122.367 101.768C121.866 101.768 121.375 101.853 120.895 102.024C120.415 102.184 120.01 102.403 119.679 102.68L119.039 101.528C119.477 101.176 119.999 100.909 120.607 100.728C121.215 100.536 121.861 100.44 122.543 100.44ZM122.191 107.912C122.778 107.912 123.285 107.784 123.711 107.528C124.138 107.261 124.447 106.888 124.639 106.408V105.224H122.271C120.97 105.224 120.319 105.661 120.319 106.536C120.319 106.963 120.485 107.299 120.815 107.544C121.146 107.789 121.605 107.912 122.191 107.912ZM136.87 109.096C136.027 109.096 135.27 108.909 134.598 108.536C133.926 108.163 133.398 107.651 133.014 107C132.641 106.339 132.454 105.592 132.454 104.76C132.454 103.928 132.641 103.187 133.014 102.536C133.398 101.875 133.926 101.363 134.598 101C135.27 100.627 136.027 100.44 136.87 100.44C137.713 100.44 138.465 100.627 139.126 101C139.798 101.363 140.321 101.875 140.694 102.536C141.078 103.187 141.27 103.928 141.27 104.76C141.27 105.592 141.078 106.339 140.694 107C140.321 107.651 139.798 108.163 139.126 108.536C138.465 108.909 137.713 109.096 136.87 109.096ZM136.87 107.752C137.414 107.752 137.899 107.629 138.326 107.384C138.763 107.128 139.105 106.776 139.35 106.328C139.595 105.869 139.718 105.347 139.718 104.76C139.718 104.173 139.595 103.656 139.35 103.208C139.105 102.749 138.763 102.397 138.326 102.152C137.899 101.907 137.414 101.784 136.87 101.784C136.326 101.784 135.835 101.907 135.398 102.152C134.971 102.397 134.63 102.749 134.374 103.208C134.129 103.656 134.006 104.173 134.006 104.76C134.006 105.347 134.129 105.869 134.374 106.328C134.63 106.776 134.971 107.128 135.398 107.384C135.835 107.629 136.326 107.752 136.87 107.752ZM147.808 100.808C148.597 100.808 149.301 100.984 149.92 101.336C150.539 101.688 151.019 102.179 151.36 102.808C151.712 103.427 151.888 104.136 151.888 104.936C151.888 105.757 151.701 106.488 151.328 107.128C150.965 107.757 150.448 108.248 149.776 108.6C149.115 108.952 148.357 109.128 147.504 109.128C146.064 109.128 144.949 108.637 144.16 107.656C143.381 106.664 142.992 105.272 142.992 103.48C142.992 101.741 143.349 100.381 144.064 99.4C144.779 98.408 145.872 97.752 147.344 97.432L151.216 96.568L151.44 97.976L147.872 98.744C146.763 98.9893 145.936 99.4053 145.392 99.992C144.848 100.579 144.539 101.421 144.464 102.52C144.827 101.976 145.296 101.555 145.872 101.256C146.448 100.957 147.093 100.808 147.808 100.808ZM147.536 107.848C148.08 107.848 148.56 107.725 148.976 107.48C149.403 107.235 149.733 106.899 149.968 106.472C150.203 106.035 150.32 105.539 150.32 104.984C150.32 104.141 150.064 103.464 149.552 102.952C149.04 102.44 148.368 102.184 147.536 102.184C146.704 102.184 146.027 102.44 145.504 102.952C144.992 103.464 144.736 104.141 144.736 104.984C144.736 105.539 144.853 106.035 145.088 106.472C145.333 106.899 145.669 107.235 146.096 107.48C146.523 107.725 147.003 107.848 147.536 107.848ZM158.777 103.384C159.823 103.384 160.623 103.629 161.177 104.12C161.743 104.6 162.025 105.277 162.025 106.152C162.025 107.059 161.716 107.763 161.097 108.264C160.489 108.755 159.625 109 158.505 109H154.937V101.864H152.345V100.52H156.473V103.384H158.777ZM158.457 107.832C159.119 107.832 159.62 107.688 159.961 107.4C160.303 107.112 160.473 106.685 160.473 106.12C160.473 105.576 160.303 105.176 159.961 104.92C159.631 104.653 159.129 104.52 158.457 104.52H156.473V107.832H158.457ZM171.652 104.808C171.652 104.925 171.641 105.08 171.62 105.272H164.74C164.836 106.019 165.161 106.621 165.716 107.08C166.281 107.528 166.98 107.752 167.812 107.752C168.825 107.752 169.641 107.411 170.26 106.728L171.108 107.72C170.724 108.168 170.244 108.509 169.668 108.744C169.103 108.979 168.468 109.096 167.764 109.096C166.868 109.096 166.073 108.915 165.38 108.552C164.687 108.179 164.148 107.661 163.764 107C163.391 106.339 163.204 105.592 163.204 104.76C163.204 103.939 163.385 103.197 163.748 102.536C164.121 101.875 164.628 101.363 165.268 101C165.919 100.627 166.649 100.44 167.46 100.44C168.271 100.44 168.991 100.627 169.62 101C170.26 101.363 170.756 101.875 171.108 102.536C171.471 103.197 171.652 103.955 171.652 104.808ZM167.46 101.736C166.724 101.736 166.105 101.96 165.604 102.408C165.113 102.856 164.825 103.443 164.74 104.168H170.18C170.095 103.453 169.801 102.872 169.3 102.424C168.809 101.965 168.196 101.736 167.46 101.736ZM177.331 105.416H175.571V109H174.035V100.52H175.571V104.104H177.363L180.115 100.52H181.763L178.547 104.6L181.987 109H180.179L177.331 105.416ZM189.777 101.864H186.673V109H185.137V101.864H182.033V100.52H189.777V101.864Z" fill="#2A3040"/>
<defs>
<clipPath id="clip0_2_438">
<rect width="60" height="60" fill="white" transform="translate(118.5)"/>
</clipPath>
</defs>
</svg>
