<svg width="132" height="70" viewBox="0 0 132 70" fill="none" xmlns="http://www.w3.org/2000/svg">
<g clip-path="url(#clip0_2_582)">
<path d="M0 31.5991C0.344403 31.1686 0.774908 31.0825 1.20541 31.0825C6.19926 31.0825 11.2792 31.0825 16.2731 31.0825C16.7036 31.0825 16.9619 30.9103 17.1341 30.5659C20.7503 24.7971 24.3665 19.1145 27.8967 13.3457C28.155 13.0013 28.4133 12.8291 28.8438 12.8291C31.599 12.8291 34.2681 12.8291 37.0234 12.8291C37.1095 12.8291 37.1095 12.8291 37.1956 12.8291C37.1956 12.1403 37.1956 11.3654 37.1956 10.5905C37.0234 10.5905 36.8512 10.5905 36.5929 10.5905C34.0959 10.5905 31.6851 10.5905 29.1882 10.5905C29.1021 10.5905 28.9299 10.6766 28.8438 10.5905C28.6716 10.5044 28.5855 10.3322 28.4133 10.16C28.5855 10.0739 28.6716 9.90168 28.8438 9.81558C28.9299 9.72948 29.1021 9.81558 29.1882 9.81558C31.6851 9.81558 34.0959 9.81558 36.5929 9.81558C36.7651 9.81558 36.9373 9.81558 37.1095 9.81558C37.1095 8.95457 37.1095 8.17966 37.1095 7.31865C36.9373 7.31865 36.7651 7.31865 36.5929 7.31865C34.0959 7.31865 31.5129 7.31865 29.016 7.31865C28.8438 7.31865 28.6716 7.31865 28.5855 7.31865C28.4133 7.23255 28.3272 7.06035 28.3272 6.88815C28.3272 6.80205 28.4994 6.62985 28.6716 6.54375C28.7577 6.45764 28.9299 6.54375 29.1021 6.54375C31.599 6.54375 34.0959 6.54375 36.5929 6.54375C36.7651 6.54375 36.9373 6.54375 37.1095 6.54375C37.1095 5.68274 37.1095 4.90783 37.1095 4.04682C36.9373 4.04682 36.7651 4.04682 36.5068 4.04682C34.0098 4.04682 31.5129 4.04682 29.016 4.04682C28.8438 4.04682 28.6716 4.04682 28.5855 3.96072C28.4133 3.87462 28.3272 3.70242 28.3272 3.61632C28.3272 3.44411 28.4994 3.35801 28.6716 3.27191C28.7577 3.18581 28.9299 3.27191 29.1021 3.27191C31.7712 3.27191 34.4403 3.27191 37.1956 3.27191C37.1956 2.58311 37.1956 1.8943 37.1956 1.20549C37.1956 0.774988 37.2817 0.344484 37.7122 0.0861816C37.9705 0.0861816 38.1427 0.0861816 38.401 0.0861816C46.4084 5.85494 54.2435 11.7959 62.0787 17.6508C67.0726 21.4392 72.1525 25.1415 77.1464 28.93C77.4047 29.1883 77.663 29.3605 77.663 29.791C77.663 30.2215 77.3186 30.4798 76.8881 30.5659C76.802 30.5659 76.6298 30.5659 76.5437 30.5659C71.0332 30.5659 65.4366 30.5659 59.9262 30.5659C59.5818 30.5659 59.4096 30.652 59.2374 30.9964C55.6212 36.8512 51.9188 42.7061 48.3026 48.561C48.0443 48.9054 47.786 48.9915 47.3555 48.9915C44.6002 48.9915 41.9311 48.9915 39.1759 48.9915C39.0898 48.9915 39.0898 48.9915 39.0037 48.9915C39.0037 49.8525 39.0037 50.7135 39.0037 51.5745C39.1759 51.5745 39.3481 51.5745 39.5203 51.5745C42.1033 51.5745 44.6863 51.5745 47.2694 51.5745C47.3555 51.5745 47.5277 51.5745 47.6138 51.5745C47.786 51.6606 47.8721 51.8328 47.9582 51.9189C47.9582 52.005 47.8721 52.1772 47.6999 52.2633C47.5277 52.3494 47.3555 52.3494 47.1833 52.3494C44.6002 52.3494 42.1033 52.3494 39.5203 52.3494C39.3481 52.3494 39.1759 52.3494 38.9176 52.3494C38.9176 53.2104 38.9176 53.9853 38.9176 54.8463C39.0898 54.8463 39.262 54.8463 39.5203 54.8463C42.1033 54.8463 44.6002 54.8463 47.1833 54.8463C47.3555 54.8463 47.5277 54.8463 47.6138 54.8463C47.786 54.9324 47.9582 55.1046 47.9582 55.2768C47.9582 55.449 47.6999 55.5351 47.5277 55.6212C47.4416 55.7073 47.2694 55.6212 47.1833 55.6212C44.428 55.6212 41.7589 55.6212 39.0037 55.6212C39.0037 56.4822 39.0037 57.2571 39.0037 58.1182C39.1759 58.1182 39.3481 58.1182 39.5203 58.1182C42.1033 58.1182 44.7724 58.1182 47.3555 58.1182C47.4416 58.1182 47.6138 58.0321 47.6999 58.1182C47.8721 58.2043 48.0443 58.3765 48.0443 58.5487C48.0443 58.6348 47.8721 58.807 47.786 58.8931C47.6138 58.9792 47.4416 58.8931 47.2694 58.8931C44.6863 58.8931 42.1033 58.8931 39.5203 58.8931C39.3481 58.8931 39.1759 58.8931 38.9176 58.8931C38.9176 59.4958 38.9176 60.0124 38.9176 60.529C38.9176 60.8734 38.9176 61.2178 38.4871 61.39C38.1427 61.5622 37.7983 61.4761 37.4539 61.2178C31.9434 56.9127 26.433 52.6938 20.9225 48.4749C14.2927 43.3949 7.49077 38.1428 0.774908 32.8906C0.516605 32.7184 0.258303 32.4601 0 32.2018C0 32.0296 0 31.7713 0 31.5991ZM37.3678 14.5511C34.7847 14.5511 32.2017 14.5511 29.6187 14.5511C29.6187 14.8094 29.6187 14.9816 29.6187 15.1538C29.6187 18.7701 29.6187 22.3863 29.6187 26.0025C29.6187 31.2547 29.6187 36.5068 29.6187 41.759C29.6187 41.8451 29.6187 42.0173 29.6187 42.1034C29.5326 42.7061 28.8438 43.0505 28.3272 42.7061C28.155 42.62 28.0689 42.5339 27.9828 42.3617C24.4526 39.176 20.9225 36.0763 17.3063 32.8906C17.1341 32.7184 16.8758 32.6323 16.6175 32.6323C12.3124 32.6323 8.00738 32.6323 3.70234 32.6323C3.53014 32.6323 3.44403 32.6323 3.18573 32.6323C14.6371 41.5868 26.0025 50.283 37.3678 59.1514C37.3678 58.8931 37.3678 58.7209 37.3678 58.6348C37.3678 52.2633 37.3678 45.9779 37.3678 39.6065C37.3678 39.0038 37.7122 38.5733 38.2288 38.5733C38.6593 38.5733 39.0037 38.9177 39.0037 39.6065C39.0037 42.0173 39.0037 44.342 39.0037 46.7528C39.0037 46.925 39.0037 47.0972 39.0037 47.2695C41.5867 47.2695 44.1697 47.2695 46.8389 47.2695C46.8389 47.0972 46.8389 46.925 46.8389 46.7528C46.8389 44.5142 46.8389 42.2756 46.8389 40.037C46.8389 37.1096 46.8389 34.2682 46.8389 31.3408C46.8389 27.5524 46.8389 23.85 46.8389 20.0616C46.8389 19.8894 46.7528 19.7172 46.8389 19.545C46.925 19.2867 47.0972 18.9423 47.2694 18.8562C47.5277 18.7701 47.8721 18.8562 48.1304 18.9423C48.3026 18.9423 48.3887 19.1145 48.4748 19.2006C52.0049 22.3002 55.535 25.4859 59.0652 28.5856C59.2374 28.7578 59.4957 28.8439 59.754 28.8439C64.4895 28.8439 69.2251 28.8439 73.9606 28.8439C74.0467 28.8439 74.2189 28.8439 74.3911 28.7578C62.5092 19.9755 50.7995 11.2793 39.0037 2.4109C39.0037 2.75531 39.0037 2.92751 39.0037 3.09971C39.0037 9.90168 39.0037 16.7897 39.0037 23.5917C39.0037 23.7639 39.0037 23.85 39.0037 24.0222C39.0037 24.4527 38.7454 24.711 38.3149 24.711C37.8844 24.7971 37.6261 24.6249 37.4539 24.2805C37.3678 24.1083 37.3678 23.85 37.3678 23.6778C37.3678 21.5253 37.3678 19.3728 37.3678 17.1341C37.3678 16.3592 37.3678 15.4982 37.3678 14.5511ZM55.7934 27.8968C55.7073 27.9829 55.7072 28.069 55.6212 28.069C53.2964 31.8574 50.8856 35.6458 48.5609 39.4343C48.4748 39.6065 48.3887 39.8648 48.3887 40.1231C48.3887 41.5868 48.3887 43.0505 48.3887 44.6003C48.3887 44.7725 48.3887 44.8586 48.3887 45.1169C51.5744 39.9509 54.7601 34.957 57.9459 29.8771C57.2571 29.1883 56.5683 28.5856 55.7934 27.8968ZM20.6642 33.7516C20.7503 33.5794 20.9225 33.4072 20.9225 33.3211C22.9028 30.2215 24.7109 27.0357 26.7774 24.0222C27.6384 22.7307 28.155 21.3531 27.9828 19.8033C27.8967 19.0284 27.9828 18.2535 27.9828 17.4786C27.8967 17.4786 27.8967 17.3925 27.8106 17.3925C24.6248 22.2141 21.5252 26.9496 18.3395 31.7713C19.1144 32.4601 19.8893 33.0628 20.6642 33.7516ZM52.4354 24.8832C52.3493 24.9693 52.3493 25.0554 52.2632 25.0554C51.0578 27.0357 49.7663 29.0161 48.5609 30.9964C48.4748 31.1686 48.3887 31.4269 48.3887 31.5991C48.3887 33.5794 48.3887 35.5597 48.3887 37.5401C48.3887 37.6262 48.3887 37.7984 48.3887 38.0567C50.7134 34.3543 52.8659 30.8242 55.1045 27.2941C54.2435 26.5191 53.3825 25.7442 52.4354 24.8832ZM24.0221 36.7651C25.3137 34.6987 26.6052 32.6323 27.8967 30.5659C27.9828 30.3937 27.9828 30.2215 27.9828 30.0493C27.9828 28.6717 27.9828 27.208 27.9828 25.8303C27.9828 25.1415 27.9828 24.4527 27.9828 23.7639C27.8967 23.7639 27.8967 23.7639 27.8106 23.7639C25.6581 27.2941 23.4194 30.8242 21.1808 34.3543C22.214 35.1292 23.075 35.9041 24.0221 36.7651ZM27.9828 40.2092C27.9828 37.454 27.9828 34.7848 27.9828 32.0296C26.8635 33.8377 25.7442 35.5597 24.7109 37.2817C25.7442 38.315 26.8635 39.2621 27.9828 40.2092ZM48.4748 21.3531C48.4748 24.1083 48.4748 26.7774 48.4748 29.6188C49.5941 27.7246 50.7134 26.0025 51.8327 24.2805C50.7134 23.3334 49.5941 22.3863 48.4748 21.3531Z" fill="white"/>
<path d="M55.7936 27.8967C56.5685 28.5855 57.2573 29.1882 57.9461 29.7909C54.7604 34.8709 51.6607 39.8647 48.3889 45.0308C48.3889 44.7725 48.3889 44.6003 48.3889 44.5142C48.3889 43.0505 48.3889 41.5868 48.3889 40.0369C48.3889 39.7786 48.475 39.5203 48.5611 39.3481C50.8858 35.5597 53.2967 31.7713 55.6214 27.9828C55.7075 28.0689 55.7075 27.9828 55.7936 27.8967Z" fill="#F7C125"/>
<path d="M20.6643 33.7517C19.8894 33.0629 19.2006 32.4601 18.3396 31.6852C21.5253 26.8636 24.625 22.128 27.8107 17.3064C27.8968 17.3064 27.8968 17.3925 27.9829 17.3925C27.9829 18.1674 27.8968 18.9423 27.9829 19.7172C28.1551 21.3531 27.6385 22.6446 26.7775 23.9362C24.7972 26.9497 22.9029 30.1354 20.9226 33.2351C20.8365 33.4073 20.7504 33.5795 20.6643 33.7517Z" fill="#F7C125"/>
<path d="M52.4355 24.8833C53.3826 25.7443 54.2436 26.5192 55.1907 27.2941C52.9521 30.8243 50.7996 34.3544 48.4749 38.0567C48.4749 37.7984 48.4749 37.7123 48.4749 37.5401C48.4749 35.5598 48.4749 33.5795 48.4749 31.5992C48.4749 31.427 48.561 31.1687 48.6471 30.9965C49.8525 29.0161 51.144 27.0358 52.3494 25.0555C52.3494 25.0555 52.3494 25.0555 52.4355 24.8833Z" fill="#F7C125"/>
<path d="M24.0223 36.7653C23.0752 35.9043 22.2142 35.1294 21.2671 34.2684C23.5057 30.7382 25.6582 27.2081 27.8969 23.678C27.983 23.678 27.983 23.678 28.0691 23.678C28.0691 24.3668 28.0691 25.0556 28.0691 25.7444C28.0691 27.122 28.0691 28.5857 28.0691 29.9633C28.0691 30.1355 28.0691 30.3077 27.983 30.4799C26.6053 32.6325 25.3138 34.6989 24.0223 36.7653Z" fill="#F7C125"/>
<path d="M27.983 40.2091C26.8637 39.262 25.8305 38.2288 24.7112 37.2817C25.8305 35.5597 26.8637 33.8377 27.983 32.0295C27.983 34.7848 27.983 37.54 27.983 40.2091Z" fill="#F7C125"/>
<path d="M48.4749 21.353C49.5942 22.3862 50.7135 23.3333 51.8328 24.2805C50.7135 26.0025 49.6803 27.7245 48.4749 29.6187C48.4749 26.8635 48.4749 24.1944 48.4749 21.353Z" fill="#F7C125"/>
<path d="M79.7295 60.0986C77.0604 61.2179 74.4773 61.8206 72.0665 61.8206C67.0727 61.8206 63.0259 60.3569 59.9263 57.5156C56.8267 54.6742 55.2769 50.9719 55.2769 46.4947C55.2769 42.1035 56.9128 38.4012 60.2707 35.4737C63.4564 32.6324 67.5032 31.1687 72.1526 31.1687C74.994 31.1687 77.4909 31.7714 79.7295 32.8907V39.3483C77.6631 37.2819 75.0801 36.2487 71.8943 36.2487C68.8808 36.2487 66.3839 37.1958 64.4036 39.0039C62.3371 40.8981 61.3039 43.395 61.3039 46.3225C61.3039 49.4221 62.3371 51.8329 64.4036 53.7271C66.3839 55.5352 68.8808 56.3963 71.8943 56.3963C74.9079 56.3963 77.4909 55.363 79.7295 53.3827V60.0986Z" fill="white"/>
<path d="M102.46 36.7653H95.1414V61.1319H89.2866V36.7653H81.968V32.0298H102.46V36.7653Z" fill="white"/>
<path d="M131.218 61.1319H123.469L111.328 46.9252V61.1319H105.474V32.0298H111.328V44.9449L123.124 32.0298H130.615L117.183 45.8059L131.218 61.1319Z" fill="white"/>
</g>
<defs>
<clipPath id="clip0_2_582">
<rect width="131.218" height="70" fill="white"/>
</clipPath>
</defs>
</svg>
