<svg width="18" height="18" viewBox="0 0 18 18" fill="none" xmlns="http://www.w3.org/2000/svg">
<path d="M11.7083 12.4263L13.1083 11.0263C13.2957 10.8388 13.5339 10.7105 13.7936 10.6572C14.0532 10.6038 14.3228 10.6279 14.5689 10.7263L16.2739 11.4088C16.5252 11.5093 16.7406 11.6828 16.8923 11.907C17.0441 12.1311 17.1251 12.3956 17.1251 12.6663V15.7669C17.1256 15.9512 17.0884 16.1336 17.0159 16.303C16.9434 16.4725 16.837 16.6253 16.7034 16.7522C16.5698 16.8791 16.4116 16.9774 16.2387 17.0411C16.0658 17.1047 15.8817 17.1325 15.6976 17.1225C3.74638 16.3788 1.33263 6.25626 0.884509 2.38001C0.862805 2.1905 0.881467 1.99855 0.939267 1.81678C0.997068 1.63501 1.0927 1.46753 1.21987 1.32537C1.34703 1.1832 1.50286 1.06957 1.67709 0.99195C1.85133 0.914327 2.04002 0.874472 2.23076 0.875005H5.27638C5.54705 0.874997 5.81151 0.956087 6.03566 1.10782C6.2598 1.25955 6.43334 1.47496 6.53388 1.72626L7.21576 3.43126C7.31416 3.67736 7.33819 3.94694 7.28486 4.20657C7.23154 4.4662 7.1032 4.70448 6.91576 4.89188L5.51576 6.29188C5.51576 6.29188 6.29201 11.7494 11.7083 12.4263Z" fill="#F5BF25"/>
</svg>
