<svg width="62" height="42" viewBox="0 0 62 42" fill="none" xmlns="http://www.w3.org/2000/svg">
<rect width="62" height="42" fill="#2A3040"/>
<path d="M25.5073 32.24C23.8473 32.24 22.3673 31.82 21.0673 30.98C19.7873 30.12 18.7773 28.88 18.0373 27.26C17.2973 25.64 16.9273 23.72 16.9273 21.5C16.9273 19.28 17.2973 17.36 18.0373 15.74C18.7773 14.12 19.7873 12.89 21.0673 12.05C22.3673 11.19 23.8473 10.76 25.5073 10.76C27.1473 10.76 28.6073 11.19 29.8873 12.05C31.1873 12.89 32.2073 14.12 32.9473 15.74C33.6873 17.36 34.0573 19.28 34.0573 21.5C34.0573 23.72 33.6873 25.64 32.9473 27.26C32.2073 28.88 31.1873 30.12 29.8873 30.98C28.6073 31.82 27.1473 32.24 25.5073 32.24ZM25.5073 29.57C27.1873 29.57 28.5273 28.88 29.5273 27.5C30.5473 26.12 31.0573 24.12 31.0573 21.5C31.0573 18.88 30.5473 16.88 29.5273 15.5C28.5273 14.12 27.1873 13.43 25.5073 13.43C23.8073 13.43 22.4473 14.12 21.4273 15.5C20.4273 16.88 19.9273 18.88 19.9273 21.5C19.9273 24.12 20.4273 26.12 21.4273 27.5C22.4473 28.88 23.8073 29.57 25.5073 29.57ZM43.3592 11V32H40.3892V13.61H35.6492V11H43.3592Z" fill="white"/>
</svg>
