<svg width="71" height="42" viewBox="0 0 71 42" fill="none" xmlns="http://www.w3.org/2000/svg">
<rect width="71" height="42" fill="#2A3040"/>
<path d="M25.4809 32.24C23.8209 32.24 22.3409 31.82 21.0409 30.98C19.7609 30.12 18.7509 28.88 18.0109 27.26C17.2709 25.64 16.9009 23.72 16.9009 21.5C16.9009 19.28 17.2709 17.36 18.0109 15.74C18.7509 14.12 19.7609 12.89 21.0409 12.05C22.3409 11.19 23.8209 10.76 25.4809 10.76C27.1209 10.76 28.5809 11.19 29.8609 12.05C31.1609 12.89 32.1809 14.12 32.9209 15.74C33.6609 17.36 34.0309 19.28 34.0309 21.5C34.0309 23.72 33.6609 25.64 32.9209 27.26C32.1809 28.88 31.1609 30.12 29.8609 30.98C28.5809 31.82 27.1209 32.24 25.4809 32.24ZM25.4809 29.57C27.1609 29.57 28.5009 28.88 29.5009 27.5C30.5209 26.12 31.0309 24.12 31.0309 21.5C31.0309 18.88 30.5209 16.88 29.5009 15.5C28.5009 14.12 27.1609 13.43 25.4809 13.43C23.7809 13.43 22.4209 14.12 21.4009 15.5C20.4009 16.88 19.9009 18.88 19.9009 21.5C19.9009 24.12 20.4009 26.12 21.4009 27.5C22.4209 28.88 23.7809 29.57 25.4809 29.57ZM55.1807 26.84H51.1907V32H48.2807V26.84H36.6107V24.74L47.3507 11H50.5907L40.3007 24.26H48.3707V19.7H51.1907V24.26H55.1807V26.84Z" fill="white"/>
</svg>
