<svg width="68" height="42" viewBox="0 0 68 42" fill="none" xmlns="http://www.w3.org/2000/svg">
<rect width="68" height="42" fill="#2A3040"/>
<path d="M25.4018 32.24C23.7418 32.24 22.2618 31.82 20.9618 30.98C19.6818 30.12 18.6718 28.88 17.9318 27.26C17.1918 25.64 16.8218 23.72 16.8218 21.5C16.8218 19.28 17.1918 17.36 17.9318 15.74C18.6718 14.12 19.6818 12.89 20.9618 12.05C22.2618 11.19 23.7418 10.76 25.4018 10.76C27.0418 10.76 28.5018 11.19 29.7818 12.05C31.0818 12.89 32.1018 14.12 32.8418 15.74C33.5818 17.36 33.9518 19.28 33.9518 21.5C33.9518 23.72 33.5818 25.64 32.8418 27.26C32.1018 28.88 31.0818 30.12 29.7818 30.98C28.5018 31.82 27.0418 32.24 25.4018 32.24ZM25.4018 29.57C27.0818 29.57 28.4218 28.88 29.4218 27.5C30.4418 26.12 30.9518 24.12 30.9518 21.5C30.9518 18.88 30.4418 16.88 29.4218 15.5C28.4218 14.12 27.0818 13.43 25.4018 13.43C23.7018 13.43 22.3418 14.12 21.3218 15.5C20.3218 16.88 19.8218 18.88 19.8218 21.5C19.8218 24.12 20.3218 26.12 21.3218 27.5C22.3418 28.88 23.7018 29.57 25.4018 29.57ZM42.8316 19.37C45.8316 19.37 48.0316 19.94 49.4316 21.08C50.8516 22.2 51.5616 23.74 51.5616 25.7C51.5616 26.94 51.2616 28.06 50.6616 29.06C50.0816 30.04 49.1916 30.82 47.9916 31.4C46.8116 31.96 45.3516 32.24 43.6116 32.24C42.1316 32.24 40.7016 32.02 39.3216 31.58C37.9416 31.12 36.8016 30.49 35.9016 29.69L37.2816 27.32C38.0016 28 38.9216 28.55 40.0416 28.97C41.1616 29.37 42.3416 29.57 43.5816 29.57C45.1616 29.57 46.3816 29.24 47.2416 28.58C48.1216 27.9 48.5616 26.98 48.5616 25.82C48.5616 24.56 48.0816 23.61 47.1216 22.97C46.1616 22.31 44.5216 21.98 42.2016 21.98H37.4316L38.5416 11H50.3916V13.61H41.0616L40.4916 19.37H42.8316Z" fill="white"/>
</svg>
