<svg width="297" height="113" viewBox="0 0 297 113" fill="none" xmlns="http://www.w3.org/2000/svg">
<g clip-path="url(#clip0_2_422)">
<path d="M164.883 18.3871C164.695 18.3871 164.506 18.3319 164.343 18.2226C164.026 18.0097 163.865 17.6323 163.928 17.2558L164.564 13.5484H161.979C160.379 13.5484 159.076 12.2458 159.076 10.6452V2.90323C159.076 1.30258 160.379 0 161.979 0H175.528C177.128 0 178.431 1.30258 178.431 2.90323V10.6452C178.431 12.2458 177.128 13.5484 175.528 13.5484H172.902L165.396 18.24C165.239 18.3377 165.061 18.3871 164.883 18.3871Z" fill="white"/>
<path d="M128.178 40.7135L130.681 38.2111L124.875 32.405L122.372 34.9074L128.178 40.7135Z" fill="white"/>
<path d="M143.71 56.2471L146.495 53.6951L140.689 47.8887L137.886 50.4232L143.71 56.2471Z" fill="white"/>
<path d="M164.952 45.5361C164.169 43.1893 162.172 41.457 159.737 41.0138L153.27 39.837V39.3358C154.395 38.6825 155.375 37.8087 156.155 36.7741H158.108C159.709 36.7741 161.012 35.4716 161.012 33.8709V22.258C161.012 15.3212 155.368 9.67737 148.431 9.67737C141.494 9.67737 135.85 15.3212 135.85 22.258V29.0322C135.85 30.898 137.177 32.459 138.936 32.8229C139.479 35.6041 141.217 37.9577 143.592 39.3358V39.837L137.124 41.0138C134.69 41.457 132.692 43.1893 131.91 45.5361L131.523 46.6983L128.226 43.4022C127.849 43.0248 127.849 42.4103 128.226 42.0329L132.049 38.2112L124.874 31.0364L120.554 35.3564C119.275 36.6358 118.57 38.337 118.57 40.1467C118.57 41.9564 119.275 43.6567 120.554 44.9361L133.633 58.0151C134.913 59.2945 136.614 60 138.424 60C140.233 60 141.934 59.2945 143.183 58.0441L147.897 53.7251L146.427 52.258H167.193L164.952 45.5361ZM148.431 43.1477L145.528 40.2445V40.199C146.445 40.4874 147.42 40.6451 148.431 40.6451C149.442 40.6451 150.417 40.4874 151.334 40.199V40.2445L148.431 43.1477ZM158.108 34.8387H157.295C157.575 34.199 157.788 33.5245 157.925 32.8229C158.34 32.7367 158.721 32.5722 159.076 32.3651V33.8709C159.076 34.4051 158.642 34.8387 158.108 34.8387ZM158.108 27.3658C158.684 27.7016 159.076 28.319 159.076 29.0322C159.076 29.7454 158.684 30.3629 158.108 30.6987V27.3658ZM137.786 29.0322C137.786 28.319 138.178 27.7016 138.754 27.3658V30.6987C138.178 30.3629 137.786 29.7454 137.786 29.0322ZM138.754 24.1935V25.2987C138.409 25.3887 138.086 25.5241 137.786 25.6993V22.258C137.786 16.3887 142.562 11.6129 148.431 11.6129C154.3 11.6129 159.076 16.3887 159.076 22.258V25.6993C158.776 25.5241 158.453 25.3877 158.108 25.2987V24.1935H157.141C154.279 24.1935 151.589 23.0787 149.564 21.0551L148.431 19.9219L147.298 21.0551C145.273 23.0787 142.583 24.1935 139.721 24.1935H138.754ZM140.689 30.9677V26.0922C143.595 25.8735 146.305 24.6745 148.431 22.6529C150.557 24.6745 153.267 25.8745 156.173 26.0922V30.9677C156.173 32.3787 155.788 33.6987 155.126 34.8387H148.431V36.7741H153.535C152.17 37.9751 150.387 38.7096 148.431 38.7096C144.162 38.7096 140.689 35.2364 140.689 30.9677ZM129.311 38.2112L128.26 39.2622L123.822 34.8241L124.873 33.7732L129.311 38.2112ZM138.422 58.0645C137.13 58.0645 135.914 57.5603 135 56.6467L121.921 43.5687C121.007 42.6551 120.504 41.4396 120.504 40.1477C120.504 38.8548 121.007 37.6393 121.921 36.7258L122.453 36.1935L126.891 40.6316L126.856 40.6664C125.725 41.7987 125.725 43.6403 126.856 44.7725L133.796 51.7122C134.345 52.26 135.073 52.5629 135.849 52.5629C136.625 52.5629 137.354 52.2609 137.867 51.7461L137.94 51.6812L142.398 56.1396L141.843 56.6487C140.929 57.5603 139.714 58.0645 138.422 58.0645ZM143.826 54.8293L139.378 50.3806L140.656 49.2251L145.097 53.6661L143.826 54.8293ZM144.491 50.3225L140.722 46.5532L136.534 50.3419C136.169 50.7087 135.531 50.7087 135.165 50.3419L133.052 48.2283L133.745 46.1477C134.303 44.4716 135.73 43.2338 137.469 42.9164L144.234 41.6874L148.431 45.8845L152.627 41.6883L159.391 42.9174C161.13 43.2348 162.557 44.4716 163.115 46.1487L164.508 50.3225H144.491Z" fill="#2A3040"/>
<path d="M174.56 3.87097H162.947V5.80646H174.56V3.87097Z" fill="#2A3040"/>
<path d="M170.689 7.74194H162.947V9.67743H170.689V7.74194Z" fill="#2A3040"/>
<path d="M174.56 7.74194H172.624V9.67743H174.56V7.74194Z" fill="#2A3040"/>
<path d="M127.639 24.0551L126.643 22.3955L124.02 23.969C126.763 12.808 136.799 4.83868 148.431 4.83868C150.973 4.83868 153.481 5.2161 155.886 5.96126L156.459 4.11288C153.868 3.30965 151.167 2.9032 148.431 2.9032C135.786 2.9032 124.894 11.6497 122.063 23.85L120.229 20.7929L118.569 21.7887L121.971 27.4567L127.639 24.0551Z" fill="#2A3040"/>
<path d="M177.962 21.4287L172.293 18.0271L168.892 23.6952L170.552 24.691L172.245 21.8681C173.136 24.4761 173.592 27.2042 173.592 30C173.592 35.7552 171.599 41.3816 167.98 45.8419L169.483 47.0613C173.381 42.2574 175.528 36.1974 175.528 30C175.528 27.0397 175.051 24.149 174.121 21.3813L176.965 23.0874L177.962 21.4287Z" fill="#2A3040"/>
</g>
<path d="M107.111 84.192C107.868 84.3733 108.439 84.6987 108.823 85.168C109.217 85.6267 109.415 86.2187 109.415 86.944C109.415 87.9147 109.057 88.6667 108.343 89.2C107.639 89.7333 106.609 90 105.255 90H100.135V78.8H104.951C106.177 78.8 107.132 79.0507 107.815 79.552C108.508 80.0427 108.855 80.752 108.855 81.68C108.855 82.288 108.7 82.8053 108.391 83.232C108.092 83.6587 107.665 83.9787 107.111 84.192ZM101.719 83.728H104.839C105.617 83.728 106.209 83.5733 106.615 83.264C107.031 82.9547 107.239 82.5013 107.239 81.904C107.239 81.3067 107.031 80.8533 106.615 80.544C106.199 80.224 105.607 80.064 104.839 80.064H101.719V83.728ZM105.223 88.736C106.94 88.736 107.799 88.096 107.799 86.816C107.799 86.176 107.58 85.7067 107.143 85.408C106.716 85.0987 106.076 84.944 105.223 84.944H101.719V88.736H105.223ZM114.856 81.44C116.029 81.44 116.925 81.728 117.544 82.304C118.173 82.88 118.488 83.7387 118.488 84.88V90H117.032V88.88C116.776 89.2747 116.408 89.5787 115.928 89.792C115.458 89.9947 114.898 90.096 114.248 90.096C113.298 90.096 112.536 89.8667 111.96 89.408C111.394 88.9493 111.112 88.3467 111.112 87.6C111.112 86.8533 111.384 86.256 111.928 85.808C112.472 85.3493 113.336 85.12 114.52 85.12H116.952V84.816C116.952 84.1547 116.76 83.648 116.376 83.296C115.992 82.944 115.426 82.768 114.68 82.768C114.178 82.768 113.688 82.8533 113.208 83.024C112.728 83.184 112.322 83.4027 111.992 83.68L111.352 82.528C111.789 82.176 112.312 81.9093 112.92 81.728C113.528 81.536 114.173 81.44 114.856 81.44ZM114.504 88.912C115.09 88.912 115.597 88.784 116.024 88.528C116.45 88.2613 116.76 87.888 116.952 87.408V86.224H114.584C113.282 86.224 112.632 86.6613 112.632 87.536C112.632 87.9627 112.797 88.2987 113.128 88.544C113.458 88.7893 113.917 88.912 114.504 88.912ZM133.334 81.52V90H121.254V81.52H122.79V88.656H126.534V81.52H128.07V88.656H131.798V81.52H133.334ZM145.205 85.584C145.77 85.7333 146.208 85.9733 146.517 86.304C146.826 86.6347 146.981 87.0453 146.981 87.536C146.981 88.0373 146.81 88.4853 146.469 88.88C146.128 89.264 145.653 89.568 145.045 89.792C144.448 90.0053 143.776 90.112 143.029 90.112C142.4 90.112 141.781 90.032 141.173 89.872C140.576 89.7013 140.042 89.4613 139.573 89.152L140.037 87.984C140.442 88.24 140.906 88.4427 141.429 88.592C141.952 88.7307 142.48 88.8 143.013 88.8C143.738 88.8 144.314 88.6773 144.741 88.432C145.178 88.176 145.397 87.8347 145.397 87.408C145.397 87.0133 145.221 86.7093 144.869 86.496C144.528 86.2827 144.042 86.176 143.413 86.176H141.861V85.072H143.301C143.877 85.072 144.33 84.9707 144.661 84.768C144.992 84.5653 145.157 84.288 145.157 83.936C145.157 83.552 144.96 83.2533 144.565 83.04C144.181 82.8267 143.658 82.72 142.997 82.72C142.154 82.72 141.264 82.9387 140.325 83.376L139.909 82.192C140.944 81.6693 142.026 81.408 143.157 81.408C143.84 81.408 144.453 81.504 144.997 81.696C145.541 81.888 145.968 82.16 146.277 82.512C146.586 82.864 146.741 83.264 146.741 83.712C146.741 84.128 146.602 84.5013 146.325 84.832C146.048 85.1627 145.674 85.4133 145.205 85.584ZM155.092 85.6C156.191 85.8773 156.74 86.5653 156.74 87.664C156.74 88.4107 156.457 88.9867 155.892 89.392C155.337 89.7973 154.505 90 153.396 90H149.316V81.52H153.252C154.255 81.52 155.039 81.712 155.604 82.096C156.169 82.4693 156.452 83.0027 156.452 83.696C156.452 84.144 156.329 84.5333 156.084 84.864C155.849 85.184 155.519 85.4293 155.092 85.6ZM150.82 85.168H153.124C153.711 85.168 154.153 85.0613 154.452 84.848C154.761 84.6347 154.916 84.3253 154.916 83.92C154.916 83.1093 154.319 82.704 153.124 82.704H150.82V85.168ZM153.284 88.816C153.924 88.816 154.404 88.7147 154.724 88.512C155.044 88.3093 155.204 87.9947 155.204 87.568C155.204 87.1307 155.055 86.8053 154.756 86.592C154.468 86.3787 154.009 86.272 153.38 86.272H150.82V88.816H153.284ZM162.776 90.096C161.934 90.096 161.176 89.9093 160.504 89.536C159.832 89.1627 159.304 88.6507 158.92 88C158.547 87.3387 158.36 86.592 158.36 85.76C158.36 84.928 158.547 84.1867 158.92 83.536C159.304 82.8747 159.832 82.3627 160.504 82C161.176 81.6267 161.934 81.44 162.776 81.44C163.619 81.44 164.371 81.6267 165.032 82C165.704 82.3627 166.227 82.8747 166.6 83.536C166.984 84.1867 167.176 84.928 167.176 85.76C167.176 86.592 166.984 87.3387 166.6 88C166.227 88.6507 165.704 89.1627 165.032 89.536C164.371 89.9093 163.619 90.096 162.776 90.096ZM162.776 88.752C163.32 88.752 163.806 88.6293 164.232 88.384C164.67 88.128 165.011 87.776 165.256 87.328C165.502 86.8693 165.624 86.3467 165.624 85.76C165.624 85.1733 165.502 84.656 165.256 84.208C165.011 83.7493 164.67 83.3973 164.232 83.152C163.806 82.9067 163.32 82.784 162.776 82.784C162.232 82.784 161.742 82.9067 161.304 83.152C160.878 83.3973 160.536 83.7493 160.28 84.208C160.035 84.656 159.912 85.1733 159.912 85.76C159.912 86.3467 160.035 86.8693 160.28 87.328C160.536 87.776 160.878 88.128 161.304 88.384C161.742 88.6293 162.232 88.752 162.776 88.752ZM169.394 81.52H170.93V85.12H175.762V81.52H177.298V90H175.762V86.448H170.93V90H169.394V81.52ZM183.917 90.096C183.074 90.096 182.317 89.9093 181.645 89.536C180.973 89.1627 180.445 88.6507 180.061 88C179.688 87.3387 179.501 86.592 179.501 85.76C179.501 84.928 179.688 84.1867 180.061 83.536C180.445 82.8747 180.973 82.3627 181.645 82C182.317 81.6267 183.074 81.44 183.917 81.44C184.76 81.44 185.512 81.6267 186.173 82C186.845 82.3627 187.368 82.8747 187.741 83.536C188.125 84.1867 188.317 84.928 188.317 85.76C188.317 86.592 188.125 87.3387 187.741 88C187.368 88.6507 186.845 89.1627 186.173 89.536C185.512 89.9093 184.76 90.096 183.917 90.096ZM183.917 88.752C184.461 88.752 184.946 88.6293 185.373 88.384C185.81 88.128 186.152 87.776 186.397 87.328C186.642 86.8693 186.765 86.3467 186.765 85.76C186.765 85.1733 186.642 84.656 186.397 84.208C186.152 83.7493 185.81 83.3973 185.373 83.152C184.946 82.9067 184.461 82.784 183.917 82.784C183.373 82.784 182.882 82.9067 182.445 83.152C182.018 83.3973 181.677 83.7493 181.421 84.208C181.176 84.656 181.053 85.1733 181.053 85.76C181.053 86.3467 181.176 86.8693 181.421 87.328C181.677 87.776 182.018 88.128 182.445 88.384C182.882 88.6293 183.373 88.752 183.917 88.752ZM193.831 86.416H192.071V90H190.535V81.52H192.071V85.104H193.863L196.615 81.52H198.263L195.047 85.6L198.487 90H196.679L193.831 86.416Z" fill="#2A3040"/>
<defs>
<clipPath id="clip0_2_422">
<rect width="60" height="60" fill="white" transform="translate(118.5)"/>
</clipPath>
</defs>
</svg>
