<svg width="297" height="113" viewBox="0 0 297 113" fill="none" xmlns="http://www.w3.org/2000/svg">
<g clip-path="url(#clip0_2_473)">
<path d="M155.274 1.93542H168.823V9.67736H155.274V1.93542Z" fill="white"/>
<path d="M177.532 50.3225C177.532 52.9946 175.366 55.1612 172.694 55.1612C170.021 55.1612 167.855 52.9946 167.855 50.3225C167.855 47.6503 170.021 45.4838 172.694 45.4838C175.366 45.4838 177.532 47.6503 177.532 50.3225Z" fill="white"/>
<path d="M164.952 50.3225C164.952 52.9946 162.785 55.1612 160.113 55.1612C157.441 55.1612 155.274 52.9946 155.274 50.3225C155.274 47.6503 157.441 45.4838 160.113 45.4838C162.785 45.4838 164.952 47.6503 164.952 50.3225Z" fill="white"/>
<path d="M152.371 50.3225C152.371 52.9946 150.204 55.1612 147.532 55.1612C144.86 55.1612 142.694 52.9946 142.694 50.3225C142.694 47.6503 144.86 45.4838 147.532 45.4838C150.204 45.4838 152.371 47.6503 152.371 50.3225Z" fill="white"/>
<path d="M146.565 49.3549H148.5V51.2903H146.565V49.3549Z" fill="#2A3040"/>
<path d="M159.145 49.3549H161.081V51.2903H159.145V49.3549Z" fill="#2A3040"/>
<path d="M171.726 49.3549H173.661V51.2903H171.726V49.3549Z" fill="#2A3040"/>
<path d="M172.694 44.5161H138.28L138.082 43.1373C137.905 41.8983 136.943 40.9258 135.747 40.6976L132.662 26.0449L130.768 26.4437L133.759 40.6452H126.145L124.868 28.5134L122.944 28.7157L124.213 40.7718C123.145 41.0856 122.307 41.9933 122.144 43.1373L120.563 54.1935H120.435C119.368 54.1935 118.5 55.0616 118.5 56.129V58.0645C118.5 59.132 119.368 60 120.435 60H139.79C140.858 60 141.726 59.132 141.726 58.0645V56.129H172.694C175.896 56.129 178.5 53.5249 178.5 50.3226C178.5 47.1202 175.896 44.5161 172.694 44.5161ZM122.796 52.2581H134.952V50.3226H123.073L124.06 43.4109C124.126 42.9379 124.539 42.5806 125.017 42.5806H135.208C135.686 42.5806 136.098 42.9379 136.165 43.4109L137.707 54.1935H122.519L122.796 52.2581ZM139.792 58.0645H120.435V56.129H139.79L139.792 58.0645ZM172.694 54.1935H139.663L138.557 46.4516H172.694C174.828 46.4516 176.565 48.1877 176.565 50.3226C176.565 52.4575 174.828 54.1935 172.694 54.1935Z" fill="#2A3040"/>
<path d="M175.597 0H148.5C146.899 0 145.597 1.30277 145.597 2.90323V16.797C144.984 16.5801 144.335 16.4516 143.661 16.4516C141.947 16.4516 140.41 17.2025 139.345 18.3871H132.36V20.3226H138.194C137.979 20.9293 137.855 21.5786 137.855 22.2581C137.855 22.9376 137.979 23.5868 138.194 24.1935H132.36V26.129H139.345C140.409 27.3137 141.946 28.0645 143.661 28.0645C144.335 28.0645 144.984 27.936 145.597 27.7191V30C145.597 31.6005 146.899 32.9032 148.5 32.9032H175.597C177.197 32.9032 178.5 31.6005 178.5 30V2.90323C178.5 1.30277 177.197 0 175.597 0ZM147.532 23.2258V21.2903H161.081L161.082 23.2258H147.532ZM139.79 22.2581C139.79 20.1232 141.526 18.3871 143.661 18.3871C144.767 18.3871 145.792 18.8634 146.514 19.6521C145.965 19.9937 145.597 20.5976 145.597 21.2903V23.2258C145.597 23.9185 145.965 24.5224 146.514 24.8641C145.793 25.6527 144.767 26.129 143.661 26.129C141.526 26.129 139.79 24.393 139.79 22.2581ZM176.564 30C176.564 30.534 176.131 30.9677 175.597 30.9677H148.5C147.966 30.9677 147.532 30.534 147.532 30V26.5831C147.984 26.1791 148.367 25.6976 148.678 25.1613H161.081C162.148 25.1613 163.016 24.2933 163.016 23.2258V21.2903C163.016 20.2229 162.148 19.3548 161.081 19.3548H148.678C148.367 18.8176 147.984 18.338 147.532 17.933V2.90323C147.532 2.36927 147.966 1.93548 148.5 1.93548H175.597C176.131 1.93548 176.564 2.36927 176.564 2.90323V30Z" fill="#2A3040"/>
<path d="M166.887 27.0968H174.629V29.0323H166.887V27.0968Z" fill="#2A3040"/>
<path d="M166.887 23.2258H174.629V25.1613H166.887V23.2258Z" fill="#2A3040"/>
<path d="M126.242 30C121.973 30 118.5 26.5269 118.5 22.258C118.5 17.9892 121.973 14.5161 126.242 14.5161C130.511 14.5161 133.984 17.9892 133.984 22.258C133.984 26.5269 130.511 30 126.242 30ZM126.242 19.3548C124.641 19.3548 123.339 20.6576 123.339 22.258C123.339 23.8585 124.641 25.1613 126.242 25.1613C127.842 25.1613 129.145 23.8585 129.145 22.258C129.145 20.6576 127.842 19.3548 126.242 19.3548Z" fill="white"/>
<path d="M126.242 26.129C124.107 26.129 122.371 24.3929 122.371 22.2581C122.371 20.1232 124.107 18.3871 126.242 18.3871C128.377 18.3871 130.113 20.1232 130.113 22.2581C130.113 24.3929 128.377 26.129 126.242 26.129ZM126.242 20.3226C125.174 20.3226 124.306 21.1906 124.306 22.2581C124.306 23.3255 125.174 24.1935 126.242 24.1935C127.309 24.1935 128.177 23.3255 128.177 22.2581C128.177 21.1906 127.309 20.3226 126.242 20.3226Z" fill="#2A3040"/>
</g>
<path d="M82.9471 78.8H84.5311V87.44L91.1551 78.8H92.6271V90H91.0591V81.376L84.4191 90H82.9471V78.8ZM100.455 85.584C101.02 85.7333 101.458 85.9733 101.767 86.304C102.076 86.6347 102.231 87.0453 102.231 87.536C102.231 88.0373 102.06 88.4853 101.719 88.88C101.378 89.264 100.903 89.568 100.295 89.792C99.6977 90.0053 99.0257 90.112 98.279 90.112C97.6497 90.112 97.031 90.032 96.423 89.872C95.8257 89.7013 95.2923 89.4613 94.823 89.152L95.287 87.984C95.6923 88.24 96.1563 88.4427 96.679 88.592C97.2017 88.7307 97.7297 88.8 98.263 88.8C98.9883 88.8 99.5643 88.6773 99.991 88.432C100.428 88.176 100.647 87.8347 100.647 87.408C100.647 87.0133 100.471 86.7093 100.119 86.496C99.7777 86.2827 99.2923 86.176 98.663 86.176H97.111V85.072H98.551C99.127 85.072 99.5803 84.9707 99.911 84.768C100.242 84.5653 100.407 84.288 100.407 83.936C100.407 83.552 100.21 83.2533 99.815 83.04C99.431 82.8267 98.9083 82.72 98.247 82.72C97.4043 82.72 96.5137 82.9387 95.575 83.376L95.159 82.192C96.1937 81.6693 97.2763 81.408 98.407 81.408C99.0897 81.408 99.703 81.504 100.247 81.696C100.791 81.888 101.218 82.16 101.527 82.512C101.836 82.864 101.991 83.264 101.991 83.712C101.991 84.128 101.852 84.5013 101.575 84.832C101.298 85.1627 100.924 85.4133 100.455 85.584ZM110.806 82.864H106.102V90H104.566V81.52H110.806V82.864ZM115.636 90.096C114.793 90.096 114.036 89.9093 113.364 89.536C112.692 89.1627 112.164 88.6507 111.78 88C111.406 87.3387 111.22 86.592 111.22 85.76C111.22 84.928 111.406 84.1867 111.78 83.536C112.164 82.8747 112.692 82.3627 113.364 82C114.036 81.6267 114.793 81.44 115.636 81.44C116.478 81.44 117.23 81.6267 117.892 82C118.564 82.3627 119.086 82.8747 119.46 83.536C119.844 84.1867 120.036 84.928 120.036 85.76C120.036 86.592 119.844 87.3387 119.46 88C119.086 88.6507 118.564 89.1627 117.892 89.536C117.23 89.9093 116.478 90.096 115.636 90.096ZM115.636 88.752C116.18 88.752 116.665 88.6293 117.092 88.384C117.529 88.128 117.87 87.776 118.116 87.328C118.361 86.8693 118.484 86.3467 118.484 85.76C118.484 85.1733 118.361 84.656 118.116 84.208C117.87 83.7493 117.529 83.3973 117.092 83.152C116.665 82.9067 116.18 82.784 115.636 82.784C115.092 82.784 114.601 82.9067 114.164 83.152C113.737 83.3973 113.396 83.7493 113.14 84.208C112.894 84.656 112.772 85.1733 112.772 85.76C112.772 86.3467 112.894 86.8693 113.14 87.328C113.396 87.776 113.737 88.128 114.164 88.384C114.601 88.6293 115.092 88.752 115.636 88.752ZM128.261 82.864H125.157V90H123.621V82.864H120.517V81.52H128.261V82.864ZM133.089 90.096C132.246 90.096 131.489 89.9093 130.817 89.536C130.145 89.1627 129.617 88.6507 129.233 88C128.859 87.3387 128.673 86.592 128.673 85.76C128.673 84.928 128.859 84.1867 129.233 83.536C129.617 82.8747 130.145 82.3627 130.817 82C131.489 81.6267 132.246 81.44 133.089 81.44C133.931 81.44 134.683 81.6267 135.345 82C136.017 82.3627 136.539 82.8747 136.913 83.536C137.297 84.1867 137.489 84.928 137.489 85.76C137.489 86.592 137.297 87.3387 136.913 88C136.539 88.6507 136.017 89.1627 135.345 89.536C134.683 89.9093 133.931 90.096 133.089 90.096ZM133.089 88.752C133.633 88.752 134.118 88.6293 134.545 88.384C134.982 88.128 135.323 87.776 135.569 87.328C135.814 86.8693 135.937 86.3467 135.937 85.76C135.937 85.1733 135.814 84.656 135.569 84.208C135.323 83.7493 134.982 83.3973 134.545 83.152C134.118 82.9067 133.633 82.784 133.089 82.784C132.545 82.784 132.054 82.9067 131.617 83.152C131.19 83.3973 130.849 83.7493 130.593 84.208C130.347 84.656 130.225 85.1733 130.225 85.76C130.225 86.3467 130.347 86.8693 130.593 87.328C130.849 87.776 131.19 88.128 131.617 88.384C132.054 88.6293 132.545 88.752 133.089 88.752ZM145.483 85.6C146.581 85.8773 147.131 86.5653 147.131 87.664C147.131 88.4107 146.848 88.9867 146.283 89.392C145.728 89.7973 144.896 90 143.787 90H139.707V81.52H143.643C144.645 81.52 145.429 81.712 145.995 82.096C146.56 82.4693 146.843 83.0027 146.843 83.696C146.843 84.144 146.72 84.5333 146.475 84.864C146.24 85.184 145.909 85.4293 145.483 85.6ZM141.211 85.168H143.515C144.101 85.168 144.544 85.0613 144.843 84.848C145.152 84.6347 145.307 84.3253 145.307 83.92C145.307 83.1093 144.709 82.704 143.515 82.704H141.211V85.168ZM143.675 88.816C144.315 88.816 144.795 88.7147 145.115 88.512C145.435 88.3093 145.595 87.9947 145.595 87.568C145.595 87.1307 145.445 86.8053 145.147 86.592C144.859 86.3787 144.4 86.272 143.771 86.272H141.211V88.816H143.675ZM156.815 81.52V90H155.279V82.864H151.631L151.535 84.752C151.482 85.8933 151.38 86.848 151.231 87.616C151.082 88.3733 150.836 88.9813 150.495 89.44C150.154 89.8987 149.679 90.128 149.071 90.128C148.794 90.128 148.479 90.08 148.127 89.984L148.223 88.688C148.362 88.72 148.49 88.736 148.607 88.736C149.034 88.736 149.354 88.5493 149.567 88.176C149.78 87.8027 149.919 87.36 149.983 86.848C150.047 86.336 150.106 85.6053 150.159 84.656L150.303 81.52H156.815ZM167.449 85.808C167.449 85.9253 167.438 86.08 167.417 86.272H160.537C160.633 87.0187 160.958 87.6213 161.513 88.08C162.078 88.528 162.777 88.752 163.609 88.752C164.622 88.752 165.438 88.4107 166.057 87.728L166.905 88.72C166.521 89.168 166.041 89.5093 165.465 89.744C164.9 89.9787 164.265 90.096 163.561 90.096C162.665 90.096 161.87 89.9147 161.177 89.552C160.484 89.1787 159.945 88.6613 159.561 88C159.188 87.3387 159.001 86.592 159.001 85.76C159.001 84.9387 159.182 84.1973 159.545 83.536C159.918 82.8747 160.425 82.3627 161.065 82C161.716 81.6267 162.446 81.44 163.257 81.44C164.068 81.44 164.788 81.6267 165.417 82C166.057 82.3627 166.553 82.8747 166.905 83.536C167.268 84.1973 167.449 84.9547 167.449 85.808ZM163.257 82.736C162.521 82.736 161.902 82.96 161.401 83.408C160.91 83.856 160.622 84.4427 160.537 85.168H165.977C165.892 84.4533 165.598 83.872 165.097 83.424C164.606 82.9653 163.993 82.736 163.257 82.736ZM169.832 81.52H171.368V85.12H176.2V81.52H177.736V90H176.2V86.448H171.368V90H169.832V81.52ZM180.722 81.52H182.258V87.696L187.458 81.52H188.85V90H187.314V83.824L182.13 90H180.722V81.52ZM199.496 85.808C199.496 85.9253 199.485 86.08 199.464 86.272H192.584C192.68 87.0187 193.005 87.6213 193.56 88.08C194.125 88.528 194.824 88.752 195.656 88.752C196.669 88.752 197.485 88.4107 198.104 87.728L198.952 88.72C198.568 89.168 198.088 89.5093 197.512 89.744C196.946 89.9787 196.312 90.096 195.608 90.096C194.712 90.096 193.917 89.9147 193.224 89.552C192.53 89.1787 191.992 88.6613 191.608 88C191.234 87.3387 191.048 86.592 191.048 85.76C191.048 84.9387 191.229 84.1973 191.592 83.536C191.965 82.8747 192.472 82.3627 193.112 82C193.762 81.6267 194.493 81.44 195.304 81.44C196.114 81.44 196.834 81.6267 197.464 82C198.104 82.3627 198.6 82.8747 198.952 83.536C199.314 84.1973 199.496 84.9547 199.496 85.808ZM195.304 82.736C194.568 82.736 193.949 82.96 193.448 83.408C192.957 83.856 192.669 84.4427 192.584 85.168H198.024C197.938 84.4533 197.645 83.872 197.144 83.424C196.653 82.9653 196.04 82.736 195.304 82.736ZM206.176 81.52H207.712V87.696L212.911 81.52H214.304V90H212.767V83.824L207.584 90H206.176V81.52ZM127.366 100.52V109H125.974V102.808L122.806 108.04H122.134L118.998 102.792V109H117.59V100.52H119.174L122.502 106.248L125.926 100.52H127.366ZM133.987 109.096C133.145 109.096 132.387 108.909 131.715 108.536C131.043 108.163 130.515 107.651 130.131 107C129.758 106.339 129.571 105.592 129.571 104.76C129.571 103.928 129.758 103.187 130.131 102.536C130.515 101.875 131.043 101.363 131.715 101C132.387 100.627 133.145 100.44 133.987 100.44C134.83 100.44 135.582 100.627 136.243 101C136.915 101.363 137.438 101.875 137.811 102.536C138.195 103.187 138.387 103.928 138.387 104.76C138.387 105.592 138.195 106.339 137.811 107C137.438 107.651 136.915 108.163 136.243 108.536C135.582 108.909 134.83 109.096 133.987 109.096ZM133.987 107.752C134.531 107.752 135.017 107.629 135.443 107.384C135.881 107.128 136.222 106.776 136.467 106.328C136.713 105.869 136.835 105.347 136.835 104.76C136.835 104.173 136.713 103.656 136.467 103.208C136.222 102.749 135.881 102.397 135.443 102.152C135.017 101.907 134.531 101.784 133.987 101.784C133.443 101.784 132.953 101.907 132.515 102.152C132.089 102.397 131.747 102.749 131.491 103.208C131.246 103.656 131.123 104.173 131.123 104.76C131.123 105.347 131.246 105.869 131.491 106.328C131.747 106.776 132.089 107.128 132.515 107.384C132.953 107.629 133.443 107.752 133.987 107.752ZM140.605 100.52H142.141V104.12H146.973V100.52H148.509V109H146.973V105.448H142.141V109H140.605V100.52ZM157.816 101.864H154.712V109H153.176V101.864H150.072V100.52H157.816V101.864ZM162.41 100.44C163.584 100.44 164.48 100.728 165.098 101.304C165.728 101.88 166.042 102.739 166.042 103.88V109H164.586V107.88C164.33 108.275 163.962 108.579 163.482 108.792C163.013 108.995 162.453 109.096 161.802 109.096C160.853 109.096 160.09 108.867 159.514 108.408C158.949 107.949 158.666 107.347 158.666 106.6C158.666 105.853 158.938 105.256 159.482 104.808C160.026 104.349 160.89 104.12 162.074 104.12H164.506V103.816C164.506 103.155 164.314 102.648 163.93 102.296C163.546 101.944 162.981 101.768 162.234 101.768C161.733 101.768 161.242 101.853 160.762 102.024C160.282 102.184 159.877 102.403 159.546 102.68L158.906 101.528C159.344 101.176 159.866 100.909 160.474 100.728C161.082 100.536 161.728 100.44 162.41 100.44ZM162.058 107.912C162.645 107.912 163.152 107.784 163.578 107.528C164.005 107.261 164.314 106.888 164.506 106.408V105.224H162.138C160.837 105.224 160.186 105.661 160.186 106.536C160.186 106.963 160.352 107.299 160.682 107.544C161.013 107.789 161.472 107.912 162.058 107.912ZM176.52 105.416H174.872V109H173.336V105.416H171.688L169.352 109H167.528L170.44 104.616L167.752 100.52H169.384L171.672 104.104H173.336V100.52H174.872V104.104H176.536L178.824 100.52H180.472L177.784 104.632L180.696 109H178.872L176.52 105.416Z" fill="#2A3040"/>
<defs>
<clipPath id="clip0_2_473">
<rect width="60" height="60" fill="white" transform="translate(118.5)"/>
</clipPath>
</defs>
</svg>
