<svg width="297" height="113" viewBox="0 0 297 113" fill="none" xmlns="http://www.w3.org/2000/svg">
<g clip-path="url(#clip0_2_493)">
<path d="M133.553 0L124.306 10.2738V19.3548H126.242V11.6129H135.919V1.93548H170.758V19.3548H172.693V0H133.553ZM127.447 9.67742L133.984 2.41463V9.67742H127.447Z" fill="#2A3040"/>
<path d="M137.855 3.87097H168.823V5.80646H137.855V3.87097Z" fill="#2A3040"/>
<path d="M137.855 7.74194H168.823V9.67743H137.855V7.74194Z" fill="#2A3040"/>
<path d="M148.5 21.2903C147.433 21.2903 146.565 20.4222 146.565 19.3548C146.565 18.2873 147.433 17.4193 148.5 17.4193C149.567 17.4193 150.435 18.2873 150.435 19.3548H152.371C152.371 17.5568 151.133 16.0537 149.468 15.6213V13.5483H147.532V15.6213C145.867 16.0537 144.629 17.5568 144.629 19.3548C144.629 21.4897 146.365 23.2258 148.5 23.2258C149.567 23.2258 150.435 24.0938 150.435 25.1612C150.435 26.2287 149.567 27.0967 148.5 27.0967C147.433 27.0967 146.565 26.2287 146.565 25.1612H144.629C144.629 26.9592 145.867 28.4623 147.532 28.8947V30.9677H149.468V28.8947C151.133 28.4623 152.371 26.9592 152.371 25.1612C152.371 23.0264 150.635 21.2903 148.5 21.2903Z" fill="#2A3040"/>
<path d="M164.952 28.9047L153.529 21.2904L164.952 13.676V17.4194H178.5V25.1613H164.952V28.9047Z" fill="white"/>
<path d="M132.048 28.9047V25.1613H118.5V17.4194H132.048V13.676L143.471 21.2904L132.048 28.9047Z" fill="white"/>
<path d="M176.565 27.0967L172.694 28.1921V25.1613H170.758V28.7402L161.797 31.2763L162.635 33.9579L150.569 34.7621C149.667 34.8221 148.8 35.0575 147.99 35.4619L145.919 36.4973C144.999 36.0512 143.994 35.8064 142.963 35.8064H136.148L131.596 33.5302L132.279 31.3424L126.242 29.1466V25.1613H124.306V28.443L120.606 27.0967H118.5V48.3871H126.953L127.46 46.763L131.55 49.2164L134.262 49.9228C134.085 50.3117 133.984 50.7327 133.984 51.1731C133.984 52.8029 135.282 54.1259 136.898 54.1826C136.955 55.7982 138.279 57.0967 139.908 57.0967C140.252 57.0967 140.589 57.0259 140.91 56.912C141.296 58.1363 142.428 59.0322 143.778 59.0322C144.423 59.0322 145.049 58.8125 145.565 58.4331L146.281 59.1494C146.829 59.698 147.558 60 148.334 60H148.5C149.753 60 150.813 59.1976 151.218 58.0839C151.764 58.6731 152.528 59.0322 153.339 59.0322C154.682 59.0322 155.804 58.1108 156.135 56.8704C156.474 57.007 156.835 57.0967 157.21 57.0967C158.553 57.0967 159.675 56.1753 160.006 54.9349C160.345 55.0715 160.706 55.1613 161.081 55.1613C162.681 55.1613 163.984 53.8585 163.984 52.258V51.9358C163.984 51.3116 163.778 50.693 163.402 50.194L163.082 49.7669L166.675 46.892L167.144 48.3871H178.5V27.0967H176.565ZM125.531 46.4516H120.435V29.0941L129.882 32.5285L125.531 46.4516ZM132.423 47.4831L128.056 44.8625L131.012 35.4019L135.691 37.7419H142.964C143.872 37.7419 144.759 37.9966 145.528 38.4772L150.791 41.766C151.174 42.0055 151.403 42.42 151.403 42.8726V43.2105C151.403 43.9306 150.818 44.5161 150.097 44.5161C149.86 44.5161 149.629 44.4523 149.426 44.3304L145.791 42.1501C144.342 41.2821 142.384 41.524 141.189 42.7172L135.622 48.2836L132.423 47.4831ZM149.468 57.0967C149.468 57.6298 149.034 58.0645 148.5 58.0645H148.334C148.079 58.0645 147.829 57.961 147.649 57.781L146.848 56.9796C146.665 56.7967 146.565 56.5529 146.565 56.2944V56.129C146.565 55.596 146.998 55.1613 147.532 55.1613H147.699C147.953 55.1613 148.203 55.2647 148.383 55.4448L149.184 56.2462C149.367 56.4291 149.468 56.6729 149.468 56.9314V57.0967ZM154.306 56.129C154.306 56.662 153.873 57.0967 153.339 57.0967C153.036 57.0967 152.747 56.9526 152.565 56.7097L150.629 54.1288C150.504 53.9624 150.435 53.756 150.435 53.548V53.2258C150.435 52.6928 150.869 52.258 151.403 52.258C151.706 52.258 151.995 52.4022 152.177 52.645L154.113 55.226C154.238 55.3923 154.306 55.5988 154.306 55.8067V56.129ZM158.177 54.1935C158.177 54.7265 157.744 55.1613 157.21 55.1613C156.907 55.1613 156.618 55.0171 156.436 54.7743L154.5 52.1933C154.375 52.027 154.306 51.8205 154.306 51.6126V51.2903C154.306 50.7573 154.74 50.3225 155.274 50.3225C155.577 50.3225 155.866 50.4667 156.048 50.7095L157.984 53.2905C158.109 53.4568 158.177 53.6633 158.177 53.8712V54.1935ZM162.048 52.258C162.048 52.791 161.615 53.2258 161.081 53.2258C160.778 53.2258 160.489 53.0817 160.307 52.8388L158.371 50.2578C158.246 50.0915 158.177 49.885 158.177 49.6771V49.3548C158.177 48.8218 158.611 48.3871 159.145 48.3871C159.448 48.3871 159.737 48.5312 159.919 48.7741L161.855 51.355C161.98 51.5214 162.048 51.7279 162.048 51.9358V52.258ZM161.921 48.2179L161.468 47.6131C160.923 46.8863 160.055 46.4516 159.145 46.4516C157.802 46.4516 156.679 47.373 156.349 48.6134C156.009 48.4768 155.649 48.3871 155.274 48.3871C153.931 48.3871 152.809 49.3085 152.478 50.5489C152.138 50.4123 151.778 50.3225 151.403 50.3225C149.803 50.3225 148.5 51.6253 148.5 53.2258V53.3515C148.242 53.2773 147.975 53.2258 147.699 53.2258H147.532C145.932 53.2258 144.629 54.5285 144.629 56.129V56.2944C144.629 56.4182 144.649 56.5382 144.665 56.6601L144.546 56.7792C144.344 56.9805 144.064 57.0967 143.778 57.0967C143.18 57.0967 142.694 56.61 142.694 56.0118C142.694 55.7217 142.806 55.4495 143.011 55.2444L147.249 51.0068L145.88 49.6383L140.675 54.8437C140.473 55.045 140.193 55.1613 139.908 55.1613C139.309 55.1613 138.823 54.6745 138.823 54.0763C138.823 53.7862 138.935 53.514 139.14 53.3089L144.346 48.1035L142.977 46.7351L137.772 51.9405C137.569 52.1418 137.29 52.258 137.004 52.258C136.406 52.258 135.919 51.7713 135.919 51.1731C135.919 50.883 136.032 50.6108 136.237 50.4057L142.557 44.0856C143.138 43.5049 144.092 43.3867 144.795 43.8097L148.429 45.9899C148.934 46.2919 149.51 46.4516 150.097 46.4516C151.884 46.4516 153.339 44.9981 153.339 43.2105V42.8726C153.339 41.7475 152.769 40.7198 151.815 40.1244L147.895 37.6753L148.855 37.1952C149.434 36.906 150.052 36.7373 150.697 36.6948L163.228 35.8598L166.056 44.9102L161.921 48.2179ZM176.565 46.4516H168.566L164.235 32.5937L176.565 29.071V46.4516Z" fill="#2A3040"/>
</g>
<path d="M94.1739 90.128C93.0539 90.128 92.0405 89.8827 91.1339 89.392C90.2379 88.8907 89.5339 88.208 89.0219 87.344C88.5099 86.4693 88.2539 85.488 88.2539 84.4C88.2539 83.312 88.5099 82.336 89.0219 81.472C89.5339 80.5973 90.2432 79.9147 91.1499 79.424C92.0565 78.9227 93.0699 78.672 94.1899 78.672C95.0645 78.672 95.8645 78.8213 96.5899 79.12C97.3152 79.408 97.9339 79.84 98.4459 80.416L97.4059 81.424C96.5632 80.5387 95.5125 80.096 94.2539 80.096C93.4219 80.096 92.6699 80.2827 91.9979 80.656C91.3259 81.0293 90.7979 81.5467 90.4139 82.208C90.0405 82.8587 89.8539 83.5893 89.8539 84.4C89.8539 85.2107 90.0405 85.9467 90.4139 86.608C90.7979 87.2587 91.3259 87.7707 91.9979 88.144C92.6699 88.5173 93.4219 88.704 94.2539 88.704C95.5019 88.704 96.5525 88.256 97.4059 87.36L98.4459 88.368C97.9339 88.944 97.3099 89.3813 96.5739 89.68C95.8485 89.9787 95.0485 90.128 94.1739 90.128ZM108.643 88.656V91.968H107.203V90H100.115V91.968H98.6593V88.656H99.1073C99.6513 88.624 100.025 88.24 100.227 87.504C100.43 86.768 100.569 85.728 100.643 84.384L100.771 81.52H107.347V88.656H108.643ZM102.051 84.496C102.009 85.5627 101.918 86.448 101.779 87.152C101.651 87.8453 101.411 88.3467 101.059 88.656H105.811V82.864H102.131L102.051 84.496ZM113.668 81.44C114.842 81.44 115.738 81.728 116.356 82.304C116.986 82.88 117.3 83.7387 117.3 84.88V90H115.844V88.88C115.588 89.2747 115.22 89.5787 114.74 89.792C114.271 89.9947 113.711 90.096 113.06 90.096C112.111 90.096 111.348 89.8667 110.772 89.408C110.207 88.9493 109.924 88.3467 109.924 87.6C109.924 86.8533 110.196 86.256 110.74 85.808C111.284 85.3493 112.148 85.12 113.332 85.12H115.764V84.816C115.764 84.1547 115.572 83.648 115.188 83.296C114.804 82.944 114.239 82.768 113.492 82.768C112.991 82.768 112.5 82.8533 112.02 83.024C111.54 83.184 111.135 83.4027 110.804 83.68L110.164 82.528C110.602 82.176 111.124 81.9093 111.732 81.728C112.34 81.536 112.986 81.44 113.668 81.44ZM113.316 88.912C113.903 88.912 114.41 88.784 114.836 88.528C115.263 88.2613 115.572 87.888 115.764 87.408V86.224H113.396C112.095 86.224 111.444 86.6613 111.444 87.536C111.444 87.9627 111.61 88.2987 111.94 88.544C112.271 88.7893 112.73 88.912 113.316 88.912ZM126.834 81.52V90H125.298V86.576C124.381 87.0027 123.469 87.216 122.562 87.216C121.506 87.216 120.69 86.9707 120.114 86.48C119.538 85.9893 119.25 85.2533 119.25 84.272V81.52H120.786V84.176C120.786 84.7627 120.967 85.2053 121.33 85.504C121.703 85.8027 122.221 85.952 122.882 85.952C123.629 85.952 124.434 85.7653 125.298 85.392V81.52H126.834ZM132.84 81.44C134.013 81.44 134.909 81.728 135.528 82.304C136.157 82.88 136.472 83.7387 136.472 84.88V90H135.016V88.88C134.76 89.2747 134.392 89.5787 133.912 89.792C133.443 89.9947 132.883 90.096 132.232 90.096C131.283 90.096 130.52 89.8667 129.944 89.408C129.379 88.9493 129.096 88.3467 129.096 87.6C129.096 86.8533 129.368 86.256 129.912 85.808C130.456 85.3493 131.32 85.12 132.504 85.12H134.936V84.816C134.936 84.1547 134.744 83.648 134.36 83.296C133.976 82.944 133.411 82.768 132.664 82.768C132.163 82.768 131.672 82.8533 131.192 83.024C130.712 83.184 130.307 83.4027 129.976 83.68L129.336 82.528C129.773 82.176 130.296 81.9093 130.904 81.728C131.512 81.536 132.157 81.44 132.84 81.44ZM132.488 88.912C133.075 88.912 133.581 88.784 134.008 88.528C134.435 88.2613 134.744 87.888 134.936 87.408V86.224H132.568C131.267 86.224 130.616 86.6613 130.616 87.536C130.616 87.9627 130.781 88.2987 131.112 88.544C131.443 88.7893 131.901 88.912 132.488 88.912ZM147.167 90.096C146.324 90.096 145.567 89.9093 144.895 89.536C144.223 89.1627 143.695 88.6507 143.311 88C142.938 87.3387 142.751 86.592 142.751 85.76C142.751 84.928 142.938 84.1867 143.311 83.536C143.695 82.8747 144.223 82.3627 144.895 82C145.567 81.6267 146.324 81.44 147.167 81.44C148.01 81.44 148.762 81.6267 149.423 82C150.095 82.3627 150.618 82.8747 150.991 83.536C151.375 84.1867 151.567 84.928 151.567 85.76C151.567 86.592 151.375 87.3387 150.991 88C150.618 88.6507 150.095 89.1627 149.423 89.536C148.762 89.9093 148.01 90.096 147.167 90.096ZM147.167 88.752C147.711 88.752 148.196 88.6293 148.623 88.384C149.06 88.128 149.402 87.776 149.647 87.328C149.892 86.8693 150.015 86.3467 150.015 85.76C150.015 85.1733 149.892 84.656 149.647 84.208C149.402 83.7493 149.06 83.3973 148.623 83.152C148.196 82.9067 147.711 82.784 147.167 82.784C146.623 82.784 146.132 82.9067 145.695 83.152C145.268 83.3973 144.927 83.7493 144.671 84.208C144.426 84.656 144.303 85.1733 144.303 85.76C144.303 86.3467 144.426 86.8693 144.671 87.328C144.927 87.776 145.268 88.128 145.695 88.384C146.132 88.6293 146.623 88.752 147.167 88.752ZM158.105 81.808C158.894 81.808 159.598 81.984 160.217 82.336C160.836 82.688 161.316 83.1787 161.657 83.808C162.009 84.4267 162.185 85.136 162.185 85.936C162.185 86.7573 161.998 87.488 161.625 88.128C161.262 88.7573 160.745 89.248 160.073 89.6C159.412 89.952 158.654 90.128 157.801 90.128C156.361 90.128 155.246 89.6373 154.457 88.656C153.678 87.664 153.289 86.272 153.289 84.48C153.289 82.7413 153.646 81.3813 154.361 80.4C155.076 79.408 156.169 78.752 157.641 78.432L161.513 77.568L161.737 78.976L158.169 79.744C157.06 79.9893 156.233 80.4053 155.689 80.992C155.145 81.5787 154.836 82.4213 154.761 83.52C155.124 82.976 155.593 82.5547 156.169 82.256C156.745 81.9573 157.39 81.808 158.105 81.808ZM157.833 88.848C158.377 88.848 158.857 88.7253 159.273 88.48C159.7 88.2347 160.03 87.8987 160.265 87.472C160.5 87.0347 160.617 86.5387 160.617 85.984C160.617 85.1413 160.361 84.464 159.849 83.952C159.337 83.44 158.665 83.184 157.833 83.184C157.001 83.184 156.324 83.44 155.801 83.952C155.289 84.464 155.033 85.1413 155.033 85.984C155.033 86.5387 155.15 87.0347 155.385 87.472C155.63 87.8987 155.966 88.2347 156.393 88.48C156.82 88.7253 157.3 88.848 157.833 88.848ZM169.074 84.384C170.119 84.384 170.919 84.6293 171.474 85.12C172.039 85.6 172.322 86.2773 172.322 87.152C172.322 88.0587 172.013 88.7627 171.394 89.264C170.786 89.7547 169.922 90 168.802 90H165.234V82.864H162.642V81.52H166.77V84.384H169.074ZM168.754 88.832C169.415 88.832 169.917 88.688 170.258 88.4C170.599 88.112 170.77 87.6853 170.77 87.12C170.77 86.576 170.599 86.176 170.258 85.92C169.927 85.6533 169.426 85.52 168.754 85.52H166.77V88.832H168.754ZM181.949 85.808C181.949 85.9253 181.938 86.08 181.917 86.272H175.037C175.133 87.0187 175.458 87.6213 176.013 88.08C176.578 88.528 177.277 88.752 178.109 88.752C179.122 88.752 179.938 88.4107 180.557 87.728L181.405 88.72C181.021 89.168 180.541 89.5093 179.965 89.744C179.4 89.9787 178.765 90.096 178.061 90.096C177.165 90.096 176.37 89.9147 175.677 89.552C174.984 89.1787 174.445 88.6613 174.061 88C173.688 87.3387 173.501 86.592 173.501 85.76C173.501 84.9387 173.682 84.1973 174.045 83.536C174.418 82.8747 174.925 82.3627 175.565 82C176.216 81.6267 176.946 81.44 177.757 81.44C178.568 81.44 179.288 81.6267 179.917 82C180.557 82.3627 181.053 82.8747 181.405 83.536C181.768 84.1973 181.949 84.9547 181.949 85.808ZM177.757 82.736C177.021 82.736 176.402 82.96 175.901 83.408C175.41 83.856 175.122 84.4427 175.037 85.168H180.477C180.392 84.4533 180.098 83.872 179.597 83.424C179.106 82.9653 178.493 82.736 177.757 82.736ZM187.628 86.416H185.868V90H184.332V81.52H185.868V85.104H187.66L190.412 81.52H192.06L188.844 85.6L192.284 90H190.476L187.628 86.416ZM200.074 82.864H196.97V90H195.434V82.864H192.33V81.52H200.074V82.864ZM204.668 81.44C205.842 81.44 206.738 81.728 207.356 82.304C207.986 82.88 208.3 83.7387 208.3 84.88V90H206.844V88.88C206.588 89.2747 206.22 89.5787 205.74 89.792C205.271 89.9947 204.711 90.096 204.06 90.096C203.111 90.096 202.348 89.8667 201.772 89.408C201.207 88.9493 200.924 88.3467 200.924 87.6C200.924 86.8533 201.196 86.256 201.74 85.808C202.284 85.3493 203.148 85.12 204.332 85.12H206.764V84.816C206.764 84.1547 206.572 83.648 206.188 83.296C205.804 82.944 205.239 82.768 204.492 82.768C203.991 82.768 203.5 82.8533 203.02 83.024C202.54 83.184 202.135 83.4027 201.804 83.68L201.164 82.528C201.602 82.176 202.124 81.9093 202.732 81.728C203.34 81.536 203.986 81.44 204.668 81.44ZM204.316 88.912C204.903 88.912 205.41 88.784 205.836 88.528C206.263 88.2613 206.572 87.888 206.764 87.408V86.224H204.396C203.095 86.224 202.444 86.6613 202.444 87.536C202.444 87.9627 202.61 88.2987 202.94 88.544C203.271 88.7893 203.73 88.912 204.316 88.912Z" fill="#2A3040"/>
<defs>
<clipPath id="clip0_2_493">
<rect width="60" height="60" fill="white" transform="translate(118.5)"/>
</clipPath>
</defs>
</svg>
