<svg width="68" height="42" viewBox="0 0 68 42" fill="none" xmlns="http://www.w3.org/2000/svg">
<rect width="68" height="42" fill="#2A3040"/>
<path d="M25.4458 32.24C23.7858 32.24 22.3058 31.82 21.0058 30.98C19.7258 30.12 18.7158 28.88 17.9758 27.26C17.2358 25.64 16.8658 23.72 16.8658 21.5C16.8658 19.28 17.2358 17.36 17.9758 15.74C18.7158 14.12 19.7258 12.89 21.0058 12.05C22.3058 11.19 23.7858 10.76 25.4458 10.76C27.0858 10.76 28.5458 11.19 29.8258 12.05C31.1258 12.89 32.1458 14.12 32.8858 15.74C33.6258 17.36 33.9958 19.28 33.9958 21.5C33.9958 23.72 33.6258 25.64 32.8858 27.26C32.1458 28.88 31.1258 30.12 29.8258 30.98C28.5458 31.82 27.0858 32.24 25.4458 32.24ZM25.4458 29.57C27.1258 29.57 28.4658 28.88 29.4658 27.5C30.4858 26.12 30.9958 24.12 30.9958 21.5C30.9958 18.88 30.4858 16.88 29.4658 15.5C28.4658 14.12 27.1258 13.43 25.4458 13.43C23.7458 13.43 22.3858 14.12 21.3658 15.5C20.3658 16.88 19.8658 18.88 19.8658 21.5C19.8658 24.12 20.3658 26.12 21.3658 27.5C22.3858 28.88 23.7458 29.57 25.4458 29.57ZM51.5477 29.39V32H36.4577V29.96L45.0077 21.71C46.0477 20.71 46.7477 19.85 47.1077 19.13C47.4677 18.39 47.6477 17.65 47.6477 16.91C47.6477 15.81 47.2577 14.96 46.4777 14.36C45.7177 13.74 44.6177 13.43 43.1777 13.43C40.8577 13.43 39.0677 14.19 37.8077 15.71L35.7677 13.94C36.5877 12.94 37.6577 12.16 38.9777 11.6C40.3177 11.04 41.8077 10.76 43.4477 10.76C45.6477 10.76 47.3977 11.29 48.6977 12.35C49.9977 13.39 50.6477 14.81 50.6477 16.61C50.6477 17.73 50.4077 18.79 49.9277 19.79C49.4477 20.79 48.5377 21.93 47.1977 23.21L40.7777 29.39H51.5477Z" fill="white"/>
</svg>
