<svg width="67" height="42" viewBox="0 0 67 42" fill="none" xmlns="http://www.w3.org/2000/svg">
<rect width="67" height="42" fill="#2A3040"/>
<path d="M25.0776 32.24C23.4176 32.24 21.9376 31.82 20.6376 30.98C19.3576 30.12 18.3476 28.88 17.6076 27.26C16.8676 25.64 16.4976 23.72 16.4976 21.5C16.4976 19.28 16.8676 17.36 17.6076 15.74C18.3476 14.12 19.3576 12.89 20.6376 12.05C21.9376 11.19 23.4176 10.76 25.0776 10.76C26.7176 10.76 28.1776 11.19 29.4576 12.05C30.7576 12.89 31.7776 14.12 32.5176 15.74C33.2576 17.36 33.6276 19.28 33.6276 21.5C33.6276 23.72 33.2576 25.64 32.5176 27.26C31.7776 28.88 30.7576 30.12 29.4576 30.98C28.1776 31.82 26.7176 32.24 25.0776 32.24ZM25.0776 29.57C26.7576 29.57 28.0976 28.88 29.0976 27.5C30.1176 26.12 30.6276 24.12 30.6276 21.5C30.6276 18.88 30.1176 16.88 29.0976 15.5C28.0976 14.12 26.7576 13.43 25.0776 13.43C23.3776 13.43 22.0176 14.12 20.9976 15.5C19.9976 16.88 19.4976 18.88 19.4976 21.5C19.4976 24.12 19.9976 26.12 20.9976 27.5C22.0176 28.88 23.3776 29.57 25.0776 29.57ZM44.2544 19.82C46.3144 20.02 47.8844 20.66 48.9644 21.74C50.0444 22.8 50.5844 24.16 50.5844 25.82C50.5844 27.02 50.2844 28.11 49.6844 29.09C49.0844 30.05 48.1844 30.82 46.9844 31.4C45.8044 31.96 44.3544 32.24 42.6344 32.24C41.1344 32.24 39.6944 32.02 38.3144 31.58C36.9344 31.12 35.8044 30.49 34.9244 29.69L36.3044 27.32C37.0244 28 37.9444 28.55 39.0644 28.97C40.1844 29.37 41.3744 29.57 42.6344 29.57C44.1944 29.57 45.4044 29.24 46.2644 28.58C47.1444 27.92 47.5844 27.01 47.5844 25.85C47.5844 24.69 47.1544 23.79 46.2944 23.15C45.4344 22.51 44.1344 22.19 42.3944 22.19H40.7144V20.09L45.9944 13.61H35.8844V11H49.7444V13.04L44.2544 19.82Z" fill="white"/>
</svg>
