<svg width="60" height="60" viewBox="0 0 60 60" fill="none" xmlns="http://www.w3.org/2000/svg">
<path d="M57.136 45H59.0625V39.375H57.136C56.4066 39.375 55.755 38.9391 55.4616 38.2294C55.1775 37.5487 55.3285 36.7753 55.845 36.2578L57.2091 34.8928L53.2303 30.9141L51.8644 32.2791C51.3488 32.7966 50.5753 32.9447 49.9519 32.6897L49.8572 32.6466C49.185 32.3691 48.75 31.7184 48.75 30.9891V29.0625H46.875V34.7119C46.875 35.3588 46.8478 36 46.7981 36.6366L46.801 36.6281C49.4953 37.0444 51.5625 39.3778 51.5625 42.1875C51.5625 45.2906 49.0406 47.8125 45.9375 47.8125C45.0488 47.8125 44.2078 47.6053 43.4606 47.2378L43.4775 47.1834C42.5306 48.7997 41.4019 50.3006 40.1138 51.6628L41.1235 51.5775C41.4113 51.5569 41.7094 51.5991 41.9213 51.6853L42.016 51.7266C42.6891 52.0059 43.125 52.6566 43.125 53.3859V55.3125H48.75V53.3859C48.75 52.6566 49.186 52.005 49.8956 51.7116C50.5763 51.4284 51.3488 51.5775 51.8663 52.095L53.2313 53.46L57.21 49.4812L55.846 48.1163C55.3294 47.5988 55.1785 46.8253 55.4775 46.1091C55.756 45.4359 56.4066 45 57.136 45Z" fill="#F7C125"/>
<path d="M22.5 11.25C22.5 10.7794 22.68 10.3537 22.9659 10.0247L21.3572 8.41406L19.9912 9.77906C19.4756 10.2966 18.7013 10.4456 18.0787 10.1897L17.9841 10.1466C17.31 9.86906 16.875 9.21844 16.875 8.48906V6.5625H11.25V8.48906C11.25 9.21844 10.815 9.87 10.1044 10.1634C9.42375 10.4466 8.65031 10.2975 8.13281 9.78L6.76875 8.415L2.79 12.3938L4.15406 13.7587C4.67062 14.2762 4.82156 15.0497 4.5225 15.7659C4.24406 16.4391 3.59344 16.875 2.86406 16.875H0.9375V22.5H2.86406C3.59344 22.5 4.245 22.9359 4.53844 23.6456C4.8225 24.3263 4.67156 25.0997 4.155 25.6172L2.79 26.9813L6.76875 30.96L8.13469 29.595C8.65031 29.0766 9.42281 28.9275 10.0472 29.1844L10.1419 29.2256C10.8141 29.5059 11.25 30.1566 11.25 30.8859V32.8125H13.125V25.2347C10.4672 24.7875 8.4375 22.4709 8.4375 19.6875C8.4375 16.5844 10.9594 14.0625 14.0625 14.0625C16.8441 14.0625 19.1578 16.0884 19.6078 18.7434C20.9109 18.7294 22.1991 18.555 23.4506 18.2362L23.4637 12.8784C22.8909 12.5578 22.5 11.9531 22.5 11.25Z" fill="#F7C125"/>
<path d="M57.1875 4.6875H50.9091L49.8319 3.96844C46.8563 1.98562 43.3941 0.9375 39.8184 0.9375H32.8125C31.7784 0.9375 30.9375 1.77844 30.9375 2.8125C30.9375 3.49875 31.1362 4.13438 31.4587 4.68844L26.25 4.6875C24.6994 4.6875 23.4375 5.94938 23.4375 7.5C23.4375 7.87031 23.5134 8.22188 23.6437 8.54625C22.4484 8.86969 21.5625 9.95344 21.5625 11.25C21.5625 12.5466 22.4484 13.6303 23.6437 13.9538C23.5134 14.2781 23.4375 14.6297 23.4375 15C23.4375 15.7856 23.7628 16.4953 24.2841 17.0063C23.0053 17.43 21.6769 17.6831 20.3325 17.7638C19.5009 15.0328 16.9894 13.125 14.0625 13.125C10.4438 13.125 7.5 16.0697 7.5 19.6875C7.5 22.6322 9.43031 25.1559 12.1875 25.9725V34.7119C12.1875 36.5063 12.3872 38.2941 12.7584 40.0416C11.8641 40.4456 10.9959 40.9172 10.1691 41.4684L9.09094 42.1875H2.8125C1.77844 42.1875 0.9375 43.0284 0.9375 44.0625V55.3125C0.9375 56.3466 1.77844 57.1875 2.8125 57.1875H8.4375C9.19594 57.1875 9.8475 56.7328 10.1428 56.0831C13.0763 58.0106 16.5403 59.0625 20.0653 59.0625H28.125C28.5112 59.0625 28.8797 58.9838 29.2153 58.8422C29.3775 58.8994 29.5387 58.9594 29.7028 59.0138L30 59.1131L30.2972 59.0147C36.0516 57.0966 40.7588 53.2791 43.8422 48.4031C44.5134 48.63 45.2147 48.75 45.9375 48.75C49.5563 48.75 52.5 45.8053 52.5 42.1875C52.5 39.2644 50.5144 36.6966 47.7656 35.8913C47.7834 35.4984 47.8125 35.1084 47.8125 34.7119V19.7428C48.5184 19.3997 49.2009 19.0116 49.8563 18.5803C50.1506 19.2309 50.8031 19.6875 51.5625 19.6875H57.1875C58.2216 19.6875 59.0625 18.8466 59.0625 17.8125V6.5625C59.0625 5.52844 58.2216 4.6875 57.1875 4.6875ZM26.25 6.5625L34.6875 6.56344V6.5625H37.6594C38.2247 6.5625 38.7356 6.82406 39.0853 7.25906C38.6766 7.61156 38.3184 8.01 38.0016 8.4375H26.25C25.7334 8.4375 25.3125 8.0175 25.3125 7.5C25.3125 6.9825 25.7334 6.5625 26.25 6.5625ZM32.0306 15.2269L30.2841 14.0625H36.5625V15.9375H33.2213C32.8153 15.7181 32.4159 15.4847 32.0306 15.2269ZM24.375 10.3125H36.9984C36.7837 10.9116 36.6506 11.5406 36.5991 12.1875H24.375C23.8584 12.1875 23.4375 11.7675 23.4375 11.25C23.4375 10.7325 23.8584 10.3125 24.375 10.3125ZM26.25 15.9375C25.7334 15.9375 25.3125 15.5175 25.3125 15C25.3125 14.4825 25.7334 14.0625 26.25 14.0625H29.7159L27.9703 15.2269C27.5841 15.4838 27.1847 15.7172 26.7787 15.9375H26.25ZM9.375 19.6875C9.375 17.1028 11.4778 15 14.0625 15C15.945 15 17.5753 16.1128 18.3169 17.7563C17.6784 17.7113 17.0419 17.64 16.41 17.5144L12.1875 16.6688V23.9681C10.5122 23.2388 9.375 21.5916 9.375 19.6875ZM8.4375 55.3125H2.8125V44.0625H8.4375V55.3125ZM28.125 57.1875H20.0653C16.5525 57.1875 13.1109 56.0166 10.3125 53.9006V43.6266L11.2088 43.0284C13.8741 41.2519 16.9772 40.3125 20.1816 40.3125H25.3125C25.3125 41.3466 24.4725 42.1875 23.4412 42.1875H23.4375H20.6194V44.0625H23.4375H23.4412H31.875C32.3916 44.0625 32.8125 44.4825 32.8125 45C32.8125 45.5175 32.3916 45.9375 31.875 45.9375H20.625V47.8125H33.75C34.2666 47.8125 34.6875 48.2325 34.6875 48.75C34.6875 49.2675 34.2666 49.6875 33.75 49.6875H20.625V51.5625H31.875C32.3916 51.5625 32.8125 51.9825 32.8125 52.5C32.8125 53.0175 32.3916 53.4375 31.875 53.4375H20.625V55.3125H28.125C28.6416 55.3125 29.0625 55.7325 29.0625 56.25C29.0625 56.7675 28.6416 57.1875 28.125 57.1875ZM17.8125 34.7119V23.3756C18.3525 23.4169 18.8934 23.4375 19.4297 23.4375C22.995 23.4375 26.2247 22.7072 29.0625 21.2775V42.1875H26.6663C26.9888 41.6334 27.1875 40.9988 27.1875 40.3125C27.1875 39.2784 26.3466 38.4375 25.3125 38.4375H20.1816C19.5122 38.4375 18.8494 38.4863 18.1903 38.5594C17.9438 37.2956 17.8125 36.0056 17.8125 34.7119ZM36.5503 48.6272C36.495 47.3859 35.6372 46.3603 34.4812 46.0463C34.6116 45.7219 34.6875 45.3703 34.6875 45C34.6875 43.4494 33.4256 42.1875 31.875 42.1875H30.9375V21.2775C33.7753 22.7081 37.005 23.4375 40.5703 23.4375C41.1066 23.4375 41.6475 23.4169 42.1875 23.3756V34.7128C42.1875 39.9853 40.1297 44.9419 36.5503 48.6272ZM30.8831 56.7881C30.9169 56.6138 30.9375 56.4338 30.9375 56.25C30.9375 55.92 30.87 55.6069 30.765 55.3125H31.875C33.3694 55.3125 34.5844 54.1369 34.6706 52.6641C40.5572 48.5813 44.0625 41.9156 44.0625 34.7119V21.2719L43.0069 21.4069C42.1978 21.51 41.3775 21.5625 40.5703 21.5625C36.7463 21.5625 33.3563 20.6634 30.4931 18.8897L30 18.5841L29.5069 18.8897C26.6438 20.6634 23.2537 21.5625 19.4297 21.5625C18.6225 21.5625 17.8031 21.51 16.9931 21.4069L15.9375 21.2719V34.7119C15.9375 36.1041 16.0763 37.4916 16.3369 38.8528C15.7247 38.9859 15.1228 39.1575 14.5275 39.3544C14.2247 37.8291 14.0625 36.2738 14.0625 34.7119V18.9563L16.0434 19.3528C17.1562 19.575 18.2963 19.6875 19.4297 19.6875C22.8497 19.6875 26.1628 18.6853 29.01 16.7869L30 16.1269L30.99 16.7869C33.8372 18.6853 37.1494 19.6875 40.5703 19.6875C41.7038 19.6875 42.8438 19.575 43.9575 19.3528L45.9375 18.9563V34.7128C45.9375 44.5247 39.9338 53.2313 30.8831 56.7881ZM50.625 42.1875C50.625 44.7722 48.5222 46.875 45.9375 46.875C45.5513 46.875 45.1753 46.8263 44.8088 46.7353C46.2628 43.9997 47.22 40.9866 47.6044 37.8188C49.3763 38.5022 50.625 40.2309 50.625 42.1875ZM43.59 17.5144C41.8837 17.8547 40.1409 17.88 38.4375 17.64V12.7734C38.4375 11.2509 39.0788 9.825 40.1756 8.80969C41.0822 9.75563 42.3384 10.3125 43.6997 10.3125H44.0625V8.4375H43.6997C42.5466 8.4375 41.5116 7.79625 40.9884 6.74813C40.3547 5.47781 39.0797 4.6875 37.6594 4.6875H34.6838C33.6525 4.6875 32.8125 3.84656 32.8125 2.8125H39.8184C43.0228 2.8125 46.1259 3.75188 48.7912 5.52844L49.6875 6.12656V16.4063C49.0913 16.8572 48.465 17.2659 47.8125 17.6306V16.6688L43.59 17.5144ZM57.1875 17.8125H51.5625V6.5625H57.1875V17.8125Z" fill="white"/>
<path d="M44.8359 12.435C42.7227 12.9628 41.0493 14.5125 40.3602 16.5788L42.1387 17.1722C42.6243 15.7163 43.8018 14.626 45.2905 14.2538L46.1643 14.0353L45.7096 12.2175L44.8359 12.435Z" fill="white"/>
<path d="M0.9375 36.5625H2.8125V38.4375H0.9375V36.5625Z" fill="white"/>
<path d="M4.6875 36.5625H6.5625V38.4375H4.6875V36.5625Z" fill="white"/>
<path d="M8.4375 36.5625H10.3125V38.4375H8.4375V36.5625Z" fill="white"/>
<path d="M49.6875 23.4375H51.5625V25.3125H49.6875V23.4375Z" fill="white"/>
<path d="M53.4375 23.4375H55.3125V25.3125H53.4375V23.4375Z" fill="white"/>
<path d="M57.1875 23.4375H59.0625V25.3125H57.1875V23.4375Z" fill="white"/>
</svg>
