<svg width="60" height="60" viewBox="0 0 60 60" fill="none" xmlns="http://www.w3.org/2000/svg">
<path d="M25.3125 14.2603V27.1875H27.1875V14.2603C27.1875 13.3313 26.9156 12.4322 26.4 11.6606L22.1194 5.23688C22.1166 5.23219 22.1119 5.22844 22.1081 5.22375L21.7181 4.63875C21.6169 4.48406 21.5625 4.30687 21.5625 4.12312V3.73781C21.5625 3.22781 21.9778 2.8125 22.4878 2.8125C22.7831 2.8125 23.0634 2.955 23.2378 3.19313L29.4628 11.7525C29.8144 12.2372 30 12.8081 30 13.4072V25.0041H31.875V13.4072C31.875 12.4106 31.5656 11.4563 30.9787 10.6509L24.7537 2.09063C24.2288 1.36875 23.3813 0.9375 22.4878 0.9375C21.0591 0.9375 19.89 2.01656 19.7212 3.40125C19.7137 3.39844 19.7081 3.39469 19.7006 3.39281L12.8325 1.1025C12.5053 0.992812 12.1641 0.9375 11.8181 0.9375H11.6475C9.8775 0.9375 8.4375 2.3775 8.4375 4.14844C8.4375 5.41594 9.18563 6.56719 10.3434 7.08187L16.4381 9.79125C16.9266 10.0069 17.34 10.3566 17.6353 10.8L20.1525 14.5753C20.4619 15.0384 20.625 15.5775 20.625 16.1353V18.4659L19.4278 16.6697C18.7303 15.6244 17.5641 15 16.3078 15H7.03125C4.44656 15 2.34375 17.1028 2.34375 19.6875C2.34375 19.7072 2.34375 19.7269 2.34469 19.7466C1.53656 19.9547 0.9375 20.6897 0.9375 21.5625V31.0509C0.9375 31.7241 1.08656 32.4028 1.36875 33.0159L6.10313 43.2731C6.49781 44.1272 6.99469 44.9325 7.58063 45.6637L8.17594 46.4081C9.55312 48.1303 10.3125 50.2931 10.3125 52.5H12.1875C12.1875 49.8684 11.2819 47.2884 9.63937 45.2372L9.04406 44.4928C8.55281 43.8787 8.13563 43.2038 7.80562 42.4875L3.07125 32.2303C2.9025 31.8628 2.8125 31.455 2.8125 31.0509V21.5625C4.88063 21.5625 6.5625 23.2444 6.5625 25.3125V29.0625C6.5625 29.9428 6.9825 30.7847 7.6875 31.3116L9.56156 32.7178C10.4494 33.3834 11.5472 33.75 12.6562 33.75C15.4987 33.75 17.8125 31.4363 17.8125 28.5938V24.8438C17.8125 22.0012 15.4987 19.6875 12.6562 19.6875H4.21875C4.21875 18.1369 5.48063 16.875 7.03125 16.875H16.3078C16.9359 16.875 17.5191 17.1872 17.8678 17.7103L20.3091 21.3731C20.5163 21.6834 20.625 22.0434 20.625 22.4138V27.1875H22.5V22.4138V16.1353C22.5 15.2063 22.2281 14.3072 21.7125 13.5356L19.1953 9.76031C18.7022 9.02063 18.0112 8.43844 17.1984 8.0775L11.1047 5.36812C10.6238 5.15438 10.3125 4.67531 10.3125 4.14844C10.3125 3.41156 10.9116 2.8125 11.6484 2.8125H11.8191C11.9625 2.8125 12.1059 2.835 12.2409 2.88L19.1081 5.16937C19.6969 5.36531 20.2106 5.75719 20.5556 6.27281L23.595 10.8319L24.84 12.6994C25.1494 13.1634 25.3125 13.7025 25.3125 14.2603ZM12.6562 21.5625C14.4656 21.5625 15.9375 23.0344 15.9375 24.8438V28.5938C15.9375 30.4031 14.4656 31.875 12.6562 31.875C11.9503 31.875 11.2519 31.6416 10.6866 31.2188L8.81156 29.8125C8.57719 29.6362 8.4375 29.3559 8.4375 29.0625V25.3125C8.4375 23.8734 7.89375 22.5581 7.00219 21.5625H12.6562Z" fill="white"/>
<path d="M26.2069 46.4156C25.6134 47.8388 25.3125 49.3444 25.3125 50.8875V52.5H27.1875V50.8875C27.1875 49.5928 27.4406 48.33 27.9375 47.1366L30.5709 40.8178L28.8403 40.0959L26.2069 46.4156Z" fill="white"/>
<path d="M29.0625 59.0625H8.4375V51.5625H29.0625V59.0625Z" fill="#F7C125"/>
<path d="M43.125 49.6875C34.3369 49.6875 27.1875 42.5381 27.1875 33.75C27.1875 24.9619 34.3369 17.8125 43.125 17.8125C51.9131 17.8125 59.0625 24.9619 59.0625 33.75C59.0625 42.5381 51.9131 49.6875 43.125 49.6875ZM43.125 22.5C36.9216 22.5 31.875 27.5466 31.875 33.75C31.875 39.9534 36.9216 45 43.125 45C49.3284 45 54.375 39.9534 54.375 33.75C54.375 27.5466 49.3284 22.5 43.125 22.5Z" fill="#F7C125"/>
<path d="M49.0247 27.4622L39.375 37.1118L37.2253 34.9622L35.8997 36.2878L39.375 39.7631L50.3503 28.7878L49.0247 27.4622Z" fill="white"/>
<path d="M43.125 44.0626C37.4391 44.0626 32.8125 39.4361 32.8125 33.7501C32.8125 31.3173 33.6797 28.9548 35.2537 27.0957L33.8241 25.8835C31.9631 28.081 30.9375 30.8748 30.9375 33.7501C30.9375 40.4701 36.405 45.9376 43.125 45.9376C46.0003 45.9376 48.7941 44.912 50.9916 43.0511L49.7794 41.6214C47.9203 43.1954 45.5578 44.0626 43.125 44.0626Z" fill="white"/>
<path d="M43.1251 21.5625C40.2498 21.5625 37.456 22.5881 35.2585 24.4491L36.4707 25.8787C38.3298 24.3047 40.6923 23.4375 43.1251 23.4375C48.811 23.4375 53.4376 28.0641 53.4376 33.75C53.4376 36.1828 52.5704 38.5453 50.9964 40.4044L52.426 41.6166C54.287 39.4191 55.3126 36.6253 55.3126 33.75C55.3126 27.03 49.8451 21.5625 43.1251 21.5625Z" fill="white"/>
</svg>
