<svg width="60" height="60" viewBox="0 0 60 60" fill="none" xmlns="http://www.w3.org/2000/svg">
<path d="M59.0006 23.4375H58.0631C56.0081 23.4375 54.1716 22.2094 53.3859 20.3109C52.6012 18.4144 53.0325 16.2487 54.525 14.7562L55.1944 14.0934L46.5731 5.47219L45.8662 4.85344L45.2025 5.51625C43.7522 6.96937 41.5866 7.39875 39.69 6.615C37.7897 5.82844 36.5625 3.99281 36.5625 1.875V0.9375H24.375L23.4375 0.999375V1.93687C23.4375 3.88969 22.3219 5.6325 20.5312 6.49875C20.5894 6.82406 20.625 7.15781 20.625 7.5V9.375C20.625 10.2047 20.5041 11.0166 20.2941 11.8003C23.1872 10.2544 26.49 9.375 30 9.375C41.3906 9.375 50.625 18.6094 50.625 30C50.625 41.3906 41.3906 50.625 30 50.625C25.0134 50.625 20.4412 48.8559 16.875 45.9103V48.75L14.5134 53.4722L15.1172 54.1894C16.5675 52.9688 18.5587 52.6603 20.31 53.3859C22.2103 54.1706 23.4375 56.0062 23.4375 58.125V59.0625H35.625L36.5625 59.0006V58.0631C36.5625 56.0072 37.7897 54.1716 39.6891 53.3859C41.5856 52.6022 43.7503 53.0316 45.2503 54.5325L45.9131 55.1878L54.5278 46.5741L55.1466 45.8672L54.4837 45.2044C53.0316 43.7522 52.6003 41.5875 53.385 39.69C54.1716 37.7906 56.0072 36.5625 58.125 36.5625H59.0625V24.375L59.0006 23.4375Z" fill="#F7C125"/>
<path d="M30 8.4375C27.0806 8.4375 24.1838 9.04313 21.5166 10.1822C21.5381 9.91406 21.5625 9.64594 21.5625 9.375V7.5C21.5625 3.88219 18.6187 0.9375 15 0.9375H14.0625V5.625C14.0625 6.1425 13.6416 6.5625 13.125 6.5625H9.375C8.85844 6.5625 8.4375 6.1425 8.4375 5.625V0.9375H7.5C3.88125 0.9375 0.9375 3.88219 0.9375 7.5V9.375C0.9375 12.4434 2.33063 15.3825 4.6875 17.3297V48.9712L9.05437 57.705C9.4725 58.5422 10.3144 59.0625 11.25 59.0625C12.1856 59.0625 13.0275 58.5422 13.4456 57.7059L17.8125 48.9712V47.7863C21.3834 50.2313 25.6434 51.5625 30 51.5625C41.8894 51.5625 51.5625 41.8903 51.5625 30C51.5625 18.1097 41.8894 8.4375 30 8.4375ZM2.8125 9.375V7.5C2.8125 5.23594 4.42594 3.34219 6.5625 2.90719V5.625C6.5625 7.17562 7.82438 8.4375 9.375 8.4375H13.125C14.6756 8.4375 15.9375 7.17562 15.9375 5.625V2.90719C18.0741 3.34219 19.6875 5.23594 19.6875 7.5V9.375C19.6875 11.9194 18.5081 14.3447 16.5337 15.9375H5.96625C3.99187 14.3447 2.8125 11.9194 2.8125 9.375ZM30.9375 17.8125V14.1103C34.6247 14.3259 37.9734 15.795 40.5703 18.105L38.7122 19.9622L40.0378 21.2878L41.8959 19.4306C44.2059 22.0275 45.6741 25.3753 45.8906 29.0625H42.1875V30.9375H45.8897C45.6741 34.6247 44.205 37.9734 41.895 40.5694L40.0369 38.7122L38.7113 40.0378L40.5694 41.895C37.9725 44.205 34.6247 45.6731 30.9366 45.8897V42.1875H29.0616V45.885C25.4616 45.675 22.0931 44.2706 19.4278 41.8969L21.2869 40.0378L19.9613 38.7122L18.1031 40.5703C18.0075 40.4616 17.9062 40.3594 17.8125 40.2478V19.7513C17.9062 19.6397 18.0075 19.5384 18.1041 19.4297L19.9622 21.2878L21.2878 19.9622L19.4288 18.1031C22.0941 15.7294 25.4625 14.325 29.0625 14.115V17.8125H30.9375ZM7.14188 49.6875H15.3581L13.4831 53.4375H9.01688L7.14188 49.6875ZM6.5625 17.8125H10.3125V47.8125H6.5625V17.8125ZM12.1875 47.8125V17.8125H15.9375V47.8125H12.1875ZM10.7316 56.8669L9.95438 55.3125H12.5456L11.7684 56.8669C11.5706 57.2625 10.9294 57.2625 10.7316 56.8669ZM30 49.6875C25.5788 49.6875 21.2728 48.1763 17.8125 45.4453V42.9834C21.0966 46.0734 25.4194 47.8125 30 47.8125C39.8222 47.8125 47.8125 39.8222 47.8125 30C47.8125 20.1778 39.8222 12.1875 30 12.1875C26.1234 12.1875 22.4325 13.4353 19.3978 15.69C20.1459 14.7216 20.7075 13.6228 21.075 12.4566C23.82 11.0569 26.8959 10.3125 30 10.3125C40.8563 10.3125 49.6875 19.1447 49.6875 30C49.6875 40.8553 40.8563 49.6875 30 49.6875Z" fill="white"/>
<path d="M30 6.5625C30.5178 6.5625 30.9375 6.14277 30.9375 5.625C30.9375 5.10723 30.5178 4.6875 30 4.6875C29.4822 4.6875 29.0625 5.10723 29.0625 5.625C29.0625 6.14277 29.4822 6.5625 30 6.5625Z" fill="white"/>
<path d="M30 55.3125C30.5178 55.3125 30.9375 54.8928 30.9375 54.375C30.9375 53.8572 30.5178 53.4375 30 53.4375C29.4822 53.4375 29.0625 53.8572 29.0625 54.375C29.0625 54.8928 29.4822 55.3125 30 55.3125Z" fill="white"/>
<path d="M47.2358 46.2983C46.9958 46.2983 46.7558 46.3902 46.573 46.573C46.2065 46.9396 46.2065 47.533 46.573 47.8987C46.7558 48.0815 46.9958 48.1733 47.2358 48.1733C47.4758 48.1733 47.7158 48.0815 47.8987 47.8987C48.2652 47.5321 48.2652 46.9387 47.8987 46.573C47.7158 46.3893 47.4758 46.2983 47.2358 46.2983Z" fill="white"/>
<path d="M54.375 30.9375C54.8928 30.9375 55.3125 30.5178 55.3125 30C55.3125 29.4822 54.8928 29.0625 54.375 29.0625C53.8572 29.0625 53.4375 29.4822 53.4375 30C53.4375 30.5178 53.8572 30.9375 54.375 30.9375Z" fill="white"/>
<path d="M47.2358 13.7017C47.4758 13.7017 47.7158 13.6098 47.8987 13.427C48.2652 13.0604 48.2652 12.467 47.8987 12.1013C47.7158 11.9185 47.4758 11.8267 47.2358 11.8267C46.9958 11.8267 46.7558 11.9185 46.573 12.1013C46.2065 12.4679 46.2065 13.0613 46.573 13.427C46.7558 13.6107 46.9958 13.7017 47.2358 13.7017Z" fill="white"/>
<path d="M23.1628 21.8372L21.8372 23.1628L27.4697 28.7953C27.2934 29.1618 27.1875 29.5668 27.1875 30C27.1875 31.5506 28.4493 32.8125 30 32.8125C31.5506 32.8125 32.8125 31.5506 32.8125 30C32.8125 29.5668 32.7065 29.1618 32.5303 28.7953L36.2878 25.0378L34.9622 23.7122L31.2047 27.4697C30.8381 27.2934 30.4331 27.1875 30 27.1875C29.5668 27.1875 29.1618 27.2934 28.7953 27.4697L23.1628 21.8372ZM30 29.0625C30.5165 29.0625 30.9375 29.4825 30.9375 30C30.9375 30.5175 30.5165 30.9375 30 30.9375C29.4834 30.9375 29.0625 30.5175 29.0625 30C29.0625 29.4825 29.4834 29.0625 30 29.0625Z" fill="white"/>
</svg>
